<svg width="267" height="81" viewBox="0 0 267 81" fill="none" xmlns="http://www.w3.org/2000/svg">
<path fill-rule="evenodd" clip-rule="evenodd" d="M22.7564 30.8753C28.1336 30.8753 32.4928 35.2345 32.4928 40.6117C32.4928 45.9889 28.1336 50.3481 22.7564 50.3481C17.3791 50.3481 13.02 45.9889 13.02 40.6117C13.02 35.2345 17.3791 30.8753 22.7564 30.8753ZM32.4928 0.536377L45.4746 2.64918V40.6117C45.4746 53.1587 35.3033 63.3301 22.7564 63.3301C10.2093 63.3301 0.0380859 53.1587 0.0380859 40.6117C0.0380859 28.0647 10.2094 17.8934 22.7564 17.8934C26.2409 17.8934 29.5417 18.679 32.4928 20.081V0.536377Z" fill="#04020D"/>
<path fill-rule="evenodd" clip-rule="evenodd" d="M194.716 15.7808L181.734 17.8936V63.3302H194.716V15.7808Z" fill="#04020D"/>
<path fill-rule="evenodd" clip-rule="evenodd" d="M243.399 17.8936C255.894 17.8936 266.117 28.1169 266.117 40.6121V63.3302H253.135V40.612C253.135 35.257 248.754 30.8755 243.399 30.8755C238.044 30.8755 233.662 35.257 233.662 40.612V63.3302H220.681V48.8067H220.68V17.8936H233.662V20.1005C236.617 18.687 239.92 17.8936 243.399 17.8936Z" fill="#04020D"/>
<path fill-rule="evenodd" clip-rule="evenodd" d="M71.4385 15.7808L84.4204 17.8936V63.3302H71.4385V15.7808Z" fill="#04020D"/>
<path fill-rule="evenodd" clip-rule="evenodd" d="M133.053 50.3481C133.137 50.3481 133.22 50.3472 133.304 50.345C133.387 50.3429 133.471 50.3397 133.554 50.3354H133.554C133.637 50.3313 133.719 50.3259 133.802 50.3197H133.802C133.884 50.3133 133.966 50.3062 134.048 50.2979C134.13 50.2896 134.211 50.28 134.293 50.2698C134.374 50.2594 134.455 50.2482 134.535 50.2359C134.616 50.2236 134.696 50.2103 134.776 50.1961C134.856 50.1818 134.936 50.1664 135.015 50.1502C135.094 50.134 135.173 50.117 135.251 50.0988V50.0987C135.33 50.0805 135.408 50.0615 135.486 50.0415C135.564 50.0215 135.641 50.0005 135.718 49.9787C135.795 49.9569 135.872 49.9339 135.948 49.9103C136.024 49.8865 136.1 49.8619 136.175 49.8364C136.251 49.8109 136.325 49.7845 136.4 49.7572H136.4C136.475 49.73 136.549 49.7018 136.622 49.6727H136.623C136.696 49.6437 136.769 49.6136 136.842 49.5829H136.842C136.915 49.552 136.987 49.5205 137.059 49.488H137.059C137.131 49.4555 137.203 49.4221 137.274 49.388H137.274C137.345 49.3537 137.415 49.3187 137.485 49.2829C137.555 49.247 137.624 49.2104 137.693 49.173H137.694C137.762 49.1356 137.831 49.0972 137.899 49.0582V49.058C137.967 49.019 138.034 48.9791 138.101 48.9385H138.101C138.235 48.8571 138.367 48.7727 138.496 48.6853C138.561 48.6415 138.625 48.5971 138.689 48.5518H138.689C138.752 48.5067 138.816 48.4605 138.878 48.4138C138.94 48.3671 139.002 48.3197 139.064 48.2716V48.2714C139.125 48.2232 139.186 48.1744 139.246 48.1249C139.306 48.0753 139.365 48.0249 139.424 47.9739C139.542 47.8719 139.657 47.7671 139.77 47.6596H139.77C139.826 47.6059 139.882 47.5515 139.937 47.4965C139.992 47.4414 140.047 47.3857 140.1 47.3294V47.3293C140.208 47.2167 140.313 47.1013 140.415 46.9836C140.466 46.9246 140.516 46.8651 140.566 46.805C140.615 46.745 140.664 46.6842 140.712 46.6229H140.712C140.76 46.5616 140.808 46.4998 140.855 46.4372C140.901 46.3748 140.947 46.3117 140.993 46.2481V46.248C141.038 46.1845 141.082 46.1203 141.126 46.0555C141.213 45.9261 141.298 45.7944 141.379 45.6606V45.6604C141.42 45.5936 141.46 45.5262 141.499 45.4582H141.499C141.538 45.3902 141.576 45.3217 141.614 45.2528V45.2526C141.651 45.1837 141.688 45.1143 141.724 45.0443C141.759 44.9744 141.794 44.9038 141.829 44.8329V44.8328C141.863 44.7619 141.896 44.6907 141.929 44.6187V44.6186C141.961 44.5467 141.993 44.4746 142.024 44.4017V44.4015C142.055 44.3287 142.084 44.2556 142.113 44.1819V44.1818C142.143 44.108 142.171 44.034 142.198 43.9595V43.9594C142.225 43.8848 142.252 43.81 142.277 43.7345C142.303 43.6591 142.327 43.5833 142.351 43.5071C142.375 43.4307 142.398 43.3541 142.419 43.2772C142.441 43.2002 142.462 43.1228 142.482 43.0451C142.502 42.9673 142.521 42.8891 142.539 42.8107H142.54C142.558 42.7321 142.575 42.6532 142.591 42.574C142.607 42.4948 142.622 42.4152 142.637 42.3353C142.651 42.2554 142.664 42.1752 142.677 42.0946C142.689 42.0141 142.7 41.9331 142.71 41.8519C142.721 41.7706 142.73 41.6891 142.739 41.6073C142.747 41.5255 142.754 41.4434 142.76 41.361V41.3609C142.767 41.2784 142.772 41.1959 142.776 41.113V41.1128C142.78 41.0297 142.784 40.9468 142.786 40.8632C142.788 40.7796 142.789 40.6959 142.789 40.6119C142.789 40.5279 142.788 40.444 142.786 40.3605C142.784 40.277 142.78 40.1938 142.776 40.1108V40.1107C142.772 40.0278 142.767 39.9451 142.76 39.8627V39.8626C142.754 39.7802 142.747 39.6982 142.739 39.6164C142.73 39.5346 142.721 39.4531 142.71 39.3718C142.7 39.2907 142.689 39.2097 142.677 39.1291C142.664 39.0485 142.651 38.9683 142.637 38.8883C142.622 38.8084 142.607 38.7288 142.591 38.6496C142.575 38.5704 142.558 38.4915 142.54 38.4129H142.539C142.521 38.3344 142.502 38.2563 142.482 38.1785C142.462 38.1008 142.441 38.0233 142.419 37.9464C142.398 37.8694 142.375 37.7927 142.351 37.7165C142.327 37.6403 142.303 37.5644 142.277 37.489C142.252 37.4136 142.225 37.3389 142.198 37.2642V37.2641C142.171 37.1896 142.143 37.1156 142.113 37.0418V37.0417C142.084 36.968 142.054 36.8949 142.024 36.8221V36.8219C141.993 36.7491 141.961 36.677 141.929 36.605V36.6049C141.896 36.5329 141.863 36.4617 141.829 36.3908V36.3907C141.794 36.3198 141.759 36.2493 141.724 36.1793C141.688 36.1094 141.651 36.04 141.614 35.971V35.9708C141.576 35.9019 141.538 35.8333 141.499 35.7654H141.499C141.46 35.6974 141.42 35.6302 141.379 35.5632V35.563C141.298 35.4294 141.213 35.2975 141.126 35.1681C141.082 35.1033 141.038 35.0391 140.993 34.9756V34.9755C140.947 34.9119 140.901 34.8488 140.855 34.7864C140.808 34.7239 140.76 34.662 140.712 34.6007H140.712C140.664 34.5395 140.615 34.4787 140.566 34.4186C140.516 34.3584 140.466 34.299 140.415 34.2401C140.313 34.1223 140.208 34.007 140.1 33.8943V33.8942C140.047 33.8379 139.992 33.7822 139.937 33.7272C139.882 33.6721 139.826 33.6177 139.77 33.564H139.77C139.657 33.4565 139.542 33.3517 139.424 33.2497C139.365 33.1987 139.306 33.1483 139.246 33.0987C139.186 33.0491 139.125 33.0003 139.064 32.9521V32.952C139.002 32.9039 138.94 32.8565 138.878 32.8097C138.816 32.7631 138.752 32.7169 138.689 32.6717H138.689C138.625 32.6265 138.561 32.582 138.496 32.5383C138.367 32.4509 138.235 32.3663 138.101 32.285H138.101C138.034 32.2444 137.967 32.2045 137.899 32.1655V32.1653C137.831 32.1263 137.762 32.088 137.694 32.0506H137.693C137.624 32.0131 137.555 31.9764 137.485 31.9406C137.415 31.9048 137.345 31.8697 137.274 31.8356H137.274C137.203 31.8013 137.131 31.7679 137.059 31.7355H137.059C136.987 31.703 136.915 31.6714 136.842 31.6406H136.842C136.769 31.6097 136.696 31.5799 136.623 31.5508H136.622C136.549 31.5217 136.475 31.4936 136.4 31.4663H136.4C136.325 31.4389 136.251 31.4127 136.175 31.3871C136.1 31.3615 136.024 31.337 135.948 31.3132C135.871 31.2894 135.795 31.2666 135.718 31.2448C135.641 31.223 135.564 31.2019 135.486 31.182C135.408 31.1618 135.33 31.1431 135.251 31.1249V31.1247C135.173 31.1067 135.094 31.0896 135.015 31.0733C134.936 31.0571 134.856 31.0417 134.776 31.0274C134.696 31.0132 134.616 30.9999 134.535 30.9876C134.455 30.9752 134.374 30.9641 134.293 30.9537C134.211 30.9435 134.13 30.934 134.048 30.9257C133.966 30.9175 133.884 30.9101 133.802 30.9039H133.802C133.719 30.8976 133.637 30.8923 133.554 30.8881H133.554C133.471 30.884 133.387 30.8806 133.304 30.8785C133.22 30.8765 133.137 30.8754 133.053 30.8754C132.969 30.8754 132.885 30.8764 132.801 30.8785C132.718 30.8806 132.635 30.8839 132.552 30.8881H132.552C132.469 30.8923 132.386 30.8976 132.304 30.9039H132.303C132.221 30.9102 132.139 30.9174 132.057 30.9257C131.975 30.934 131.894 30.9435 131.813 30.9537C131.731 30.9641 131.65 30.9752 131.57 30.9876C131.489 30.9999 131.409 31.0132 131.329 31.0274C131.249 31.0417 131.17 31.0571 131.09 31.0733C131.011 31.0895 130.932 31.1065 130.854 31.1247V31.1249C130.775 31.143 130.697 31.1619 130.619 31.182C130.542 31.2019 130.464 31.223 130.387 31.2448C130.31 31.2666 130.234 31.2894 130.157 31.3132C130.081 31.337 130.005 31.3616 129.93 31.3871C129.854 31.4127 129.78 31.439 129.705 31.4663H129.705C129.63 31.4936 129.556 31.5217 129.483 31.5508H129.483C129.409 31.5799 129.336 31.6098 129.263 31.6406H129.263C129.19 31.6715 129.118 31.703 129.046 31.7355H129.046C128.974 31.768 128.902 31.8015 128.832 31.8356H128.831C128.761 31.8698 128.69 31.9048 128.62 31.9406C128.55 31.9765 128.481 32.0131 128.412 32.0506H128.412C128.343 32.088 128.274 32.1263 128.206 32.1653V32.1655C128.138 32.2045 128.071 32.2444 128.004 32.285H128.004C127.87 32.3664 127.738 32.4508 127.609 32.5383C127.544 32.582 127.48 32.6265 127.416 32.6717H127.416C127.353 32.7169 127.29 32.763 127.227 32.8097C127.165 32.8565 127.103 32.9039 127.042 32.952V32.9521C126.98 33.0003 126.919 33.0491 126.859 33.0987C126.799 33.1483 126.74 33.1987 126.681 33.2497C126.563 33.3517 126.448 33.4565 126.335 33.564H126.335C126.279 33.6177 126.223 33.6721 126.168 33.7272C126.113 33.7822 126.059 33.8379 126.005 33.8942V33.8943C125.897 34.0069 125.793 34.1223 125.691 34.2401C125.64 34.299 125.589 34.3585 125.54 34.4186C125.49 34.4787 125.441 34.5394 125.393 34.6007H125.393C125.345 34.662 125.297 34.7239 125.251 34.7864C125.204 34.8488 125.158 34.9119 125.113 34.9755V34.9756C125.067 35.0391 125.023 35.1033 124.979 35.1681C124.892 35.2975 124.807 35.4292 124.726 35.563V35.5632C124.685 35.63 124.645 35.6974 124.606 35.7654H124.606C124.567 35.8333 124.529 35.9019 124.491 35.9708V35.971C124.454 36.0399 124.417 36.1094 124.381 36.1793C124.346 36.2492 124.311 36.3198 124.276 36.3907V36.3908C124.242 36.4616 124.209 36.5329 124.176 36.6049V36.605C124.144 36.6769 124.112 36.7491 124.081 36.8219V36.8221C124.051 36.8949 124.021 36.968 123.992 37.0417V37.0418C123.963 37.1156 123.934 37.1896 123.907 37.2641V37.2642C123.88 37.3389 123.853 37.4136 123.828 37.489C123.802 37.5644 123.778 37.6403 123.754 37.7165C123.73 37.7929 123.707 37.8694 123.686 37.9464C123.664 38.0233 123.643 38.1007 123.623 38.1785C123.603 38.2562 123.584 38.3344 123.566 38.4129H123.566C123.548 38.4915 123.53 38.5704 123.514 38.6496C123.498 38.7288 123.483 38.8083 123.468 38.8883C123.454 38.9681 123.441 39.0484 123.428 39.1291C123.416 39.2096 123.405 39.2906 123.395 39.3718C123.384 39.4531 123.375 39.5346 123.367 39.6164C123.358 39.6982 123.351 39.7804 123.345 39.8626V39.8627C123.338 39.9452 123.333 40.0277 123.329 40.1107V40.1108C123.325 40.1939 123.321 40.2769 123.319 40.3605C123.317 40.4441 123.316 40.5279 123.316 40.6119C123.316 40.6959 123.317 40.7797 123.319 40.8632C123.321 40.9468 123.325 41.0297 123.329 41.1128V41.113C123.333 41.1959 123.338 41.2786 123.345 41.3609V41.361C123.351 41.4435 123.358 41.5255 123.367 41.6073C123.375 41.6891 123.384 41.7706 123.395 41.8519C123.405 41.933 123.416 42.014 123.428 42.0946C123.441 42.1751 123.454 42.2553 123.468 42.3353C123.483 42.4152 123.498 42.4948 123.514 42.574C123.53 42.6532 123.547 42.7322 123.566 42.8107H123.566C123.584 42.8892 123.603 42.9673 123.623 43.0451C123.643 43.1228 123.664 43.2002 123.686 43.2772C123.707 43.3541 123.73 43.4309 123.754 43.5071C123.778 43.5832 123.802 43.6591 123.828 43.7345C123.853 43.81 123.88 43.8847 123.907 43.9594V43.9595C123.934 44.034 123.963 44.108 123.992 44.1818V44.1819C124.021 44.2556 124.051 44.3287 124.081 44.4015V44.4017C124.112 44.4745 124.144 44.5467 124.176 44.6186V44.6187C124.209 44.6907 124.242 44.7619 124.276 44.8328V44.8329C124.311 44.9038 124.346 44.9743 124.381 45.0443C124.417 45.1143 124.454 45.1836 124.491 45.2526V45.2528C124.529 45.3217 124.567 45.3902 124.606 45.4582H124.606C124.645 45.5262 124.685 45.5935 124.726 45.6604V45.6606C124.807 45.7941 124.892 45.9261 124.979 46.0555C125.023 46.1203 125.067 46.1845 125.113 46.248V46.2481C125.158 46.3117 125.204 46.3748 125.251 46.4372C125.297 46.4997 125.345 46.5616 125.393 46.6229H125.393C125.441 46.6842 125.49 46.745 125.54 46.805C125.589 46.8651 125.64 46.9246 125.691 46.9836C125.793 47.1013 125.897 47.2166 126.005 47.3293V47.3294C126.059 47.3857 126.113 47.4414 126.168 47.4965C126.223 47.5515 126.279 47.6059 126.335 47.6596H126.335C126.448 47.7671 126.563 47.8719 126.681 47.9739C126.74 48.0249 126.799 48.0753 126.859 48.1249C126.919 48.1744 126.98 48.2232 127.042 48.2714V48.2716C127.103 48.3197 127.165 48.3671 127.227 48.4138C127.29 48.4604 127.353 48.5067 127.416 48.5518H127.416C127.48 48.5971 127.544 48.6415 127.609 48.6853C127.738 48.7726 127.87 48.8572 128.004 48.9385H128.004C128.071 48.9791 128.138 49.019 128.206 49.058V49.0582C128.274 49.0972 128.343 49.1356 128.412 49.173H128.412C128.481 49.2104 128.55 49.247 128.62 49.2829C128.69 49.3187 128.761 49.3538 128.831 49.388H128.832C128.902 49.4222 128.974 49.4556 129.046 49.488H129.046C129.118 49.5205 129.19 49.5521 129.263 49.5829H129.263C129.336 49.6138 129.409 49.6437 129.483 49.6727H129.483C129.556 49.7018 129.63 49.73 129.705 49.7572H129.705C129.78 49.7847 129.854 49.8109 129.93 49.8364C130.005 49.862 130.081 49.8865 130.157 49.9103C130.234 49.9341 130.31 49.9569 130.387 49.9787C130.464 50.0005 130.542 50.0215 130.619 50.0415C130.697 50.0616 130.775 50.0805 130.854 50.0987V50.0988C130.932 50.1168 131.011 50.1339 131.09 50.1502C131.17 50.1664 131.249 50.1818 131.329 50.1961C131.409 50.2103 131.489 50.2236 131.57 50.2359C131.65 50.2482 131.731 50.2594 131.813 50.2698C131.894 50.28 131.975 50.2896 132.057 50.2979C132.139 50.306 132.221 50.3135 132.303 50.3197H132.304C132.386 50.3259 132.469 50.3312 132.552 50.3354H132.552C132.635 50.3396 132.718 50.3429 132.801 50.345C132.885 50.3471 132.969 50.3481 133.053 50.3481ZM142.147 61.4352C142.363 61.3408 142.577 61.2433 142.789 61.1424L142.147 61.4352ZM155.771 48.8061V40.6117V39.4966L155.743 39.4919C155.735 39.3172 155.724 39.143 155.711 38.9694L155.708 38.9255C155.697 38.7679 155.683 38.6108 155.668 38.4542L155.66 38.3588C155.645 38.2062 155.627 38.0543 155.609 37.9025L155.598 37.8018C155.58 37.6546 155.559 37.5081 155.538 37.3617L155.522 37.2448C155.501 37.1038 155.478 36.9635 155.455 36.8235L155.433 36.6915C155.409 36.5562 155.384 36.4216 155.358 36.2871L155.33 36.1432C155.304 36.0128 155.277 35.883 155.248 35.7534L155.215 35.5983C155.186 35.4709 155.156 35.3443 155.125 35.2178C155.112 35.1656 155.1 35.1134 155.087 35.0614C155.056 34.9394 155.024 34.818 154.991 34.6966L154.944 34.5208C154.911 34.4043 154.878 34.2887 154.844 34.173L154.79 33.9937C154.756 33.8793 154.72 33.7655 154.683 33.6519L154.624 33.4706C154.586 33.3558 154.547 33.2414 154.507 33.1276L154.448 32.9579C154.408 32.8464 154.367 32.7354 154.325 32.6247L154.254 32.4362C154.213 32.3302 154.171 32.2247 154.129 32.1194L154.054 31.9357C154.009 31.8281 153.964 31.7207 153.918 31.6139L153.841 31.4379C153.793 31.3307 153.745 31.2239 153.696 31.1176L153.617 30.9483C153.567 30.8419 153.516 30.7357 153.465 30.63L153.379 30.4584C153.328 30.356 153.277 30.2539 153.224 30.1524C153.192 30.0914 153.16 30.0309 153.128 29.9703C153.076 29.8724 153.023 29.7748 152.97 29.6776C152.938 29.6198 152.906 29.5623 152.873 29.5047C152.817 29.4034 152.759 29.3023 152.701 29.2019C152.671 29.15 152.64 29.0985 152.609 29.047C152.548 28.9438 152.487 28.8412 152.424 28.7392C152.393 28.688 152.361 28.6374 152.329 28.5866C152.267 28.4872 152.204 28.388 152.141 28.2896C152.106 28.2358 152.071 28.1828 152.035 28.1294C151.972 28.0326 151.908 27.936 151.843 27.8401C151.808 27.789 151.772 27.7383 151.737 27.6875C151.67 27.5917 151.604 27.4959 151.536 27.4011C151.501 27.3523 151.465 27.3041 151.43 27.2556C151.36 27.1588 151.289 27.0621 151.217 26.9666C151.186 26.9244 151.153 26.883 151.121 26.8411C151.044 26.74 150.967 26.6389 150.888 26.5391C150.862 26.5063 150.835 26.4742 150.809 26.4415C150.724 26.3352 150.639 26.2292 150.552 26.1245C150.528 26.095 150.503 26.0662 150.478 26.0368C150.388 25.9288 150.297 25.8209 150.205 25.7145L150.174 25.6803C149.72 25.1603 149.244 24.661 148.745 24.1843L148.743 24.1826C148.644 24.0877 148.543 23.9944 148.442 23.9013L148.351 23.8172C148.258 23.7319 148.163 23.6483 148.068 23.5646C148.029 23.5303 147.99 23.4953 147.951 23.4612C147.865 23.3863 147.778 23.313 147.69 23.2393C147.64 23.1966 147.59 23.1536 147.539 23.1114C147.458 23.0438 147.375 22.9775 147.292 22.9111C147.235 22.8652 147.179 22.8189 147.121 22.7734C147.04 22.7094 146.958 22.6469 146.876 22.5841C146.816 22.5376 146.756 22.4907 146.695 22.4449C146.617 22.3864 146.538 22.3293 146.46 22.2718C146.392 22.2221 146.325 22.1721 146.256 22.1232C146.182 22.0698 146.106 22.0176 146.031 21.9651C145.96 21.9153 145.888 21.8654 145.816 21.8164C145.736 21.762 145.656 21.7086 145.575 21.6553C145.507 21.61 145.438 21.5644 145.369 21.5198C145.289 21.4679 145.208 21.417 145.127 21.366C145.056 21.3214 144.985 21.2763 144.913 21.2324C144.828 21.1804 144.743 21.1293 144.657 21.0783C144.59 21.0383 144.523 20.9983 144.455 20.9591C144.369 20.9087 144.281 20.8594 144.194 20.8101C144.121 20.7691 144.049 20.7283 143.975 20.6881C143.896 20.6442 143.815 20.601 143.735 20.558C143.655 20.5155 143.575 20.4732 143.495 20.4317C143.414 20.3894 143.332 20.348 143.25 20.3066C143.171 20.267 143.092 20.2277 143.013 20.1888C142.931 20.149 142.849 20.1097 142.767 20.0707C142.684 20.0312 142.6 19.992 142.516 19.9536C142.435 19.9165 142.354 19.88 142.273 19.8438C142.19 19.8068 142.106 19.7702 142.022 19.7342C141.939 19.6984 141.856 19.6631 141.772 19.6281C141.686 19.5923 141.6 19.5574 141.513 19.5226C141.432 19.49 141.35 19.4577 141.269 19.4259C141.181 19.392 141.094 19.3589 141.006 19.326C140.922 19.2945 140.837 19.2634 140.752 19.2327C140.666 19.2014 140.578 19.1709 140.491 19.1406C140.406 19.1113 140.322 19.0823 140.236 19.0538C140.146 19.0238 140.056 18.9946 139.965 18.9658C139.882 18.939 139.798 18.9124 139.714 18.8868C139.621 18.8584 139.528 18.8311 139.435 18.8039C139.352 18.7797 139.269 18.7552 139.185 18.7318C139.093 18.706 139 18.6812 138.907 18.6564C138.82 18.6334 138.734 18.6103 138.647 18.5883C138.556 18.5653 138.465 18.5435 138.374 18.5217C138.285 18.5001 138.195 18.4784 138.105 18.458C138.016 18.4376 137.925 18.4187 137.835 18.3994C137.744 18.3798 137.653 18.36 137.562 18.3416C137.468 18.3227 137.373 18.3051 137.279 18.2873C137.191 18.2708 137.104 18.2541 137.016 18.2385C136.919 18.2214 136.822 18.2062 136.724 18.1902C136.636 18.1758 136.548 18.161 136.46 18.1477C136.362 18.133 136.264 18.1203 136.166 18.1068C136.079 18.0947 135.991 18.0821 135.903 18.071C135.799 18.0579 135.694 18.0469 135.59 18.0352C135.507 18.026 135.425 18.016 135.342 18.0077C135.235 17.9969 135.127 17.9883 135.019 17.979C134.938 17.972 134.857 17.9643 134.775 17.958C134.65 17.9485 134.525 17.9415 134.4 17.9342C134.336 17.9304 134.272 17.9258 134.208 17.9224C134.08 17.9159 133.952 17.912 133.824 17.9077C133.759 17.9056 133.694 17.9023 133.628 17.9006C133.437 17.8953 133.245 17.8933 133.052 17.8933C120.505 17.8933 110.334 28.0646 110.334 40.6116C110.334 53.1586 120.505 63.3299 133.052 63.3299C136.286 63.3299 139.362 62.6532 142.146 61.4351C140.742 65.0916 137.188 67.7051 133.052 67.7051C130.692 67.7051 128.521 66.8535 126.831 65.4427L126.73 65.5187L116.373 73.3509C120.531 77.8546 126.477 80.6868 133.052 80.687C145.547 80.6868 155.771 70.4636 155.771 57.9684V48.8061H155.771Z" fill="#04020D"/>
</svg>
