<svg width="416" height="126" viewBox="0 0 416 126" fill="none" xmlns="http://www.w3.org/2000/svg">
<path fill-rule="evenodd" clip-rule="evenodd" d="M35.9334 47.5354C44.3202 47.5354 51.1192 54.3338 51.1192 62.7199C51.1192 71.106 44.3202 77.9044 35.9334 77.9044C27.5466 77.9044 20.7477 71.106 20.7477 62.7199C20.7477 54.3338 27.5466 47.5354 35.9334 47.5354ZM51.1192 0.21991L71.3668 3.51497V62.72C71.3668 82.2879 55.5028 98.1507 35.9334 98.1507C16.364 98.1507 0.5 82.2879 0.5 62.72C0.5 43.1522 16.3641 27.2894 35.9334 27.2894C41.3683 27.2894 46.5165 28.5144 51.1192 30.701V0.21991Z" fill="#04020D"/>
<path fill-rule="evenodd" clip-rule="evenodd" d="M304.137 23.9941L283.889 27.2892V98.1505H304.137V23.9941Z" fill="#04020D"/>
<path fill-rule="evenodd" clip-rule="evenodd" d="M380.067 27.2893C399.555 27.2893 415.5 43.2333 415.5 62.7203V98.1506H395.253V62.7202C395.253 54.3687 388.419 47.5354 380.067 47.5354C371.715 47.5354 364.881 54.3687 364.881 62.7202V98.1507H344.634V75.5003H344.633V27.2893H364.881V30.7311C369.49 28.5268 374.64 27.2893 380.067 27.2893Z" fill="#04020D"/>
<path fill-rule="evenodd" clip-rule="evenodd" d="M111.862 23.9941L132.11 27.2892V98.1505H111.862V23.9941Z" fill="#04020D"/>
<path fill-rule="evenodd" clip-rule="evenodd" d="M207.961 77.9046C208.092 77.9046 208.223 77.9031 208.353 77.8996C208.483 77.8964 208.613 77.8914 208.742 77.8847H208.742C208.872 77.8783 209.001 77.8699 209.129 77.8602H209.129C209.258 77.8503 209.386 77.8392 209.513 77.8262C209.641 77.8132 209.768 77.7984 209.895 77.7824C210.021 77.7662 210.148 77.7487 210.273 77.7296C210.399 77.7103 210.524 77.6896 210.649 77.6674C210.773 77.6452 210.898 77.6212 211.021 77.5959C211.145 77.5706 211.268 77.5441 211.39 77.5158V77.5155C211.513 77.4872 211.635 77.4576 211.756 77.4264C211.877 77.3952 211.998 77.3625 212.118 77.3284C212.238 77.2944 212.358 77.2585 212.476 77.2218C212.595 77.1847 212.714 77.1463 212.831 77.1065C212.949 77.0667 213.065 77.0256 213.182 76.983H213.182C213.298 76.9405 213.414 76.8966 213.529 76.8512H213.529C213.644 76.8059 213.758 76.7591 213.872 76.7112H213.872C213.985 76.663 214.098 76.6138 214.21 76.5631H214.21C214.322 76.5125 214.434 76.4603 214.544 76.4071H214.544C214.655 76.3536 214.765 76.2992 214.874 76.2432C214.983 76.1872 215.091 76.1303 215.199 76.0718H215.199C215.307 76.0135 215.414 75.9537 215.519 75.8928V75.8926C215.626 75.8317 215.73 75.7696 215.835 75.7062H215.835C216.043 75.5792 216.249 75.4476 216.451 75.3112C216.552 75.2429 216.652 75.1737 216.751 75.1031H216.752C216.851 75.0327 216.949 74.9607 217.047 74.8879C217.144 74.815 217.241 74.7411 217.336 74.666V74.6658C217.432 74.5907 217.526 74.5145 217.62 74.4372C217.714 74.3599 217.807 74.2814 217.899 74.2018C218.082 74.0427 218.262 73.8793 218.438 73.7116H218.438C218.526 73.6278 218.613 73.543 218.699 73.4572C218.784 73.3713 218.869 73.2845 218.953 73.1966V73.1964C219.121 73.0209 219.284 72.8409 219.443 72.6573C219.523 72.5654 219.601 72.4726 219.679 72.3789C219.756 72.2852 219.832 72.1904 219.907 72.0949H219.908C219.983 71.9993 220.056 71.9028 220.129 71.8053C220.202 71.7079 220.274 71.6096 220.345 71.5103V71.5101C220.415 71.4111 220.484 71.3109 220.553 71.2099C220.689 71.0081 220.821 70.8027 220.948 70.594V70.5938C221.011 70.4895 221.073 70.3844 221.134 70.2783H221.134C221.195 70.1724 221.255 70.0655 221.313 69.958V69.9578C221.372 69.8503 221.429 69.742 221.485 69.6328C221.541 69.5239 221.595 69.4138 221.649 69.3033V69.3031C221.702 69.1926 221.754 69.0814 221.805 68.9692V68.969C221.855 68.8568 221.905 68.7443 221.953 68.6307V68.6304C222.001 68.5169 222.048 68.4029 222.093 68.2879V68.2877C222.138 68.1727 222.182 68.0573 222.225 67.9411V67.9409C222.267 67.8246 222.308 67.7079 222.348 67.5902C222.388 67.4726 222.426 67.3544 222.463 67.2355C222.501 67.1165 222.536 66.997 222.57 66.877C222.604 66.7569 222.637 66.6363 222.668 66.515C222.7 66.3937 222.729 66.2718 222.757 66.1494H222.757C222.786 66.0269 222.812 65.9039 222.838 65.7804C222.863 65.6569 222.887 65.5327 222.909 65.408C222.931 65.2835 222.952 65.1583 222.971 65.0326C222.99 64.9071 223.008 64.7808 223.024 64.6541C223.04 64.5274 223.055 64.4003 223.068 64.2727C223.081 64.1452 223.092 64.017 223.102 63.8886V63.8884C223.112 63.7598 223.12 63.6311 223.126 63.5017V63.5015C223.133 63.3719 223.138 63.2425 223.141 63.1122C223.145 62.9818 223.146 62.8513 223.146 62.7202C223.146 62.5892 223.145 62.4584 223.141 62.3282C223.138 62.1981 223.133 62.0683 223.126 61.9389V61.9386C223.12 61.8093 223.112 61.6803 223.102 61.5519V61.5518C223.092 61.4232 223.081 61.2953 223.068 61.1677C223.055 61.0402 223.04 60.913 223.024 60.7863C223.008 60.6597 222.99 60.5334 222.971 60.4077C222.952 60.2821 222.931 60.1571 222.909 60.0323C222.887 59.9076 222.863 59.7835 222.838 59.66C222.812 59.5365 222.786 59.4134 222.757 59.2909H222.757C222.729 59.1684 222.699 59.0465 222.668 58.9252C222.637 58.804 222.604 58.6832 222.57 58.5632C222.536 58.4432 222.5 58.3235 222.463 58.2047C222.426 58.0858 222.388 57.9676 222.348 57.85C222.308 57.7323 222.267 57.6158 222.225 57.4993V57.4992C222.182 57.383 222.138 57.2676 222.093 57.1526V57.1524C222.048 57.0374 222.001 56.9234 221.953 56.8098V56.8096C221.905 56.6961 221.855 56.5835 221.805 56.4713V56.4711C221.754 56.3589 221.702 56.2478 221.649 56.1372V56.137C221.595 56.0265 221.541 55.9165 221.485 55.8074C221.429 55.6983 221.372 55.5902 221.313 55.4825V55.4822C221.255 55.3748 221.195 55.2678 221.134 55.1619H221.134C221.073 55.0558 221.011 54.951 220.948 54.8465V54.8462C220.821 54.6379 220.689 54.4322 220.553 54.2304C220.484 54.1293 220.415 54.0292 220.345 53.9301V53.9299C220.274 53.8308 220.202 53.7323 220.129 53.635C220.056 53.5376 219.983 53.441 219.908 53.3455H219.907C219.832 53.2499 219.756 53.1552 219.679 53.0614C219.601 52.9676 219.523 52.8749 219.443 52.783C219.284 52.5994 219.121 52.4196 218.953 52.2438V52.2437C218.869 52.1557 218.784 52.0689 218.699 51.9831C218.613 51.8973 218.526 51.8124 218.438 51.7287H218.438C218.262 51.561 218.082 51.3976 217.899 51.2385C217.807 51.1589 217.714 51.0803 217.62 51.003C217.526 50.9256 217.432 50.8495 217.336 50.7744V50.7742C217.241 50.6991 217.144 50.6252 217.047 50.5523C216.949 50.4796 216.851 50.4076 216.752 50.3371H216.751C216.652 50.2665 216.552 50.1972 216.451 50.129C216.249 49.9927 216.044 49.8607 215.835 49.7339H215.835C215.731 49.6706 215.626 49.6085 215.519 49.5475V49.5473C215.414 49.4864 215.307 49.4267 215.199 49.3684H215.199C215.091 49.3098 214.983 49.2527 214.874 49.1969C214.765 49.141 214.655 49.0863 214.544 49.0331H214.544C214.434 48.9795 214.322 48.9276 214.21 48.877H214.21C214.098 48.8264 213.985 48.777 213.872 48.729H213.872C213.758 48.6808 213.644 48.6343 213.529 48.5889H213.529C213.414 48.5435 213.298 48.4997 213.182 48.4571H213.182C213.065 48.4144 212.949 48.3735 212.831 48.3336C212.714 48.2937 212.595 48.2554 212.476 48.2183C212.357 48.1813 212.238 48.1457 212.118 48.1117C211.998 48.0776 211.877 48.0449 211.756 48.0137C211.635 47.9823 211.513 47.953 211.39 47.9246V47.9244C211.268 47.8963 211.145 47.8696 211.021 47.8442C210.898 47.8189 210.773 47.795 210.649 47.7727C210.524 47.7505 210.399 47.7298 210.273 47.7105C210.148 47.6913 210.022 47.6739 209.895 47.6578C209.768 47.6417 209.641 47.627 209.513 47.614C209.386 47.6012 209.258 47.5897 209.129 47.58H209.129C209 47.5702 208.872 47.562 208.742 47.5555H208.742C208.613 47.5489 208.483 47.5438 208.353 47.5405C208.222 47.5372 208.092 47.5356 207.961 47.5356C207.83 47.5356 207.699 47.5371 207.569 47.5405C207.439 47.5438 207.309 47.5488 207.179 47.5555H207.179C207.05 47.562 206.921 47.5702 206.793 47.58H206.792C206.664 47.5899 206.536 47.601 206.408 47.614C206.281 47.627 206.154 47.6417 206.027 47.6578C205.9 47.6739 205.774 47.6913 205.648 47.7105C205.523 47.7298 205.398 47.7505 205.273 47.7727C205.148 47.795 205.024 47.8189 204.9 47.8442C204.777 47.8695 204.654 47.8961 204.531 47.9244V47.9246C204.409 47.9529 204.287 47.9825 204.166 48.0137C204.044 48.0449 203.924 48.0776 203.804 48.1117C203.684 48.1457 203.564 48.1813 203.445 48.2183C203.326 48.2554 203.208 48.2938 203.09 48.3336C202.973 48.3735 202.856 48.4146 202.74 48.4571H202.739C202.623 48.4997 202.508 48.5435 202.393 48.5889H202.393C202.278 48.6343 202.164 48.681 202.05 48.729H202.05C201.936 48.7772 201.824 48.8264 201.712 48.877H201.711C201.599 48.9276 201.488 48.9799 201.377 49.0331H201.377C201.267 49.0865 201.157 49.141 201.048 49.1969C200.938 49.2529 200.83 49.3098 200.723 49.3684H200.722C200.615 49.4267 200.508 49.4864 200.402 49.5473V49.5475C200.296 49.6085 200.191 49.6706 200.087 49.7339H200.086C199.878 49.8609 199.672 49.9925 199.47 50.129C199.369 50.1972 199.269 50.2665 199.17 50.3371H199.17C199.071 50.4075 198.972 50.4795 198.875 50.5523C198.778 50.6252 198.681 50.6991 198.585 50.7742V50.7744C198.49 50.8495 198.395 50.9256 198.301 51.003C198.208 51.0803 198.115 51.1589 198.023 51.2385C197.839 51.3976 197.659 51.561 197.484 51.7287H197.484C197.396 51.8124 197.309 51.8973 197.223 51.9831C197.137 52.0689 197.052 52.1558 196.968 52.2437V52.2438C196.801 52.4193 196.637 52.5993 196.478 52.783C196.399 52.8749 196.32 52.9677 196.243 53.0614C196.165 53.1551 196.089 53.2499 196.014 53.3455H196.014C195.939 53.441 195.865 53.5376 195.792 53.635C195.719 53.7323 195.647 53.8308 195.577 53.9299V53.9301C195.506 54.0292 195.437 54.1293 195.369 54.2304C195.233 54.4322 195.1 54.6375 194.974 54.8462V54.8465C194.91 54.9507 194.848 55.0558 194.787 55.1619H194.787C194.726 55.2678 194.666 55.3747 194.608 55.4822V55.4825C194.55 55.5899 194.492 55.6983 194.437 55.8074C194.381 55.9164 194.326 56.0265 194.273 56.137V56.1372C194.219 56.2477 194.167 56.3589 194.117 56.4711V56.4713C194.066 56.5834 194.017 56.696 193.969 56.8096V56.8098C193.92 56.9234 193.874 57.0374 193.828 57.1524V57.1526C193.783 57.2676 193.739 57.383 193.697 57.4992V57.4993C193.654 57.6158 193.613 57.7324 193.573 57.85C193.533 57.9676 193.495 58.0858 193.458 58.2047C193.421 58.3238 193.385 58.4432 193.351 58.5632C193.317 58.6832 193.284 58.8039 193.253 58.9252C193.222 59.0465 193.192 59.1684 193.164 59.2909H193.164C193.136 59.4134 193.109 59.5365 193.084 59.66C193.058 59.7834 193.035 59.9075 193.012 60.0323C192.99 60.1567 192.969 60.2819 192.95 60.4077C192.931 60.5332 192.913 60.6596 192.897 60.7863C192.881 60.913 192.866 61.0402 192.854 61.1677C192.841 61.2953 192.829 61.4235 192.819 61.5518V61.5519C192.81 61.6805 192.801 61.8092 192.795 61.9386V61.9389C192.788 62.0684 192.783 62.1978 192.78 62.3282C192.777 62.4587 192.775 62.5892 192.775 62.7202C192.775 62.8513 192.777 62.982 192.78 63.1122C192.783 63.2425 192.788 63.3719 192.795 63.5015V63.5017C192.801 63.631 192.81 63.76 192.819 63.8884V63.8886C192.829 64.0172 192.841 64.1452 192.854 64.2727C192.866 64.4003 192.881 64.5274 192.897 64.6541C192.913 64.7806 192.931 64.907 192.95 65.0326C192.969 65.1582 192.99 65.2833 193.012 65.408C193.035 65.5327 193.058 65.6569 193.084 65.7804C193.109 65.9039 193.136 66.027 193.164 66.1494H193.164C193.192 66.2719 193.222 66.3937 193.253 66.515C193.284 66.6363 193.317 66.7569 193.351 66.877C193.385 66.997 193.421 67.1167 193.458 67.2355C193.495 67.3543 193.533 67.4726 193.573 67.5902C193.613 67.7079 193.654 67.8245 193.697 67.9409V67.9411C193.739 68.0573 193.783 68.1727 193.828 68.2877V68.2879C193.874 68.4029 193.921 68.5169 193.969 68.6304V68.6307C194.017 68.7443 194.066 68.8568 194.117 68.969V68.9692C194.167 69.0814 194.219 69.1926 194.273 69.3031V69.3033C194.326 69.4138 194.381 69.5238 194.437 69.6328C194.493 69.742 194.55 69.8502 194.608 69.9578V69.958C194.666 70.0655 194.726 70.1724 194.787 70.2783H194.787C194.848 70.3844 194.91 70.4894 194.974 70.5938V70.594C195.101 70.8023 195.232 71.0081 195.369 71.2099C195.437 71.3109 195.506 71.4112 195.577 71.5101V71.5103C195.647 71.6096 195.719 71.7079 195.792 71.8053C195.865 71.9027 195.939 71.9993 196.014 72.0949H196.014C196.089 72.1904 196.165 72.2852 196.243 72.3789C196.32 72.4726 196.399 72.5654 196.478 72.6573C196.637 72.8409 196.801 73.0207 196.968 73.1964V73.1966C197.052 73.2845 197.137 73.3714 197.223 73.4572C197.309 73.543 197.396 73.6278 197.484 73.7116H197.484C197.659 73.8793 197.839 74.0427 198.023 74.2018C198.115 74.2814 198.208 74.3599 198.301 74.4372C198.395 74.5145 198.49 74.5907 198.585 74.6658V74.666C198.681 74.7411 198.778 74.815 198.875 74.8879C198.972 74.9606 199.071 75.0327 199.17 75.1031H199.17C199.269 75.1737 199.369 75.2429 199.47 75.3112C199.672 75.4474 199.878 75.5794 200.086 75.7062H200.087C200.191 75.7696 200.296 75.8317 200.402 75.8926V75.8928C200.508 75.9537 200.615 76.0135 200.722 76.0718H200.723C200.83 76.1303 200.938 76.1874 201.048 76.2432C201.156 76.2992 201.267 76.3538 201.377 76.4071H201.377C201.488 76.4606 201.599 76.5126 201.711 76.5631H201.712C201.824 76.6138 201.936 76.6632 202.05 76.7112H202.05C202.164 76.7593 202.278 76.8059 202.393 76.8512H202.393C202.508 76.8966 202.623 76.9405 202.739 76.983H202.74C202.856 77.0258 202.973 77.0667 203.09 77.1065C203.208 77.1464 203.326 77.1847 203.445 77.2218C203.564 77.2589 203.684 77.2944 203.804 77.3284C203.924 77.3625 204.044 77.3952 204.166 77.4264C204.287 77.4578 204.409 77.4872 204.531 77.5155V77.5158C204.654 77.5438 204.777 77.5705 204.9 77.5959C205.024 77.6212 205.148 77.6452 205.273 77.6674C205.397 77.6896 205.523 77.7103 205.648 77.7296C205.774 77.7487 205.9 77.7662 206.027 77.7824C206.154 77.7984 206.281 77.8132 206.408 77.8262C206.536 77.8389 206.664 77.8505 206.792 77.8602H206.793C206.921 77.8699 207.05 77.8782 207.179 77.8847H207.179C207.309 77.8912 207.438 77.8964 207.569 77.8996C207.699 77.903 207.83 77.9046 207.961 77.9046ZM222.145 95.1956C222.482 95.0483 222.815 94.8963 223.147 94.7389L222.145 95.1956ZM243.394 75.4996V62.72V60.9809L243.351 60.9736C243.338 60.701 243.32 60.4294 243.301 60.1587L243.297 60.0903C243.279 59.8445 243.257 59.5995 243.234 59.3551L243.221 59.2065C243.197 58.9684 243.17 58.7316 243.142 58.4949L243.124 58.3377C243.096 58.1082 243.064 57.8797 243.032 57.6514L243.006 57.469C242.974 57.2492 242.938 57.0304 242.901 56.812L242.867 56.6062C242.83 56.3952 242.79 56.1853 242.75 55.9755L242.707 55.751C242.667 55.5478 242.623 55.3453 242.579 55.1432L242.527 54.9012C242.482 54.7026 242.435 54.5052 242.386 54.3078C242.367 54.2264 242.347 54.145 242.327 54.0639C242.279 53.8736 242.229 53.6843 242.178 53.495L242.104 53.2209C242.054 53.0392 242.001 52.8588 241.948 52.6785L241.865 52.3988C241.811 52.2204 241.755 52.0429 241.698 51.8658L241.606 51.5829C241.547 51.4039 241.486 51.2256 241.424 51.048L241.33 50.7834C241.268 50.6095 241.204 50.4364 241.14 50.2637L241.028 49.9697C240.964 49.8045 240.899 49.6399 240.833 49.4757L240.716 49.1892C240.646 49.0214 240.576 48.8539 240.504 48.6874L240.384 48.4128C240.31 48.2456 240.235 48.0791 240.159 47.9133L240.035 47.6494C239.957 47.4833 239.878 47.3177 239.797 47.1529L239.664 46.8852C239.584 46.7255 239.504 46.5663 239.422 46.408C239.372 46.3129 239.322 46.2185 239.271 46.124C239.19 45.9713 239.109 45.8191 239.026 45.6676C238.976 45.5773 238.925 45.4878 238.875 45.3979C238.786 45.24 238.697 45.0822 238.606 44.9257C238.559 44.8448 238.511 44.7643 238.463 44.684C238.368 44.5232 238.272 44.3631 238.174 44.204C238.125 44.1242 238.075 44.0452 238.026 43.9661C237.929 43.811 237.832 43.6564 237.732 43.5029C237.678 43.419 237.623 43.3362 237.568 43.253C237.469 43.102 237.369 42.9514 237.267 42.8019C237.213 42.7222 237.157 42.6431 237.102 42.5639C236.999 42.4144 236.895 42.265 236.789 42.1172C236.735 42.0411 236.679 41.966 236.624 41.8902C236.514 41.7394 236.404 41.5885 236.292 41.4396C236.243 41.3737 236.192 41.3092 236.142 41.2438C236.022 41.0861 235.901 40.9286 235.778 40.7729C235.738 40.7216 235.696 40.6717 235.655 40.6206C235.523 40.4548 235.39 40.2895 235.255 40.1262C235.217 40.0802 235.178 40.0353 235.139 39.9896C234.998 39.821 234.857 39.6528 234.712 39.4868L234.665 39.4335C233.957 38.6225 233.214 37.8438 232.436 37.1004L232.433 37.0978C232.278 36.9498 232.121 36.8042 231.963 36.6591L231.822 36.5279C231.676 36.3948 231.528 36.2644 231.38 36.1339C231.319 36.0804 231.259 36.0258 231.198 35.9727C231.064 35.8559 230.927 35.7415 230.791 35.6265C230.712 35.5601 230.635 35.4929 230.555 35.4271C230.428 35.3216 230.299 35.2183 230.17 35.1147C230.081 35.0432 229.993 34.9709 229.903 34.9C229.777 34.8003 229.649 34.7027 229.521 34.6047C229.427 34.5322 229.334 34.4591 229.238 34.3876C229.117 34.2965 228.995 34.2074 228.872 34.1177C228.766 34.0401 228.661 33.9622 228.554 33.8859C228.438 33.8027 228.321 33.7213 228.203 33.6395C228.092 33.5618 227.981 33.484 227.868 33.4074C227.744 33.3226 227.618 33.2394 227.492 33.1562C227.385 33.0856 227.279 33.0145 227.171 32.945C227.046 32.864 226.919 32.7847 226.793 32.7051C226.682 32.6355 226.571 32.5651 226.459 32.4967C226.327 32.4156 226.194 32.336 226.06 32.2564C225.955 32.194 225.851 32.1316 225.745 32.0705C225.61 31.9919 225.474 31.915 225.338 31.8381C225.225 31.7741 225.111 31.7105 224.997 31.6478C224.873 31.5794 224.747 31.512 224.622 31.4449C224.498 31.3787 224.373 31.3127 224.248 31.248C224.121 31.182 223.993 31.1174 223.865 31.0528C223.742 30.9911 223.619 30.9298 223.496 30.8692C223.368 30.8071 223.24 30.7457 223.112 30.685C222.982 30.6234 222.852 30.5623 222.721 30.5023C222.595 30.4445 222.469 30.3875 222.342 30.331C222.212 30.2734 222.082 30.2162 221.951 30.1601C221.821 30.1043 221.691 30.0492 221.56 29.9948C221.426 29.9389 221.291 29.8844 221.156 29.8302C221.03 29.7793 220.903 29.7289 220.775 29.6793C220.639 29.6265 220.503 29.5748 220.366 29.5236C220.234 29.4744 220.102 29.4259 219.97 29.378C219.835 29.3292 219.698 29.2816 219.562 29.2345C219.43 29.1888 219.298 29.1434 219.165 29.099C219.025 29.0522 218.884 29.0067 218.742 28.9618C218.612 28.9201 218.481 28.8785 218.35 28.8385C218.206 28.7944 218.061 28.7518 217.916 28.7093C217.786 28.6715 217.656 28.6334 217.526 28.5969C217.382 28.5566 217.237 28.518 217.092 28.4793C216.957 28.4433 216.822 28.4074 216.686 28.373C216.545 28.3372 216.403 28.3032 216.261 28.2692C216.121 28.2355 215.981 28.2017 215.841 28.1699C215.702 28.1381 215.561 28.1086 215.42 28.0784C215.278 28.0478 215.136 28.017 214.994 27.9884C214.847 27.9588 214.7 27.9315 214.552 27.9037C214.416 27.878 214.279 27.8519 214.142 27.8275C213.991 27.8008 213.839 27.7771 213.687 27.7523C213.55 27.7298 213.413 27.7067 213.275 27.6859C213.123 27.663 212.97 27.6431 212.817 27.6221C212.681 27.6032 212.544 27.5836 212.407 27.5664C212.245 27.5459 212.081 27.5287 211.918 27.5105C211.789 27.4961 211.661 27.4805 211.531 27.4675C211.364 27.4508 211.196 27.4374 211.028 27.4228C210.901 27.4119 210.774 27.3998 210.647 27.3901C210.453 27.3753 210.257 27.3644 210.062 27.353C209.962 27.3471 209.863 27.3399 209.763 27.3345C209.564 27.3245 209.364 27.3183 209.164 27.3117C209.062 27.3083 208.961 27.3032 208.859 27.3005C208.56 27.2923 208.261 27.2892 207.96 27.2892C188.391 27.2892 172.527 43.152 172.527 62.7198C172.527 82.2877 188.391 98.1505 207.96 98.1505C213.004 98.1505 217.801 97.0951 222.144 95.1954C219.954 100.898 214.41 104.974 207.96 104.974C204.279 104.974 200.893 103.646 198.256 101.446L198.1 101.564L181.946 113.779C188.431 120.803 197.704 125.22 207.96 125.22C227.449 125.22 243.394 109.276 243.394 89.7889V75.4996H243.394Z" fill="#04020D"/>
</svg>
