<svg width="166" height="50" viewBox="0 0 166 50" fill="none" xmlns="http://www.w3.org/2000/svg">
<path fill-rule="evenodd" clip-rule="evenodd" d="M14.1722 18.9262C17.5267 18.9262 20.2461 21.6456 20.2461 25C20.2461 28.3545 17.5267 31.0738 14.1722 31.0738C10.8178 31.0738 8.09843 28.3545 8.09843 25C8.09843 21.6456 10.8178 18.9262 14.1722 18.9262ZM20.2461 0L28.3445 1.31802V25C28.3445 32.8272 21.9994 39.1723 14.1722 39.1723C6.34509 39.1723 0 32.8272 0 25C0 17.1729 6.34512 10.8278 14.1722 10.8278C16.346 10.8278 18.4051 11.3178 20.2461 12.1924V0Z" fill="#04020D"/>
<path fill-rule="evenodd" clip-rule="evenodd" d="M121.445 9.5097L113.347 10.8277V39.1723H121.445V9.5097Z" fill="#04020D"/>
<path fill-rule="evenodd" clip-rule="evenodd" d="M151.815 10.8278C159.61 10.8278 165.987 17.2054 165.987 25.0002V39.1723H157.889V25.0001C157.889 21.6595 155.155 18.9262 151.815 18.9262C148.474 18.9262 145.741 21.6595 145.741 25.0001V39.1723H137.643V30.1122H137.643V10.8278H145.741V12.2045C147.584 11.3228 149.644 10.8278 151.815 10.8278Z" fill="#04020D"/>
<path fill-rule="evenodd" clip-rule="evenodd" d="M44.5415 9.5097L52.6399 10.8277V39.1723H44.5415V9.5097Z" fill="#04020D"/>
<path fill-rule="evenodd" clip-rule="evenodd" d="M82.9776 31.0739C83.03 31.0739 83.0823 31.0733 83.1344 31.0719C83.1865 31.0706 83.2383 31.0686 83.2901 31.0659H83.2902C83.3419 31.0633 83.3935 31.06 83.4449 31.0561H83.445C83.4964 31.0521 83.5476 31.0477 83.5986 31.0425C83.6496 31.0373 83.7005 31.0314 83.7512 31.025C83.8018 31.0185 83.8523 31.0115 83.9026 31.0038C83.9528 30.9961 84.0028 30.9879 84.0527 30.979C84.1026 30.9701 84.1523 30.9605 84.2017 30.9504C84.251 30.9403 84.3003 30.9297 84.3493 30.9183V30.9182C84.3983 30.9069 84.447 30.8951 84.4956 30.8826C84.5441 30.8701 84.5923 30.857 84.6403 30.8434C84.6883 30.8298 84.7362 30.8154 84.7837 30.8007C84.8313 30.7859 84.8786 30.7705 84.9256 30.7546C84.9727 30.7387 85.0193 30.7223 85.0659 30.7052H85.066C85.1124 30.6882 85.1586 30.6707 85.2046 30.6525H85.2047C85.2507 30.6344 85.2963 30.6157 85.3417 30.5965H85.3418C85.3872 30.5772 85.4323 30.5576 85.4771 30.5373H85.4772C85.5221 30.517 85.5666 30.4961 85.6108 30.4749H85.6108C85.6551 30.4535 85.6991 30.4317 85.7427 30.4093C85.7863 30.3869 85.8296 30.3641 85.8727 30.3407H85.8727C85.9158 30.3174 85.9585 30.2935 86.0009 30.2692V30.2691C86.0433 30.2447 86.0852 30.2198 86.127 30.1945H86.1271C86.2105 30.1437 86.2928 30.0911 86.3735 30.0365C86.4139 30.0092 86.454 29.9815 86.4936 29.9533H86.4937C86.5334 29.9251 86.5727 29.8963 86.6116 29.8672C86.6506 29.838 86.6892 29.8085 86.7275 29.7784V29.7783C86.7657 29.7483 86.8036 29.7178 86.8411 29.6869C86.8786 29.656 86.9157 29.6246 86.9524 29.5927C87.0259 29.5291 87.0978 29.4638 87.1681 29.3967H87.1682C87.2033 29.3632 87.2381 29.3292 87.2724 29.2949C87.3067 29.2606 87.3407 29.2258 87.3742 29.1907V29.1906C87.4412 29.1204 87.5066 29.0484 87.5702 28.975C87.6021 28.9382 87.6335 28.9011 87.6644 28.8636C87.6954 28.8261 87.7258 28.7882 87.7558 28.75H87.7559C87.786 28.7117 87.8155 28.6731 87.8447 28.6341C87.8738 28.5952 87.9026 28.5558 87.9308 28.5162V28.5161C87.959 28.4765 87.9867 28.4364 88.014 28.396C88.0685 28.3152 88.1213 28.2331 88.172 28.1496V28.1495C88.1974 28.1078 88.2222 28.0658 88.2466 28.0234H88.2467C88.271 27.981 88.2949 27.9382 88.3183 27.8952V27.8951C88.3416 27.8521 88.3645 27.8088 88.3869 27.7652C88.4092 27.7216 88.431 27.6775 88.4524 27.6333V27.6333C88.4738 27.589 88.4946 27.5446 88.5148 27.4997V27.4996C88.535 27.4548 88.5548 27.4098 88.574 27.3643V27.3642C88.5933 27.3188 88.6119 27.2732 88.63 27.2272V27.2271C88.6482 27.1811 88.6658 27.1349 88.6828 27.0885V27.0884C88.6998 27.0419 88.7162 26.9952 88.7322 26.9481C88.7481 26.9011 88.7634 26.8538 88.7782 26.8062C88.7931 26.7586 88.8073 26.7108 88.8209 26.6628C88.8345 26.6148 88.8476 26.5665 88.8601 26.518C88.8726 26.4695 88.8844 26.4207 88.8957 26.3718H88.8958C88.9071 26.3228 88.9178 26.2736 88.9279 26.2242C88.938 26.1748 88.9475 26.1251 88.9565 26.0752C88.9654 26.0254 88.9736 25.9754 88.9813 25.9251C88.989 25.8749 88.996 25.8244 89.0025 25.7737C89.0089 25.723 89.0148 25.6721 89.02 25.6211C89.0251 25.5701 89.0297 25.5188 89.0336 25.4675V25.4674C89.0375 25.4159 89.0408 25.3645 89.0434 25.3127V25.3126C89.046 25.2608 89.0481 25.209 89.0494 25.1569C89.0507 25.1047 89.0513 25.0525 89.0513 25.0001C89.0513 24.9477 89.0507 24.8954 89.0494 24.8433C89.0481 24.7912 89.0461 24.7393 89.0434 24.6876V24.6875C89.0408 24.6358 89.0375 24.5841 89.0336 24.5328V24.5327C89.0296 24.4813 89.0251 24.4301 89.02 24.3791C89.0148 24.3281 89.0089 24.2772 89.0025 24.2265C88.996 24.1759 88.989 24.1254 88.9813 24.0751C88.9736 24.0249 88.9654 23.9748 88.9565 23.9249C88.9475 23.8751 88.938 23.8254 88.9279 23.776C88.9178 23.7266 88.9072 23.6774 88.8958 23.6284H88.8957C88.8844 23.5794 88.8726 23.5306 88.8601 23.4821C88.8476 23.4336 88.8345 23.3853 88.8209 23.3373C88.8073 23.2893 88.793 23.2414 88.7782 23.1939C88.7634 23.1464 88.748 23.0991 88.7322 23.052C88.7162 23.0049 88.6998 22.9583 88.6828 22.9118V22.9117C88.6658 22.8652 88.6482 22.8191 88.63 22.773V22.773C88.6119 22.727 88.5932 22.6814 88.574 22.636V22.6359C88.5547 22.5905 88.535 22.5454 88.5148 22.5005V22.5005C88.4945 22.4556 88.4736 22.4111 88.4524 22.3669V22.3668C88.431 22.3226 88.4092 22.2786 88.3869 22.235C88.3644 22.1913 88.3417 22.1481 88.3183 22.105V22.1049C88.2949 22.0619 88.271 22.0192 88.2467 21.9768H88.2466C88.2222 21.9344 88.1974 21.8924 88.172 21.8506V21.8505C88.1212 21.7672 88.0686 21.6849 88.014 21.6042C87.9867 21.5638 87.959 21.5237 87.9308 21.4841V21.484C87.9026 21.4443 87.8738 21.405 87.8447 21.366C87.8155 21.327 87.786 21.2884 87.7559 21.2502H87.7558C87.7258 21.212 87.6954 21.1741 87.6644 21.1366C87.6335 21.0991 87.6021 21.062 87.5702 21.0252C87.5066 20.9518 87.4412 20.8799 87.3742 20.8096V20.8095C87.3407 20.7743 87.3067 20.7396 87.2724 20.7053C87.2381 20.6709 87.2033 20.637 87.1682 20.6035H87.1681C87.0979 20.5364 87.0259 20.4711 86.9524 20.4074C86.9157 20.3756 86.8786 20.3442 86.8411 20.3132C86.8036 20.2823 86.7657 20.2518 86.7275 20.2218V20.2217C86.6892 20.1917 86.6506 20.1621 86.6116 20.1329C86.5727 20.1039 86.5334 20.0751 86.4937 20.0469H86.4936C86.454 20.0186 86.4139 19.9909 86.3735 19.9636C86.2928 19.9091 86.2106 19.8563 86.1271 19.8056H86.127C86.0853 19.7803 86.0433 19.7554 86.0009 19.731V19.7309C85.9585 19.7066 85.9158 19.6827 85.8727 19.6594H85.8727C85.8297 19.636 85.7863 19.6131 85.7427 19.5908C85.6991 19.5684 85.6551 19.5466 85.6108 19.5252H85.6108C85.5666 19.5038 85.5221 19.483 85.4772 19.4628H85.4771C85.4323 19.4426 85.3872 19.4228 85.3418 19.4036H85.3417C85.2963 19.3843 85.2507 19.3657 85.2047 19.3476H85.2046C85.1586 19.3294 85.1124 19.3119 85.066 19.2949H85.0659C85.0193 19.2778 84.9727 19.2614 84.9256 19.2455C84.8786 19.2295 84.8313 19.2142 84.7837 19.1994C84.7361 19.1846 84.6883 19.1703 84.6403 19.1567C84.5923 19.1431 84.5441 19.13 84.4956 19.1175C84.447 19.105 84.3983 19.0932 84.3493 19.0819V19.0818C84.3003 19.0705 84.251 19.0599 84.2017 19.0497C84.1523 19.0396 84.1026 19.03 84.0527 19.0211C84.0029 19.0122 83.9529 19.0039 83.9026 18.9962C83.8524 18.9885 83.8019 18.9816 83.7512 18.9751C83.7005 18.9687 83.6496 18.9628 83.5986 18.9576C83.5476 18.9525 83.4963 18.9479 83.445 18.944H83.4449C83.3935 18.9401 83.342 18.9368 83.2902 18.9342H83.2901C83.2383 18.9316 83.1865 18.9295 83.1344 18.9282C83.0822 18.9269 83.03 18.9263 82.9776 18.9263C82.9252 18.9263 82.8729 18.9269 82.8208 18.9282C82.7688 18.9295 82.7168 18.9315 82.6651 18.9342H82.6651C82.6133 18.9368 82.5617 18.9401 82.5104 18.944H82.5103C82.4589 18.948 82.4077 18.9524 82.3567 18.9576C82.3056 18.9628 82.2548 18.9687 82.2041 18.9751C82.1535 18.9816 82.103 18.9885 82.0527 18.9962C82.0025 19.0039 81.9524 19.0122 81.9026 19.0211C81.8526 19.03 81.803 19.0396 81.7536 19.0497C81.7042 19.0598 81.655 19.0704 81.606 19.0818V19.0819C81.557 19.0932 81.5082 19.105 81.4597 19.1175C81.4112 19.13 81.3629 19.1431 81.3149 19.1567C81.2669 19.1703 81.219 19.1846 81.1715 19.1994C81.1239 19.2142 81.0766 19.2296 81.0296 19.2455C80.9825 19.2614 80.9359 19.2779 80.8893 19.2949H80.8893C80.8428 19.3119 80.7966 19.3294 80.7506 19.3476H80.7506C80.7046 19.3657 80.6589 19.3844 80.6135 19.4036H80.6134C80.568 19.4229 80.523 19.4426 80.4781 19.4628H80.478C80.4331 19.4831 80.3887 19.504 80.3445 19.5252H80.3444C80.3002 19.5466 80.2562 19.5684 80.2126 19.5908C80.1689 19.6132 80.1257 19.636 80.0826 19.6594H80.0825C80.0395 19.6827 79.9967 19.7066 79.9544 19.7309V19.731C79.9119 19.7554 79.87 19.7803 79.8282 19.8056H79.8281C79.7448 19.8564 79.6625 19.909 79.5818 19.9636C79.5414 19.9909 79.5013 20.0186 79.4617 20.0469H79.4616C79.4219 20.075 79.3825 20.1038 79.3436 20.1329C79.3046 20.1621 79.266 20.1917 79.2278 20.2217V20.2218C79.1895 20.2518 79.1516 20.2823 79.1142 20.3132C79.0767 20.3442 79.0396 20.3756 79.0028 20.4074C78.9293 20.4711 78.8574 20.5364 78.7871 20.6035H78.7871C78.7519 20.637 78.7172 20.6709 78.6828 20.7053C78.6485 20.7396 78.6146 20.7744 78.5811 20.8095V20.8096C78.514 20.8798 78.4486 20.9518 78.385 21.0252C78.3532 21.062 78.3218 21.0991 78.2908 21.1366C78.2599 21.1741 78.2294 21.212 78.1994 21.2502H78.1993C78.1693 21.2884 78.1397 21.327 78.1105 21.366C78.0815 21.405 78.0527 21.4443 78.0245 21.484V21.4841C77.9962 21.5237 77.9685 21.5638 77.9412 21.6042C77.8867 21.6849 77.8339 21.767 77.7832 21.8505V21.8506C77.7579 21.8923 77.733 21.9344 77.7086 21.9768H77.7086C77.6842 22.0192 77.6603 22.0619 77.637 22.1049V22.105C77.6136 22.148 77.5907 22.1913 77.5684 22.235C77.546 22.2786 77.5242 22.3226 77.5029 22.3668V22.3669C77.4815 22.4111 77.4606 22.4556 77.4404 22.5005V22.5005C77.4202 22.5454 77.4004 22.5904 77.3812 22.6359V22.636C77.3619 22.6814 77.3433 22.727 77.3251 22.773V22.773C77.307 22.8191 77.2894 22.8652 77.2724 22.9117V22.9118C77.2554 22.9583 77.239 23.005 77.223 23.052C77.2071 23.0991 77.1918 23.1464 77.177 23.1939C77.1621 23.2415 77.1479 23.2893 77.1343 23.3373C77.1207 23.3853 77.1075 23.4336 77.0951 23.4821C77.0825 23.5306 77.0708 23.5794 77.0594 23.6284H77.0594C77.0481 23.6774 77.0374 23.7266 77.0273 23.776C77.0172 23.8254 77.0076 23.875 76.9987 23.9249C76.9898 23.9747 76.9815 24.0248 76.9738 24.0751C76.9661 24.1253 76.9591 24.1759 76.9527 24.2265C76.9463 24.2772 76.9404 24.3281 76.9352 24.3791C76.9301 24.4301 76.9255 24.4814 76.9216 24.5327V24.5328C76.9177 24.5842 76.9144 24.6357 76.9118 24.6875V24.6876C76.9091 24.7394 76.9071 24.7912 76.9058 24.8433C76.9045 24.8955 76.9038 24.9477 76.9038 25.0001C76.9038 25.0525 76.9044 25.1048 76.9058 25.1569C76.9071 25.209 76.9091 25.2608 76.9118 25.3126V25.3127C76.9143 25.3644 76.9177 25.416 76.9216 25.4674V25.4675C76.9255 25.5189 76.93 25.5701 76.9352 25.6211C76.9404 25.6721 76.9463 25.723 76.9527 25.7737C76.9591 25.8243 76.9661 25.8748 76.9738 25.9251C76.9815 25.9753 76.9898 26.0253 76.9987 26.0752C77.0076 26.1251 77.0171 26.1748 77.0273 26.2242C77.0374 26.2736 77.048 26.3228 77.0594 26.3718H77.0594C77.0708 26.4208 77.0826 26.4695 77.0951 26.518C77.1075 26.5665 77.1206 26.6148 77.1343 26.6628C77.1479 26.7108 77.1621 26.7587 77.177 26.8062C77.1918 26.8537 77.2072 26.9011 77.223 26.9481C77.239 26.9952 77.2554 27.0418 77.2724 27.0884V27.0885C77.2895 27.1349 77.307 27.1811 77.3251 27.2271V27.2272C77.3433 27.2732 77.362 27.3188 77.3812 27.3642V27.3643C77.4005 27.4097 77.4202 27.4548 77.4404 27.4996V27.4997C77.4606 27.5446 77.4815 27.589 77.5029 27.6333V27.6333C77.5243 27.6775 77.546 27.7215 77.5684 27.7652C77.5908 27.8088 77.6136 27.8521 77.637 27.8951V27.8952C77.6603 27.9382 77.6842 27.981 77.7086 28.0234H77.7086C77.733 28.0658 77.7579 28.1078 77.7832 28.1495V28.1496C77.834 28.2329 77.8866 28.3152 77.9412 28.396C77.9685 28.4364 77.9962 28.4765 78.0245 28.5161V28.5162C78.0527 28.5558 78.0814 28.5952 78.1105 28.6341C78.1397 28.6731 78.1693 28.7117 78.1993 28.75H78.1994C78.2294 28.7882 78.2599 28.8261 78.2908 28.8636C78.3218 28.9011 78.3532 28.9382 78.385 28.975C78.4486 29.0484 78.514 29.1203 78.5811 29.1906V29.1907C78.6146 29.2258 78.6485 29.2606 78.6828 29.2949C78.7172 29.3292 78.7519 29.3632 78.7871 29.3967H78.7871C78.8573 29.4638 78.9293 29.5291 79.0028 29.5927C79.0396 29.6246 79.0767 29.656 79.1142 29.6869C79.1516 29.7178 79.1895 29.7483 79.2278 29.7783V29.7784C79.266 29.8085 79.3046 29.838 79.3436 29.8672C79.3825 29.8962 79.4219 29.9251 79.4616 29.9533H79.4617C79.5013 29.9815 79.5414 30.0092 79.5818 30.0365C79.6625 30.091 79.7446 30.1438 79.8281 30.1945H79.8282C79.8699 30.2198 79.9119 30.2447 79.9544 30.2691V30.2692C79.9967 30.2935 80.0395 30.3174 80.0825 30.3407H80.0826C80.1256 30.3641 80.1689 30.387 80.2126 30.4093C80.2561 30.4317 80.3002 30.4535 80.3444 30.4749H80.3445C80.3887 30.4962 80.4331 30.517 80.478 30.5373H80.4781C80.523 30.5576 80.568 30.5773 80.6134 30.5965H80.6135C80.6589 30.6158 80.7045 30.6344 80.7506 30.6525H80.7506C80.7966 30.6707 80.8428 30.6882 80.8893 30.7052H80.8893C80.9359 30.7224 80.9825 30.7387 81.0296 30.7546C81.0766 30.7706 81.1239 30.7859 81.1715 30.8007C81.2191 30.8156 81.2669 30.8298 81.3149 30.8434C81.3629 30.857 81.4112 30.8701 81.4597 30.8826C81.5082 30.8951 81.557 30.9069 81.606 30.9182V30.9183C81.655 30.9295 81.7042 30.9402 81.7536 30.9504C81.803 30.9605 81.8526 30.9701 81.9026 30.979C81.9523 30.9879 82.0024 30.9961 82.0527 31.0038C82.1029 31.0115 82.1534 31.0185 82.2041 31.025C82.2548 31.0314 82.3057 31.0373 82.3567 31.0425C82.4077 31.0476 82.4589 31.0522 82.5103 31.0561H82.5104C82.5618 31.06 82.6133 31.0633 82.6651 31.0659H82.6651C82.7169 31.0685 82.7687 31.0706 82.8208 31.0719C82.873 31.0732 82.9252 31.0739 82.9776 31.0739ZM88.6508 37.9902C88.7855 37.9314 88.919 37.8705 89.0514 37.8076L88.6508 37.9902ZM97.1498 30.1119V25V24.3044L97.1325 24.3015C97.1272 24.1924 97.1204 24.0838 97.1127 23.9755L97.111 23.9481C97.1038 23.8498 97.0949 23.7518 97.0858 23.6541L97.0805 23.5946C97.0711 23.4994 97.0603 23.4047 97.0491 23.31L97.042 23.2471C97.0306 23.1553 97.0179 23.0639 97.0048 22.9726L96.9947 22.8996C96.9816 22.8117 96.9673 22.7242 96.9526 22.6368L96.9389 22.5545C96.9243 22.4701 96.9084 22.3861 96.8923 22.3022L96.875 22.2124C96.8588 22.1311 96.8416 22.0501 96.8239 21.9693L96.8029 21.8725C96.785 21.7931 96.766 21.7141 96.7468 21.6352C96.7389 21.6026 96.7312 21.57 96.723 21.5376C96.7039 21.4615 96.6839 21.3858 96.6636 21.31L96.6338 21.2004C96.6137 21.1277 96.5926 21.0556 96.5714 20.9834L96.5382 20.8716C96.5165 20.8002 96.4942 20.7292 96.4713 20.6583L96.4345 20.5452C96.4109 20.4736 96.3865 20.4023 96.3617 20.3312L96.3244 20.2254C96.2995 20.1558 96.274 20.0866 96.2481 20.0175L96.2034 19.8999C96.1778 19.8338 96.1519 19.768 96.1254 19.7023L96.0786 19.5877C96.0508 19.5206 96.0226 19.4536 95.9938 19.387L95.9458 19.2771C95.9163 19.2103 95.8863 19.1437 95.8558 19.0774L95.8064 18.9718C95.7751 18.9053 95.7435 18.8391 95.7112 18.7732L95.6581 18.6661C95.626 18.6022 95.5938 18.5386 95.561 18.4752C95.5412 18.4372 95.521 18.3994 95.5009 18.3616C95.4685 18.3006 95.4359 18.2397 95.4026 18.1791C95.3828 18.143 95.3625 18.1071 95.3423 18.0712C95.3069 18.008 95.2712 17.9449 95.2348 17.8823C95.2159 17.8499 95.1967 17.8178 95.1776 17.7856C95.1396 17.7213 95.1012 17.6573 95.0621 17.5936C95.0425 17.5617 95.0225 17.5301 95.0027 17.4985C94.9639 17.4364 94.925 17.3746 94.8853 17.3132C94.8637 17.2796 94.8415 17.2465 94.8196 17.2132C94.7798 17.1528 94.74 17.0926 94.6994 17.0328C94.6776 17.0009 94.6553 16.9693 94.6333 16.9376C94.5919 16.8778 94.5505 16.818 94.5081 16.7589C94.4864 16.7285 94.4639 16.6984 94.4419 16.6681C94.398 16.6078 94.3541 16.5474 94.3092 16.4879C94.2895 16.4615 94.2693 16.4357 94.2492 16.4095C94.2011 16.3465 94.1528 16.2835 94.1036 16.2212C94.0875 16.2007 94.0709 16.1807 94.0546 16.1603C94.0016 16.094 93.9486 16.0278 93.8944 15.9625C93.8792 15.9441 93.8635 15.9261 93.8482 15.9078C93.7917 15.8404 93.7351 15.7732 93.6774 15.7067L93.6585 15.6854C93.3753 15.361 93.078 15.0496 92.7668 14.7522L92.7657 14.7511C92.7038 14.6919 92.6408 14.6337 92.5778 14.5757L92.5213 14.5232C92.463 14.47 92.4037 14.4178 92.3445 14.3656C92.3202 14.3442 92.2962 14.3224 92.2719 14.3011C92.2181 14.2544 92.1635 14.2086 92.1091 14.1626C92.0776 14.1361 92.0465 14.1092 92.0147 14.0828C91.9638 14.0407 91.9121 13.9993 91.8606 13.9579C91.8251 13.9293 91.7898 13.9004 91.754 13.872C91.7035 13.8321 91.6522 13.7931 91.6012 13.7539C91.5635 13.7249 91.5261 13.6956 91.488 13.6671C91.4396 13.6306 91.3905 13.595 91.3416 13.5591C91.2992 13.5281 91.2571 13.4969 91.2144 13.4664C91.1679 13.4331 91.1209 13.4006 91.074 13.3678C91.0294 13.3367 90.9849 13.3056 90.94 13.275C90.8902 13.2411 90.8398 13.2078 90.7895 13.1745C90.7468 13.1462 90.7041 13.1178 90.6611 13.09C90.611 13.0576 90.5604 13.0259 90.5098 12.994C90.4654 12.9662 90.4212 12.9381 90.3765 12.9107C90.3235 12.8782 90.2702 12.8464 90.2167 12.8146C90.1749 12.7896 90.133 12.7647 90.0909 12.7402C90.0369 12.7088 89.9824 12.678 89.9279 12.6473C89.8826 12.6217 89.8373 12.5962 89.7916 12.5711C89.7418 12.5438 89.6917 12.5168 89.6415 12.49C89.5918 12.4635 89.542 12.4371 89.492 12.4112C89.4412 12.3848 89.39 12.359 89.3387 12.3332C89.2896 12.3084 89.2405 12.2839 89.191 12.2597C89.1401 12.2349 89.089 12.2103 89.0377 12.186C88.9858 12.1614 88.9336 12.1369 88.8813 12.113C88.8308 12.0898 88.7803 12.067 88.7295 12.0444C88.6776 12.0214 88.6255 11.9985 88.5732 11.9761C88.5213 11.9537 88.4692 11.9317 88.4169 11.9099C88.3633 11.8876 88.3095 11.8658 88.2555 11.8441C88.2048 11.8238 88.154 11.8036 88.103 11.7838C88.0486 11.7626 87.994 11.742 87.9393 11.7215C87.8866 11.7018 87.8339 11.6824 87.781 11.6632C87.7268 11.6437 87.6723 11.6247 87.6179 11.6058C87.5651 11.5875 87.5123 11.5694 87.4591 11.5516C87.4029 11.5329 87.3464 11.5147 87.2899 11.4967C87.2377 11.48 87.1855 11.4634 87.1331 11.4474C87.0753 11.4298 87.0174 11.4127 86.9594 11.3957C86.9075 11.3806 86.8555 11.3654 86.8034 11.3508C86.7457 11.3347 86.6878 11.3192 86.6298 11.3038C86.5758 11.2894 86.5218 11.275 86.4676 11.2612C86.4111 11.2469 86.3542 11.2333 86.2974 11.2197C86.2416 11.2062 86.1857 11.1927 86.1295 11.18C86.0737 11.1673 86.0174 11.1554 85.9613 11.1434C85.9044 11.1312 85.8477 11.1188 85.7906 11.1074C85.7319 11.0956 85.673 11.0846 85.6139 11.0735C85.5594 11.0632 85.5048 11.0528 85.45 11.043C85.3896 11.0323 85.3288 11.0229 85.268 11.0129C85.213 11.0039 85.1582 10.9947 85.103 10.9864C85.0422 10.9772 84.9811 10.9693 84.9201 10.9609C84.8655 10.9533 84.8109 10.9455 84.756 10.9386C84.691 10.9304 84.6257 10.9235 84.5604 10.9162C84.5088 10.9105 84.4575 10.9042 84.4057 10.899C84.3389 10.8923 84.2716 10.887 84.2045 10.8812C84.1537 10.8768 84.103 10.872 84.0521 10.8681C83.9743 10.8621 83.8962 10.8578 83.8181 10.8532C83.7782 10.8509 83.7384 10.848 83.6984 10.8458C83.6188 10.8418 83.5389 10.8394 83.459 10.8367C83.4182 10.8353 83.3775 10.8333 83.3367 10.8322C83.2174 10.8289 83.0975 10.8277 82.9774 10.8277C75.1503 10.8277 68.8052 17.1728 68.8052 24.9999C68.8052 32.8271 75.1503 39.1722 82.9774 39.1722C84.9949 39.1722 86.9135 38.75 88.6506 37.9902C87.7744 40.2712 85.5572 41.9015 82.9774 41.9015C81.5049 41.9015 80.1506 41.3703 79.0962 40.4903L79.0335 40.5376L72.5724 45.4236C75.1665 48.2331 78.8754 49.9999 82.9774 50C90.7722 49.9999 97.1497 43.6224 97.1497 35.8276V30.1119H97.1498Z" fill="#04020D"/>
</svg>
