<svg width="158" height="51" viewBox="0 0 158 51" fill="none" xmlns="http://www.w3.org/2000/svg">
<path d="M80.4515 9.07411H78.4364V13.4185H80.8292C81.2629 13.4185 81.6267 13.31 81.9207 13.0933C82.2144 12.8728 82.4311 12.6071 82.571 12.2888C82.7109 11.9741 82.7774 11.6241 82.7704 11.2462C82.7633 10.8649 82.6759 10.5188 82.508 10.2039C82.3401 9.88559 82.0847 9.6198 81.7419 9.39933C81.3992 9.18248 80.969 9.07411 80.4515 9.07411ZM78.3945 16.3359V20.3445H75.0156V6.21991H80.0528C80.4445 6.21991 80.8711 6.2338 81.3328 6.26199C81.7947 6.28997 82.2565 6.36321 82.7182 6.48221C83.1799 6.6012 83.6241 6.77963 84.0509 7.01742C84.4776 7.25541 84.852 7.58398 85.1735 8.00378C85.4955 8.42359 85.7402 8.94806 85.9081 9.57766C86.076 10.2075 86.1389 10.97 86.097 11.8654C86.0549 12.551 85.9185 13.17 85.6878 13.7229C85.4569 14.2756 85.1176 14.7444 84.6696 15.1292C84.2218 15.5137 83.6623 15.811 82.9906 16.021C82.3191 16.231 81.5285 16.3357 80.6192 16.3357H78.3945V16.3359Z" fill="#02000B" stroke="#FADF50" stroke-width="0.0296176" stroke-miterlimit="22.9256"/>
<path d="M91.5326 16.3569V20.3236H88.1538V6.24085L93.8834 6.21991C95.5763 6.21991 96.8706 6.61508 97.766 7.40575C98.6616 8.19623 99.1093 9.48713 99.1093 11.2779C99.1093 12.4672 98.791 13.4187 98.1545 14.1323C97.5179 14.8458 96.6676 15.3006 95.6043 15.4964L99.571 20.3445L95.5203 20.3236L92.498 16.3569H91.5326ZM95.7513 11.236C95.7513 10.8442 95.6986 10.5119 95.5939 10.2391C95.4892 9.96629 95.342 9.74578 95.1533 9.57786C94.9645 9.41014 94.7474 9.28778 94.5026 9.21066C94.2578 9.13375 94.0095 9.09544 93.7576 9.09544H91.5749V13.4189H93.5478C94.1216 13.4189 94.5553 13.307 94.8491 13.0831C95.1428 12.8594 95.3597 12.6075 95.4994 12.3277C95.6534 12.0055 95.7372 11.6417 95.7513 11.236Z" fill="#02000B" stroke="#FADF50" stroke-width="0.0296176" stroke-miterlimit="22.9256"/>
<path d="M74.2393 40.4857H76.0022C76.0723 41.2307 76.3381 41.7938 76.8104 42.1786C77.2791 42.5599 77.9438 42.7524 78.8077 42.7524C79.6016 42.7524 80.228 42.5984 80.6863 42.2869C81.1443 41.9756 81.3752 41.5488 81.3752 41.0102C81.3752 40.6043 81.2633 40.2967 81.0358 40.0798C80.8085 39.8662 80.3641 39.6811 79.7065 39.5235L77.6427 38.9883C76.4814 38.7085 75.6697 38.3377 75.2151 37.8795C74.7603 37.4176 74.5328 36.76 74.5328 35.9066C74.5328 34.9375 74.9 34.1647 75.6347 33.5945C76.3694 33.0243 77.3768 32.741 78.6535 32.741C79.9582 32.741 80.9973 33.0455 81.7701 33.6539C82.5432 34.2592 82.928 35.0776 82.928 36.0992V36.1411H81.1441C81.102 35.5605 80.8643 35.1092 80.4306 34.7909C79.9969 34.4726 79.4055 34.3154 78.6606 34.3154C77.912 34.3154 77.3453 34.4448 76.9605 34.7035C76.5721 34.9661 76.3799 35.3438 76.3799 35.8439C76.3799 36.1973 76.5021 36.4771 76.7438 36.6799C76.9888 36.8792 77.4398 37.0576 78.1044 37.208L79.8919 37.6278C81.1582 37.9286 82.0292 38.3134 82.5084 38.7787C82.9842 39.2475 83.2219 39.9155 83.2219 40.7829C83.2219 41.9233 82.8198 42.8084 82.0187 43.4414C81.2141 44.0746 80.0912 44.3893 78.6502 44.3893C77.2404 44.3893 76.1596 44.0535 75.404 43.3855C74.6485 42.7174 74.2602 41.7486 74.2393 40.4857Z" fill="#02000B" stroke="#FADF50" stroke-width="0.0296176" stroke-miterlimit="22.9256"/>
<path d="M84.8623 38.5473C84.8623 36.7108 85.3206 35.28 86.2407 34.2552C87.1607 33.2303 88.448 32.7195 90.1095 32.7195C91.7781 32.7195 93.0723 33.2304 93.9923 34.2516C94.9158 35.273 95.3775 36.704 95.3775 38.5473C95.3775 40.3942 94.9194 41.8283 93.999 42.8532C93.0793 43.8782 91.792 44.3888 90.1303 44.3888C88.4617 44.3888 87.1676 43.8782 86.2478 42.8568C85.3243 41.8354 84.8623 40.4012 84.8623 38.5473ZM86.7516 38.5473C86.7516 39.908 87.0417 40.9502 87.626 41.6709C88.2103 42.3915 89.0462 42.7519 90.1303 42.7519C91.2079 42.7519 92.0332 42.3915 92.607 41.6709C93.1809 40.9502 93.4674 39.908 93.4674 38.5473C93.4674 37.1971 93.1807 36.1581 92.607 35.4375C92.0332 34.7171 91.2079 34.3567 90.1303 34.3567C89.039 34.3567 88.203 34.7171 87.6223 35.4343C87.0418 36.1511 86.7516 37.19 86.7516 38.5473Z" fill="#02000B" stroke="#FADF50" stroke-width="0.0296176" stroke-miterlimit="22.9256"/>
<path d="M99.5115 28.9632H97.6436V44.0532H99.5115V28.9632Z" fill="#02000B" stroke="#FADF50" stroke-width="0.0296176" stroke-miterlimit="22.9256"/>
<path d="M104.192 33.0766V39.8102C104.192 40.8876 104.36 41.6396 104.7 42.0594C105.036 42.4792 105.609 42.689 106.414 42.689C107.481 42.689 108.285 42.3776 108.831 41.7515C109.377 41.1255 109.65 40.2054 109.65 38.9881V33.0766H111.496V44.0533H109.73V42.4129C109.349 43.0461 108.855 43.5251 108.247 43.8435C107.638 44.1654 106.925 44.3261 106.106 44.3261C105.34 44.3261 104.676 44.1967 104.109 43.9377C103.542 43.679 103.108 43.3081 102.808 42.8289C102.636 42.5631 102.514 42.2517 102.437 41.8949C102.363 41.5345 102.325 40.9679 102.325 40.1877V39.6666V33.0764H104.192V33.0766Z" fill="#02000B" stroke="#FADF50" stroke-width="0.0296176" stroke-miterlimit="22.9256"/>
<path d="M116.466 41.2895C116.466 41.7828 116.536 42.1117 116.676 42.276C116.816 42.4403 117.072 42.5208 117.449 42.5208C117.558 42.5208 117.687 42.5171 117.841 42.5102C117.995 42.5032 118.194 42.4893 118.439 42.4682V44.0355C118.131 44.0912 117.858 44.1299 117.614 44.1577C117.372 44.1857 117.155 44.1997 116.963 44.1997C116.099 44.1997 115.491 44.0318 115.141 43.6996C114.794 43.3638 114.619 42.769 114.619 41.9158V34.5456H112.979V33.0763H114.619V30.0121H116.466V33.0763H118.439V34.5456H116.466V41.2895Z" fill="#02000B" stroke="#FADF50" stroke-width="0.0296176" stroke-miterlimit="22.9256"/>
<path d="M120.199 44.0534V33.0767H122.046V44.0534H120.199ZM120.199 31.0619V28.9631H122.046V31.0619H120.199Z" fill="#02000B" stroke="#FADF50" stroke-width="0.0296176" stroke-miterlimit="22.9256"/>
<path d="M124.294 38.5473C124.294 36.7108 124.753 35.28 125.673 34.2552C126.593 33.2303 127.88 32.7195 129.542 32.7195C131.21 32.7195 132.504 33.2304 133.424 34.2516C134.348 35.273 134.81 36.704 134.81 38.5473C134.81 40.3942 134.351 41.8283 133.431 42.8532C132.511 43.8782 131.224 44.3888 129.562 44.3888C127.894 44.3888 126.6 43.8782 125.68 42.8568C124.756 41.8354 124.294 40.4012 124.294 38.5473ZM126.183 38.5473C126.183 39.908 126.474 40.9502 127.058 41.6709C127.642 42.3915 128.478 42.7519 129.562 42.7519C130.64 42.7519 131.465 42.3915 132.039 41.6709C132.613 40.9502 132.899 39.908 132.899 38.5473C132.899 37.1971 132.613 36.1581 132.039 35.4375C131.465 34.7171 130.64 34.3567 129.562 34.3567C128.471 34.3567 127.635 34.7171 127.054 35.4343C126.474 36.1511 126.183 37.19 126.183 38.5473Z" fill="#02000B" stroke="#FADF50" stroke-width="0.0296176" stroke-miterlimit="22.9256"/>
<path d="M144.359 44.0534V37.299C144.359 36.2214 144.195 35.473 143.862 35.0602C143.53 34.6475 142.963 34.4411 142.159 34.4411C141.127 34.4411 140.326 34.7314 139.756 35.3157C139.186 35.8998 138.902 36.729 138.902 37.8027V44.0536H137.055V33.077H138.822V34.6755C139.245 34.0423 139.745 33.57 140.326 33.2658C140.907 32.958 141.578 32.8041 142.344 32.8041C143.17 32.8041 143.866 32.9301 144.432 33.1783C145.003 33.4266 145.44 33.801 145.744 34.2977C145.916 34.5671 146.038 34.8784 146.115 35.235C146.189 35.5954 146.227 36.162 146.227 36.9422V37.4634V44.0534H144.359Z" fill="#02000B" stroke="#FADF50" stroke-width="0.0296176" stroke-miterlimit="22.9256"/>
<path d="M148.217 40.4857H149.98C150.05 41.2307 150.316 41.7938 150.788 42.1786C151.257 42.5599 151.922 42.7524 152.786 42.7524C153.58 42.7524 154.206 42.5984 154.664 42.2869C155.122 41.9756 155.353 41.5488 155.353 41.0102C155.353 40.6043 155.241 40.2967 155.014 40.0798C154.786 39.8662 154.342 39.6811 153.685 39.5235L151.621 38.9883C150.459 38.7085 149.648 38.3377 149.193 37.8795C148.738 37.4176 148.511 36.76 148.511 35.9066C148.511 34.9375 148.878 34.1647 149.613 33.5945C150.347 33.0243 151.355 32.741 152.632 32.741C153.936 32.741 154.975 33.0455 155.748 33.6539C156.521 34.2592 156.906 35.0776 156.906 36.0992V36.1411H155.122C155.08 35.5605 154.842 35.1092 154.409 34.7909C153.975 34.4726 153.384 34.3154 152.639 34.3154C151.89 34.3154 151.323 34.4448 150.939 34.7035C150.55 34.9661 150.358 35.3438 150.358 35.8439C150.358 36.1973 150.48 36.4771 150.722 36.6799C150.967 36.8792 151.418 37.0576 152.083 37.208L153.87 37.6278C155.136 37.9286 156.007 38.3134 156.486 38.7787C156.962 39.2475 157.2 39.9155 157.2 40.7829C157.2 41.9233 156.798 42.8084 155.997 43.4414C155.192 44.0746 154.069 44.3893 152.628 44.3893C151.219 44.3893 150.138 44.0535 149.382 43.3855C148.627 42.7174 148.238 41.7486 148.217 40.4857Z" fill="#02000B" stroke="#FADF50" stroke-width="0.0296176" stroke-miterlimit="22.9256"/>
<path d="M80.4515 9.07411H78.4364V13.4185H80.8292C81.2629 13.4185 81.6267 13.31 81.9207 13.0933C82.2144 12.8728 82.4311 12.6071 82.571 12.2888C82.7109 11.9741 82.7774 11.6241 82.7704 11.2462C82.7633 10.8649 82.6759 10.5188 82.508 10.2039C82.3401 9.88559 82.0847 9.6198 81.7419 9.39933C81.3992 9.18248 80.969 9.07411 80.4515 9.07411ZM78.3945 16.3359V20.3445H75.0156V6.21991H80.0528C80.4445 6.21991 80.8711 6.2338 81.3328 6.26199C81.7947 6.28997 82.2565 6.36321 82.7182 6.48221C83.1799 6.6012 83.6241 6.77963 84.0509 7.01742C84.4776 7.25541 84.852 7.58398 85.1735 8.00378C85.4955 8.42359 85.7402 8.94806 85.9081 9.57766C86.076 10.2075 86.1389 10.97 86.097 11.8654C86.0549 12.551 85.9185 13.17 85.6878 13.7229C85.4569 14.2756 85.1176 14.7444 84.6696 15.1292C84.2218 15.5137 83.6623 15.811 82.9906 16.021C82.3191 16.231 81.5285 16.3357 80.6192 16.3357H78.3945V16.3359Z" fill="#02000B"/>
<path d="M91.5326 16.3569V20.3236H88.1538V6.24085L93.8834 6.21991C95.5763 6.21991 96.8706 6.61508 97.766 7.40575C98.6616 8.19623 99.1093 9.48713 99.1093 11.2779C99.1093 12.4672 98.791 13.4187 98.1545 14.1323C97.5179 14.8458 96.6676 15.3006 95.6043 15.4964L99.571 20.3445L95.5203 20.3236L92.498 16.3569H91.5326ZM95.7513 11.236C95.7513 10.8442 95.6986 10.5119 95.5939 10.2391C95.4892 9.96629 95.342 9.74578 95.1533 9.57786C94.9645 9.41014 94.7474 9.28778 94.5026 9.21066C94.2578 9.13375 94.0095 9.09544 93.7576 9.09544H91.5749V13.4189H93.5478C94.1216 13.4189 94.5553 13.307 94.8491 13.0831C95.1428 12.8594 95.3597 12.6075 95.4994 12.3277C95.6534 12.0055 95.7372 11.6417 95.7513 11.236Z" fill="#02000B"/>
<path d="M74.2393 40.4857H76.0022C76.0723 41.2307 76.3381 41.7938 76.8104 42.1786C77.2791 42.5599 77.9438 42.7524 78.8077 42.7524C79.6016 42.7524 80.228 42.5984 80.6863 42.2869C81.1443 41.9756 81.3752 41.5488 81.3752 41.0102C81.3752 40.6043 81.2633 40.2967 81.0358 40.0798C80.8085 39.8662 80.3641 39.6811 79.7065 39.5235L77.6427 38.9883C76.4814 38.7085 75.6697 38.3377 75.2151 37.8795C74.7603 37.4176 74.5328 36.76 74.5328 35.9066C74.5328 34.9375 74.9 34.1647 75.6347 33.5945C76.3694 33.0243 77.3768 32.741 78.6535 32.741C79.9582 32.741 80.9973 33.0455 81.7701 33.6539C82.5432 34.2592 82.928 35.0776 82.928 36.0992V36.1411H81.1441C81.102 35.5605 80.8643 35.1092 80.4306 34.7909C79.9969 34.4726 79.4055 34.3154 78.6606 34.3154C77.912 34.3154 77.3453 34.4448 76.9605 34.7035C76.5721 34.9661 76.3799 35.3438 76.3799 35.8439C76.3799 36.1973 76.5021 36.4771 76.7438 36.6799C76.9888 36.8792 77.4398 37.0576 78.1044 37.208L79.8919 37.6278C81.1582 37.9286 82.0292 38.3134 82.5084 38.7787C82.9842 39.2475 83.2219 39.9155 83.2219 40.7829C83.2219 41.9233 82.8198 42.8084 82.0187 43.4414C81.2141 44.0746 80.0912 44.3893 78.6502 44.3893C77.2404 44.3893 76.1596 44.0535 75.404 43.3855C74.6485 42.7174 74.2602 41.7486 74.2393 40.4857Z" fill="#02000B"/>
<path d="M84.8623 38.5473C84.8623 36.7108 85.3206 35.28 86.2407 34.2552C87.1607 33.2303 88.448 32.7195 90.1095 32.7195C91.7781 32.7195 93.0723 33.2304 93.9923 34.2516C94.9158 35.273 95.3775 36.704 95.3775 38.5473C95.3775 40.3942 94.9194 41.8283 93.999 42.8532C93.0793 43.8782 91.792 44.3888 90.1303 44.3888C88.4617 44.3888 87.1676 43.8782 86.2478 42.8568C85.3243 41.8354 84.8623 40.4012 84.8623 38.5473ZM86.7516 38.5473C86.7516 39.908 87.0417 40.9502 87.626 41.6709C88.2103 42.3915 89.0462 42.7519 90.1303 42.7519C91.2079 42.7519 92.0332 42.3915 92.607 41.6709C93.1809 40.9502 93.4674 39.908 93.4674 38.5473C93.4674 37.1971 93.1807 36.1581 92.607 35.4375C92.0332 34.7171 91.2079 34.3567 90.1303 34.3567C89.039 34.3567 88.203 34.7171 87.6223 35.4343C87.0418 36.1511 86.7516 37.19 86.7516 38.5473Z" fill="#02000B"/>
<path d="M99.5115 28.9632H97.6436V44.0532H99.5115V28.9632Z" fill="#02000B"/>
<path d="M104.192 33.0766V39.8102C104.192 40.8876 104.36 41.6396 104.7 42.0594C105.036 42.4792 105.609 42.689 106.414 42.689C107.481 42.689 108.285 42.3776 108.831 41.7515C109.377 41.1255 109.65 40.2054 109.65 38.9881V33.0766H111.496V44.0533H109.73V42.4129C109.349 43.0461 108.855 43.5251 108.247 43.8435C107.638 44.1654 106.925 44.3261 106.106 44.3261C105.34 44.3261 104.676 44.1967 104.109 43.9377C103.542 43.679 103.108 43.3081 102.808 42.8289C102.636 42.5631 102.514 42.2517 102.437 41.8949C102.363 41.5345 102.325 40.9679 102.325 40.1877V39.6666V33.0764H104.192V33.0766Z" fill="#02000B"/>
<path d="M116.466 41.2895C116.466 41.7828 116.536 42.1117 116.676 42.276C116.816 42.4403 117.072 42.5208 117.449 42.5208C117.558 42.5208 117.687 42.5171 117.841 42.5102C117.995 42.5032 118.194 42.4893 118.439 42.4682V44.0355C118.131 44.0912 117.858 44.1299 117.614 44.1577C117.372 44.1857 117.155 44.1997 116.963 44.1997C116.099 44.1997 115.491 44.0318 115.141 43.6996C114.794 43.3638 114.619 42.769 114.619 41.9158V34.5456H112.979V33.0763H114.619V30.0121H116.466V33.0763H118.439V34.5456H116.466V41.2895Z" fill="#02000B"/>
<path d="M120.199 44.0534V33.0767H122.046V44.0534H120.199ZM120.199 31.0619V28.9631H122.046V31.0619H120.199Z" fill="#02000B"/>
<path d="M124.294 38.5473C124.294 36.7108 124.753 35.28 125.673 34.2552C126.593 33.2303 127.88 32.7195 129.542 32.7195C131.21 32.7195 132.504 33.2304 133.424 34.2516C134.348 35.273 134.81 36.704 134.81 38.5473C134.81 40.3942 134.351 41.8283 133.431 42.8532C132.511 43.8782 131.224 44.3888 129.562 44.3888C127.894 44.3888 126.6 43.8782 125.68 42.8568C124.756 41.8354 124.294 40.4012 124.294 38.5473ZM126.183 38.5473C126.183 39.908 126.474 40.9502 127.058 41.6709C127.642 42.3915 128.478 42.7519 129.562 42.7519C130.64 42.7519 131.465 42.3915 132.039 41.6709C132.613 40.9502 132.899 39.908 132.899 38.5473C132.899 37.1971 132.613 36.1581 132.039 35.4375C131.465 34.7171 130.64 34.3567 129.562 34.3567C128.471 34.3567 127.635 34.7171 127.054 35.4343C126.474 36.1511 126.183 37.19 126.183 38.5473Z" fill="#02000B"/>
<path d="M144.359 44.0534V37.299C144.359 36.2214 144.195 35.473 143.862 35.0602C143.53 34.6475 142.963 34.4411 142.159 34.4411C141.127 34.4411 140.326 34.7314 139.756 35.3157C139.186 35.8998 138.902 36.729 138.902 37.8027V44.0536H137.055V33.077H138.822V34.6755C139.245 34.0423 139.745 33.57 140.326 33.2658C140.907 32.958 141.578 32.8041 142.344 32.8041C143.17 32.8041 143.866 32.9301 144.432 33.1783C145.003 33.4266 145.44 33.801 145.744 34.2977C145.916 34.5671 146.038 34.8784 146.115 35.235C146.189 35.5954 146.227 36.162 146.227 36.9422V37.4634V44.0534H144.359Z" fill="#02000B"/>
<path d="M148.217 40.4857H149.98C150.05 41.2307 150.316 41.7938 150.788 42.1786C151.257 42.5599 151.922 42.7524 152.786 42.7524C153.58 42.7524 154.206 42.5984 154.664 42.2869C155.122 41.9756 155.353 41.5488 155.353 41.0102C155.353 40.6043 155.241 40.2967 155.014 40.0798C154.786 39.8662 154.342 39.6811 153.685 39.5235L151.621 38.9883C150.459 38.7085 149.648 38.3377 149.193 37.8795C148.738 37.4176 148.511 36.76 148.511 35.9066C148.511 34.9375 148.878 34.1647 149.613 33.5945C150.347 33.0243 151.355 32.741 152.632 32.741C153.936 32.741 154.975 33.0455 155.748 33.6539C156.521 34.2592 156.906 35.0776 156.906 36.0992V36.1411H155.122C155.08 35.5605 154.842 35.1092 154.409 34.7909C153.975 34.4726 153.384 34.3154 152.639 34.3154C151.89 34.3154 151.323 34.4448 150.939 34.7035C150.55 34.9661 150.358 35.3438 150.358 35.8439C150.358 36.1973 150.48 36.4771 150.722 36.6799C150.967 36.8792 151.418 37.0576 152.083 37.208L153.87 37.6278C155.136 37.9286 156.007 38.3134 156.486 38.7787C156.962 39.2475 157.2 39.9155 157.2 40.7829C157.2 41.9233 156.798 42.8084 155.997 43.4414C155.192 44.0746 154.069 44.3893 152.628 44.3893C151.219 44.3893 150.138 44.0535 149.382 43.3855C148.627 42.7174 148.238 41.7486 148.217 40.4857Z" fill="#02000B"/>
<path fill-rule="evenodd" clip-rule="evenodd" d="M25.3827 22.7263C28.297 22.7263 30.6679 20.3554 30.6679 17.4411C30.6679 14.5269 28.297 12.156 25.3827 12.156C22.4686 12.156 20.0977 14.5269 20.0977 17.4411C20.0977 20.3554 22.4686 22.7263 25.3827 22.7263Z" fill="#AD4583"/>
<path fill-rule="evenodd" clip-rule="evenodd" d="M15.2979 15.8354L1.47093 11.8849C1.38951 11.8617 1.30715 11.8504 1.22532 11.8504C1.0362 11.8504 0.851138 11.9114 0.695073 12.0292C0.471544 12.198 0.343262 12.4554 0.343262 12.7356V23.0221C0.343262 23.3021 0.471408 23.5597 0.695073 23.7285C0.918603 23.897 1.20121 23.9496 1.47093 23.8727L15.2979 19.9221C15.6756 19.8141 15.9394 19.4645 15.9394 19.0717V16.686C15.9394 16.2932 15.6755 15.9435 15.2979 15.8354Z" fill="#AD4583"/>
<path fill-rule="evenodd" clip-rule="evenodd" d="M12.392 23.4758L8.86872 24.5967V23.3924L6.96143 23.9373V25.9009C6.96143 26.2053 7.10649 26.4911 7.3521 26.6709C7.51751 26.7919 7.71517 26.8547 7.91512 26.8547C8.01199 26.8547 8.10953 26.84 8.20423 26.8098L13.6349 25.0818C14.0308 24.9558 14.2994 24.5882 14.2994 24.1729V21.8405L12.392 22.3855V23.4758Z" fill="#AD4583"/>
<path d="M5.17598 10.362C7.23502 7.57712 9.83757 5.27653 12.7857 3.57432C17.3255 0.953193 22.6846 -0.248082 28.1405 0.386742C28.1602 0.389045 28.18 0.391385 28.1998 0.393688C28.253 0.400055 28.3061 0.406296 28.3594 0.413069C31.7944 0.833982 35.014 1.95199 37.8726 3.62115L37.8863 3.62915C37.9359 3.65814 37.9854 3.68714 38.0349 3.71653C38.7712 4.15262 39.4802 4.62393 40.1603 5.12788L40.158 5.12927C41.1515 5.8657 42.0886 6.67376 42.9613 7.54661C47.0104 11.5959 49.6762 17.0278 50.1905 23.0734C50.1967 23.1446 50.2027 23.2158 50.2082 23.287L50.2103 23.3144C50.2746 24.1546 50.2963 25.0025 50.2739 25.8553L50.2734 25.8796C50.2711 25.9615 50.2687 26.0436 50.2654 26.1257C50.092 30.995 48.5254 35.5096 45.9524 39.2831C45.9269 39.3204 45.9014 39.3578 45.876 39.3949C45.8608 39.4168 45.8456 39.4388 45.8305 39.4607C45.5322 39.8911 45.2212 40.3107 44.8981 40.719L44.8974 40.7177C44.2943 41.48 43.6477 42.2065 42.9613 42.893C39.2054 46.6489 34.26 49.2146 28.739 49.9772L28.7405 49.9799C25.5184 50.4313 22.1545 50.2573 18.814 49.3621C12.1474 47.5758 6.83589 43.2564 3.63766 37.7168C1.99356 34.8691 0.908187 31.6992 0.483887 28.3853L3.10337 29.0871C3.56127 31.703 4.47786 34.2028 5.78951 36.4744C7.31506 39.1167 9.37467 41.4507 11.8668 43.301C11.9008 43.3212 11.9343 43.3433 11.9669 43.3672C13.7878 44.7038 15.7873 45.7498 17.8941 46.4821C17.9376 46.4972 17.9814 46.5123 18.025 46.5271C18.0505 46.5358 18.0758 46.5444 18.1013 46.5528C18.5459 46.7023 18.998 46.8387 19.4572 46.9618C19.8235 47.0599 20.19 47.1484 20.5567 47.2274C20.5801 47.2324 20.6037 47.2374 20.6272 47.2424L20.6346 47.244C22.1549 47.5646 23.7139 47.7286 25.2884 47.7286C31.5042 47.7286 37.1315 45.2094 41.2046 41.1361C42.0913 40.2495 42.9042 39.289 43.6336 38.2653L43.6657 38.2199C43.6995 38.1722 43.7329 38.1245 43.7663 38.0765C45.2135 35.9964 46.3314 33.6344 47.025 31.0455C47.5015 29.2676 47.7509 27.4824 47.7914 25.7204C47.7928 25.6606 47.794 25.6007 47.7948 25.5408L47.7955 25.4822C47.7967 25.3947 47.7972 25.3073 47.7972 25.2197C47.7972 24.7423 47.7823 24.2686 47.7529 23.7985C47.7512 23.7703 47.7494 23.7423 47.7474 23.7142C47.7447 23.674 47.7418 23.6337 47.739 23.5935C47.7082 23.1701 47.6658 22.7489 47.6115 22.3303L47.6134 22.3293C46.9648 17.2691 44.6361 12.7348 41.2046 9.30332C39.998 8.09667 38.6547 7.02615 37.2 6.11727L37.174 6.101C37.1212 6.06821 37.0684 6.03568 37.0151 6.00316C35.2209 4.90882 33.2418 4.04916 31.1088 3.47761C30.0887 3.20422 29.0661 3.00584 28.0469 2.87836C28.0063 2.87335 27.966 2.86849 27.9255 2.86375C27.9007 2.8609 27.876 2.85793 27.8511 2.85508C27.0099 2.75971 26.1548 2.71081 25.2882 2.71081C24.3993 2.71081 23.5185 2.76225 22.6501 2.86467C21.7521 2.97061 20.8824 3.12411 20.0454 3.32447C20.04 3.32583 20.0345 3.32709 20.0289 3.32818C17.9162 3.83728 15.8952 4.64845 14.0283 5.72626C11.6537 7.09725 9.52828 8.89987 7.77919 11.0596L5.17598 10.362Z" fill="#AD4583"/>
<path d="M20.3634 40.304L20.3633 27.6335L30.4033 24.2773L30.4034 40.304H20.3634Z" fill="#AD4583"/>
</svg>
