<svg width="217" height="51" viewBox="0 0 217 51" fill="none" xmlns="http://www.w3.org/2000/svg">
<path fill-rule="evenodd" clip-rule="evenodd" d="M53.8278 44.0728C53.8278 46.261 52.0132 48.1035 49.8249 48.1035H9.06269V13.5662C9.06269 11.3785 10.9 9.61132 13.0881 9.61132H49.8248C52.013 9.61132 53.8277 11.3785 53.8277 13.5662V44.0728H53.8278ZM2.31658 44.0728V6.36703C2.31658 4.17893 4.13121 2.33629 6.31956 2.33629H18.2054C25.9636 7.49511 18.2054 2.33624 25.9637 7.49506H13.0884C9.73302 7.49506 6.94656 10.2114 6.94656 13.5664V48.1037H6.31968C4.13134 48.1037 2.31658 46.2609 2.31658 44.0728ZM49.8249 7.49506H28.6953C18.2054 0.219854 28.6953 7.49512 18.2054 0.21991H6.31956C2.9647 0.21991 0.200195 3.01217 0.200195 6.36703V44.0728C0.200195 47.4277 2.9647 50.2199 6.31956 50.2199H49.8249C53.1797 50.2199 55.9442 47.4277 55.9442 44.0728V13.5662C55.9442 10.2114 53.1797 7.49506 49.8249 7.49506Z" fill="#008BD2"/>
<path fill-rule="evenodd" clip-rule="evenodd" d="M45.7261 28.3987C46.0599 28.065 46.5829 28.0135 46.9759 28.2757C47.3682 28.5384 47.5204 29.0411 47.3399 29.4772C47.1594 29.9132 46.6956 30.1611 46.2331 30.0691C45.7698 29.9767 45.4366 29.5703 45.4366 29.0987C45.4355 28.8362 45.5401 28.5839 45.7261 28.3987ZM40.9772 23.6499C41.3642 23.2642 41.99 23.2642 42.377 23.6499C42.7634 24.0364 42.7634 24.6631 42.377 25.0495C41.9903 25.436 41.3639 25.436 40.9772 25.0495C40.5907 24.6631 40.5907 24.0365 40.9772 23.6499ZM41.6774 27.1836C43.0285 27.1823 44.1907 26.2268 44.4533 24.9015C44.716 23.5761 44.006 22.2498 42.7572 21.7335C41.5084 21.2171 40.0692 21.6546 39.319 22.7781C38.569 23.9022 38.7168 25.3992 39.6727 26.3543C40.2038 26.8864 40.9256 27.1846 41.6774 27.1836ZM37.6502 29.7765C37.2638 30.1625 36.6376 30.1621 36.2513 29.7759C35.8653 29.3894 35.8653 28.7632 36.2513 28.3771C36.6374 27.991 37.2637 27.9905 37.6502 28.3765C38.036 28.7637 38.036 29.3893 37.6502 29.7765ZM38.955 27.0721C37.8486 25.966 36.0546 25.9669 34.9486 27.0734C33.8427 28.1798 33.8427 29.9733 34.9486 31.0797C36.0546 32.1861 37.8486 32.1871 38.955 31.0811C40.0605 29.9732 40.0605 28.1798 38.955 27.0721ZM40.7096 33.8251C40.7096 33.353 41.0432 32.9466 41.5062 32.8547C41.9693 32.7624 42.4329 33.0101 42.6135 33.4467C42.7941 33.8827 42.6419 34.3859 42.249 34.6481C41.8567 34.9103 41.333 34.8589 40.9993 34.5247C40.8133 34.3395 40.7089 34.0876 40.7096 33.8251ZM43.7042 35.8298C44.8094 34.722 44.8094 32.9285 43.7042 31.8207C42.5974 30.7147 40.8034 30.7156 39.6975 31.8222C38.5915 32.9284 38.5915 34.7219 39.6975 35.8285C40.8034 36.9349 42.5973 36.9357 43.7042 35.8298ZM31.3253 29.0876C31.3253 23.3643 35.9648 18.7246 41.6883 18.7246C47.4114 18.7246 52.0513 23.3641 52.0513 29.0876C52.0513 34.8107 47.4116 39.4506 41.6883 39.4506C35.9676 39.4442 31.3321 34.808 31.3253 29.0876ZM48.093 39.4762C53.2747 36.2772 55.3047 29.7472 52.8494 24.174C50.3945 18.6007 44.2061 15.6908 38.3482 17.3552C32.4899 19.0194 28.7556 24.748 29.597 30.7794C30.4387 36.8111 35.5981 41.2987 41.688 41.2959C41.8074 41.2959 41.9265 41.2945 42.0444 41.2913C42.0863 41.2976 42.1283 41.3008 42.1702 41.3018H47.4213C50.0661 41.2927 52.5642 42.5154 54.1797 44.6089C54.4923 45.0116 55.0721 45.0842 55.4748 44.7715C55.8771 44.4585 55.9497 43.8786 55.6369 43.4763C53.8176 41.1168 51.0672 39.6587 48.093 39.4762ZM43.5911 29.0988C43.5911 30.4512 44.5461 31.6154 45.8728 31.8794C47.1991 32.143 48.5277 31.4334 49.0454 30.1838C49.5629 28.934 49.1254 27.4929 48.001 26.7415C46.8766 25.9901 45.3779 26.1378 44.4213 27.0942C43.888 27.6244 43.5889 28.3464 43.5911 29.0988Z" fill="#008BD2"/>
<path fill-rule="evenodd" clip-rule="evenodd" d="M19.7648 24.7036C22.4759 24.7036 24.6814 22.498 24.6814 19.7869C24.6814 17.0758 22.4759 14.8702 19.7648 14.8702C17.0537 14.8702 14.8481 17.0758 14.8481 19.7869C14.8481 22.498 17.0537 24.7036 19.7648 24.7036Z" fill="#008BD2"/>
<path d="M14.8478 41.0559L14.8477 29.2687L24.1876 26.1465V41.0559H14.8478Z" fill="#008BD2"/>
<path d="M177.281 42.0621V35.3076C177.281 34.23 177.117 33.4816 176.785 33.0689C176.452 32.6561 175.886 32.4498 175.081 32.4498C174.049 32.4498 173.248 32.7401 172.678 33.3244C172.108 33.9085 171.825 34.7376 171.825 35.8114V42.0623H169.978V31.0856H171.744V32.6842C172.168 32.0509 172.667 31.5787 173.248 31.2745C173.829 30.9666 174.501 30.8128 175.267 30.8128C176.092 30.8128 176.788 30.9387 177.355 31.187C177.925 31.4352 178.362 31.8096 178.667 32.3064C178.838 32.5758 178.96 32.8871 179.037 33.2437C179.111 33.6041 179.149 34.1706 179.149 34.9509V35.4721V42.0621H177.281V42.0621ZM157.217 36.5564C157.217 34.7199 157.675 33.2891 158.595 32.2643C159.515 31.2394 160.803 30.7286 162.464 30.7286C164.133 30.7286 165.427 31.2395 166.347 32.2607C167.27 33.2822 167.732 34.7131 167.732 36.5564C167.732 38.4033 167.274 39.8374 166.354 40.8623C165.434 41.8873 164.146 42.3979 162.485 42.3979C160.816 42.3979 159.522 41.8873 158.602 40.8659C157.679 39.8445 157.217 38.4104 157.217 36.5564ZM159.106 36.5564C159.106 37.9171 159.396 38.9594 159.98 39.68C160.565 40.4006 161.401 40.761 162.485 40.761C163.563 40.761 164.388 40.4006 164.962 39.68C165.535 38.9594 165.822 37.9171 165.822 36.5564C165.822 35.2062 165.535 34.1672 164.962 33.4466C164.388 32.7262 163.563 32.3658 162.485 32.3658C161.394 32.3658 160.558 32.7262 159.977 33.4434C159.396 34.1602 159.106 35.1991 159.106 36.5564ZM153.121 42.0621V31.0854H154.968V42.0621H153.121ZM153.121 29.0706V26.9718H154.968V29.0706H153.121ZM149.388 39.2986C149.388 39.7919 149.459 40.1208 149.598 40.2851C149.738 40.4494 149.994 40.5299 150.372 40.5299C150.48 40.5299 150.609 40.5262 150.763 40.5194C150.917 40.5123 151.116 40.4984 151.362 40.4773V42.0446C151.054 42.1003 150.781 42.139 150.536 42.1668C150.295 42.1948 150.078 42.2089 149.885 42.2089C149.021 42.2089 148.413 42.041 148.063 41.7087C147.716 41.3729 147.542 40.7782 147.542 39.9249V32.5547H145.901V31.0854H147.542V28.0212H149.388V31.0854H151.362V32.5547H149.388V39.2986V39.2986ZM143.495 34.7374C143.439 33.9854 143.169 33.4048 142.68 32.9989C142.193 32.5897 141.525 32.3868 140.679 32.3868C139.682 32.3868 138.912 32.7469 138.37 33.4641C137.828 34.1813 137.555 35.2061 137.555 36.5388C137.555 37.8749 137.817 38.9071 138.338 39.6309C138.86 40.3551 139.601 40.7187 140.556 40.7187C141.417 40.7187 142.106 40.4983 142.62 40.0541C143.138 39.61 143.456 38.9627 143.578 38.1162H145.342C145.247 39.4628 144.771 40.5121 143.918 41.2644C143.061 42.02 141.914 42.3977 140.472 42.3977C138.968 42.3977 137.79 41.8835 136.933 40.8517C136.076 39.8198 135.645 38.4065 135.645 36.6087C135.645 34.7722 136.093 33.331 136.988 32.2923C137.884 31.2497 139.112 30.7284 140.679 30.7284C142.057 30.7284 143.162 31.0889 143.995 31.8095C144.824 32.5299 145.265 33.506 145.321 34.7372H143.495V34.7374ZM126.099 31.0854V37.819C126.099 38.8964 126.267 39.6484 126.607 40.0682C126.942 40.488 127.516 40.6978 128.32 40.6978C129.387 40.6978 130.192 40.3865 130.738 39.7603C131.283 39.1343 131.556 38.2143 131.556 36.9969V31.0854H133.403V42.0621H131.637V40.4217C131.255 41.055 130.762 41.5339 130.153 41.8523C129.545 42.1742 128.831 42.3349 128.013 42.3349C127.246 42.3349 126.582 42.2055 126.015 41.9466C125.449 41.6878 125.015 41.3169 124.714 40.8377C124.543 40.5719 124.42 40.2605 124.343 39.9037C124.27 39.5433 124.231 38.9767 124.231 38.1965V37.6754V31.0852H126.099V31.0854ZM121.394 26.972V42.0621H119.61V40.6805C119.142 41.2507 118.607 41.681 118.012 41.9679C117.417 42.2548 116.763 42.3981 116.046 42.3981C114.58 42.3981 113.416 41.8736 112.545 40.8242C111.674 39.7782 111.236 38.372 111.236 36.6091C111.236 34.8145 111.674 33.3838 112.548 32.3205C113.423 31.2604 114.587 30.7288 116.046 30.7288C116.809 30.7288 117.487 30.8688 118.078 31.1523C118.67 31.4358 119.18 31.8623 119.61 32.429V26.9722H121.394V26.972ZM119.673 36.4967C119.673 35.136 119.397 34.1112 118.848 33.422C118.298 32.7328 117.483 32.3866 116.406 32.3866C115.367 32.3866 114.563 32.7643 113.996 33.5199C113.429 34.2756 113.146 35.3459 113.146 36.7309C113.146 37.9833 113.436 38.9662 114.02 39.6832C114.604 40.4004 115.406 40.7608 116.424 40.7608C117.456 40.7608 118.257 40.3933 118.823 39.6554C119.39 38.9175 119.673 37.8644 119.673 36.4967ZM99.0424 36.5564C99.0424 34.7199 99.5007 33.2891 100.421 32.2643C101.341 31.2394 102.628 30.7286 104.289 30.7286C105.958 30.7286 107.252 31.2395 108.172 32.2607C109.096 33.2822 109.557 34.7131 109.557 36.5564C109.557 38.4033 109.099 39.8374 108.179 40.8623C107.259 41.8873 105.972 42.3979 104.31 42.3979C102.642 42.3979 101.348 41.8873 100.428 40.8659C99.5041 39.8445 99.0424 38.4104 99.0424 36.5564ZM100.931 36.5564C100.931 37.9171 101.221 38.9594 101.806 39.68C102.39 40.4006 103.226 40.761 104.31 40.761C105.388 40.761 106.213 40.4006 106.787 39.68C107.36 38.9594 107.647 37.9171 107.647 36.5564C107.647 35.2062 107.36 34.1672 106.787 33.4466C106.213 32.7262 105.388 32.3658 104.31 32.3658C103.219 32.3658 102.383 32.7262 101.802 33.4434C101.222 34.1602 100.931 35.1991 100.931 36.5564ZM92.6411 42.0621V31.0854H94.425V33.0514C94.7187 32.3169 95.1174 31.7676 95.6212 31.4003C96.1213 31.0365 96.7373 30.8547 97.4683 30.8547C97.6048 30.8547 97.7063 30.8547 97.7657 30.8581C97.8288 30.8617 97.8879 30.8722 97.951 30.8863V32.8277C97.9022 32.8209 97.8495 32.8138 97.7867 32.8102C97.7273 32.8068 97.6328 32.8068 97.5104 32.8068C96.5275 32.8068 95.7789 33.076 95.2612 33.6114C94.747 34.1463 94.488 34.9299 94.488 35.9549V42.0623H92.6411V42.0621ZM80.2128 46.4486V31.0854H82.0176V32.6316C82.4726 31.9776 82.9867 31.4947 83.5569 31.1905C84.1271 30.8827 84.8058 30.7286 85.5893 30.7286C87.0514 30.7286 88.2162 31.2533 89.0872 32.3064C89.9582 33.3594 90.3919 34.7688 90.3919 36.5388C90.3919 38.3263 89.9512 39.7499 89.0699 40.81C88.1919 41.8698 87.0234 42.3979 85.5683 42.3979C84.7988 42.3979 84.12 42.2614 83.5359 41.9852C82.9516 41.7089 82.4444 41.2855 82.0176 40.7189V46.4486H80.2128ZM81.9546 36.6508C81.9546 38.0185 82.2275 39.0436 82.7699 39.7326C83.3119 40.4181 84.1268 40.761 85.2147 40.761C86.2504 40.761 87.0513 40.3831 87.6144 39.6275C88.1778 38.872 88.461 37.8016 88.461 36.4164C88.461 35.164 88.1709 34.1811 87.5864 33.4641C87.0025 32.7469 86.2049 32.3868 85.1938 32.3868C84.1548 32.3868 83.3537 32.754 82.7942 33.4921C82.2346 34.23 81.9546 35.283 81.9546 36.6508ZM213.024 12.1827C213.024 11.749 212.94 11.3363 212.772 10.9445C212.604 10.5527 212.373 10.21 212.08 9.91624C211.786 9.62228 211.443 9.39156 211.051 9.22364C210.66 9.05571 210.247 8.97196 209.813 8.97196C209.365 8.97196 208.945 9.05571 208.554 9.22364C208.162 9.39156 207.819 9.62228 207.525 9.91624C207.231 10.21 207.001 10.5527 206.833 10.9445C206.665 11.3363 206.581 11.749 206.581 12.1827C206.581 12.6305 206.665 13.0503 206.833 13.4419C207.001 13.8337 207.231 14.1764 207.525 14.4704C207.819 14.7641 208.162 14.9949 208.554 15.1628C208.945 15.3307 209.365 15.4147 209.813 15.4147C210.247 15.4147 210.66 15.3307 211.051 15.1628C211.443 14.9949 211.786 14.7641 212.08 14.4704C212.373 14.1764 212.604 13.8337 212.772 13.4419C212.94 13.0503 213.024 12.6305 213.024 12.1827ZM216.109 12.1827C216.109 13.0503 215.945 13.8687 215.616 14.6381C215.287 15.4076 214.839 16.0794 214.273 16.6532C213.706 17.2268 213.038 17.678 212.268 18.0067C211.499 18.3357 210.68 18.5001 209.813 18.5001C208.945 18.5001 208.127 18.3357 207.357 18.0067C206.588 17.678 205.916 17.2268 205.342 16.6532C204.769 16.0794 204.317 15.4076 203.989 14.6381C203.66 13.8687 203.495 13.0501 203.495 12.1827C203.495 11.3153 203.66 10.4967 203.989 9.72719C204.317 8.95766 204.769 8.28938 205.342 7.7228C205.916 7.15622 206.588 6.70845 207.357 6.37966C208.127 6.05087 208.945 5.88633 209.813 5.88633C210.68 5.88633 211.499 6.05087 212.268 6.37966C213.038 6.70845 213.706 7.15602 214.273 7.7228C214.839 8.28958 215.287 8.95766 215.616 9.72719C215.945 10.4967 216.109 11.3153 216.109 12.1827ZM195.919 18.4791C195.051 18.4791 194.233 18.3149 193.463 17.9861C192.694 17.6571 192.025 17.2059 191.459 16.6322C190.892 16.0584 190.445 15.3867 190.116 14.6173C189.787 13.8478 189.622 13.0292 189.622 12.1618C189.622 11.2944 189.787 10.4758 190.116 9.70625C190.445 8.93692 190.892 8.26864 191.459 7.70206C192.025 7.13548 192.694 6.68751 193.463 6.35872C194.233 6.02993 195.051 5.86559 195.919 5.86559C196.786 5.86559 197.605 6.02993 198.374 6.35872C199.144 6.68751 199.815 7.13528 200.389 7.70206C200.963 8.26864 201.414 8.93692 201.743 9.70625C202.072 10.4758 202.236 11.2944 202.236 12.1618V13.4H192.959C193.197 13.9876 193.582 14.467 194.114 14.8379C194.646 15.2085 195.247 15.394 195.919 15.394C196.339 15.394 196.734 15.3207 197.105 15.1735C197.476 15.0267 197.801 14.8201 198.081 14.5545L200.368 16.6534C199.794 17.227 199.13 17.6746 198.375 17.9965C197.619 18.3183 196.8 18.4791 195.919 18.4791ZM192.834 11.2594H199.004C198.808 10.5877 198.43 10.0352 197.871 9.60155C197.311 9.16785 196.66 8.95102 195.919 8.95102C195.555 8.95102 195.209 9.00678 194.88 9.11893C194.551 9.23088 194.25 9.39155 193.978 9.60155C193.705 9.81135 193.47 10.0562 193.275 10.336C193.078 10.6157 192.931 10.9235 192.834 11.2594ZM184.69 12.1618C184.69 11.7281 184.606 11.3154 184.438 10.9236C184.27 10.5319 184.04 10.1891 183.753 9.8953C183.466 9.60154 183.127 9.37081 182.731 9.20289C182.34 9.03497 181.916 8.95102 181.469 8.95102C181.021 8.95102 180.598 9.03497 180.206 9.20289C179.811 9.37081 179.472 9.60154 179.185 9.8953C178.898 10.1891 178.667 10.5319 178.499 10.9236C178.331 11.3154 178.247 11.7281 178.247 12.1618C178.247 12.6096 178.331 13.0294 178.499 13.421C178.667 13.8128 178.898 14.1555 179.185 14.4494C179.472 14.7432 179.811 14.9739 180.206 15.1418C180.598 15.3098 181.021 15.3938 181.469 15.3938C181.916 15.3938 182.34 15.3098 182.731 15.1418C183.127 14.9739 183.466 14.7432 183.753 14.4494C184.04 14.1555 184.27 13.8128 184.438 13.421C184.606 13.0294 184.69 12.6096 184.69 12.1618ZM187.796 12.1618C187.796 13.0294 187.632 13.8478 187.303 14.6173C186.974 15.3867 186.523 16.0584 185.949 16.6322C185.376 17.2059 184.704 17.6571 183.935 17.9861C183.165 18.3149 182.347 18.4791 181.479 18.4791C180.612 18.4791 179.793 18.3149 179.023 17.9861C178.254 17.6571 177.582 17.2059 177.009 16.6322C176.435 16.0584 175.984 15.3867 175.655 14.6173C175.326 13.8478 175.162 13.0292 175.162 12.1618C175.162 11.2944 175.326 10.4758 175.655 9.70625C175.984 8.93692 176.435 8.26864 177.009 7.70206C177.582 7.13548 178.254 6.68751 179.023 6.35872C179.793 6.02993 180.612 5.86559 181.479 5.86559C182.067 5.86559 182.637 5.94954 183.189 6.11746C183.742 6.28538 184.242 6.61416 184.69 7.10383L184.648 0.21991H187.796V12.1409V12.1618V12.1618ZM173.084 6.41102H169.936V18.3531H173.084V6.41102ZM160.68 10.9445L161.205 12.3507H161.268L161.792 10.9445L164.542 4.24943H168.446L162.212 18.3322H160.281L154.048 4.24943H157.973L160.68 10.9445ZM151.341 4.20755H154.09L147.164 18.3531H144.415L151.341 4.20755ZM140.679 12.1827C140.679 11.749 140.595 11.3363 140.427 10.9445C140.259 10.5527 140.028 10.21 139.735 9.91624C139.441 9.62228 139.098 9.39156 138.706 9.22364C138.314 9.05571 137.902 8.97196 137.468 8.97196C137.02 8.97196 136.6 9.05571 136.209 9.22364C135.817 9.39156 135.474 9.62228 135.18 9.91624C134.886 10.21 134.656 10.5527 134.488 10.9445C134.32 11.3363 134.236 11.749 134.236 12.1827C134.236 12.6305 134.32 13.0503 134.488 13.4419C134.656 13.8337 134.886 14.1764 135.18 14.4704C135.474 14.7641 135.817 14.9949 136.209 15.1628C136.6 15.3307 137.02 15.4147 137.468 15.4147C137.902 15.4147 138.314 15.3307 138.706 15.1628C139.098 14.9949 139.441 14.7641 139.735 14.4704C140.028 14.1764 140.259 13.8337 140.427 13.4419C140.595 13.0503 140.679 12.6305 140.679 12.1827ZM143.764 12.1827C143.764 13.0503 143.6 13.8687 143.271 14.6381C142.942 15.4076 142.494 16.0794 141.928 16.6532C141.361 17.2268 140.693 17.678 139.923 18.0067C139.154 18.3357 138.335 18.5001 137.468 18.5001C136.6 18.5001 135.782 18.3357 135.012 18.0067C134.243 17.678 133.571 17.2268 132.997 16.6532C132.424 16.0794 131.973 15.4076 131.644 14.6381C131.315 13.8687 131.15 13.0501 131.15 12.1827C131.15 11.3153 131.315 10.4967 131.644 9.72719C131.973 8.95766 132.424 8.28938 132.997 7.7228C133.571 7.15622 134.243 6.70845 135.012 6.37966C135.782 6.05087 136.6 5.88633 137.468 5.88633C138.335 5.88633 139.154 6.05087 139.923 6.37966C140.693 6.70845 141.361 7.15602 141.928 7.7228C142.494 8.28958 142.942 8.95766 143.271 9.72719C143.6 10.4967 143.764 11.3153 143.764 12.1827ZM121.517 6.41102H123.154L123.133 3.15797H126.239V6.43216H129.051L129.094 9.28646H126.302L126.239 12.7706C126.225 13.2323 126.323 13.6239 126.533 13.9459C126.743 14.2678 127.005 14.5265 127.32 14.7222C127.635 14.9183 127.981 15.0582 128.359 15.1421C128.737 15.2261 129.093 15.2682 129.429 15.2682V18.3531C128.562 18.3531 127.747 18.2412 126.984 18.0175C126.221 17.7936 125.56 17.4333 125.001 16.9366C124.441 16.4397 123.997 15.7926 123.668 14.9951C123.339 14.1975 123.175 13.2182 123.175 12.0567L123.154 9.28616H121.517V6.41102H121.517ZM117.235 12.1827C117.235 11.749 117.151 11.3363 116.983 10.9445C116.815 10.5527 116.585 10.21 116.291 9.91624C115.997 9.62228 115.654 9.39156 115.263 9.22364C114.871 9.05571 114.458 8.97196 114.024 8.97196C113.577 8.97196 113.157 9.05571 112.765 9.22364C112.374 9.39156 112.031 9.62228 111.737 9.91624C111.443 10.21 111.212 10.5527 111.044 10.9445C110.876 11.3363 110.792 11.749 110.792 12.1827C110.792 12.6305 110.876 13.0503 111.044 13.4419C111.212 13.8337 111.443 14.1764 111.737 14.4704C112.031 14.7641 112.374 14.9949 112.765 15.1628C113.157 15.3307 113.577 15.4147 114.024 15.4147C114.458 15.4147 114.871 15.3307 115.263 15.1628C115.654 14.9949 115.997 14.7641 116.291 14.4704C116.585 14.1764 116.815 13.8337 116.983 13.4419C117.151 13.0503 117.235 12.6305 117.235 12.1827ZM120.32 12.1827C120.32 13.0503 120.156 13.8687 119.827 14.6381C119.498 15.4076 119.051 16.0794 118.484 16.6532C117.917 17.2268 117.249 17.678 116.48 18.0067C115.71 18.3357 114.892 18.5001 114.024 18.5001C113.157 18.5001 112.338 18.3357 111.569 18.0067C110.799 17.678 110.128 17.2268 109.554 16.6532C108.98 16.0794 108.529 15.4076 108.2 14.6381C107.871 13.8687 107.707 13.0501 107.707 12.1827C107.707 11.3153 107.871 10.4967 108.2 9.72719C108.529 8.95766 108.98 8.28938 109.554 7.7228C110.128 7.15622 110.799 6.70845 111.569 6.37966C112.338 6.05087 113.157 5.88633 114.024 5.88633C114.892 5.88633 115.71 6.05087 116.48 6.37966C117.249 6.70845 117.917 7.15602 118.484 7.7228C119.051 8.28938 119.498 8.95766 119.827 9.72719C120.156 10.4967 120.32 11.3153 120.32 12.1827ZM99.5844 6.13821C100.452 6.13821 101.271 6.30274 102.04 6.63154C102.81 6.96033 103.481 7.4079 104.055 7.97468C104.629 8.54126 105.08 9.20586 105.409 9.96855C105.738 10.731 105.902 11.5461 105.902 12.4137L105.986 18.3742H102.88L102.817 12.4277C102.817 11.994 102.733 11.5813 102.565 11.1929C102.397 10.8013 102.166 10.4584 101.873 10.1647C101.579 9.87434 101.236 9.64343 100.844 9.47551C100.452 9.30779 100.033 9.22364 99.5846 9.22364C99.137 9.22364 98.7207 9.30779 98.3361 9.47551C97.9514 9.64343 97.6119 9.87414 97.3179 10.1647C97.0242 10.4584 96.7934 10.8013 96.6255 11.1929C96.4576 11.5813 96.3736 11.994 96.3736 12.4277L96.4157 18.3742H93.2884V3.24212H96.4157L96.3948 6.26444L96.3318 7.49226C96.4997 7.27884 96.7095 7.09362 96.9613 6.92913C97.2132 6.76825 97.4858 6.62823 97.7798 6.50924C98.0738 6.38682 98.3745 6.2959 98.6822 6.23308C98.9899 6.17026 99.2907 6.13821 99.5844 6.13821ZM85.6068 7.08269H83.5918V11.4271H85.9843C86.418 11.4271 86.782 11.3185 87.0758 11.1019C87.3697 10.8814 87.5864 10.6157 87.7263 10.2974C87.8662 9.9827 87.9327 9.63272 87.9257 9.2548C87.9186 8.87346 87.8312 8.5274 87.6633 8.21249C87.4954 7.89417 87.2399 7.62838 86.8972 7.40791C86.5545 7.19106 86.1242 7.08269 85.6068 7.08269ZM83.5496 14.3445V18.3531H80.1709V4.22849H85.2081C85.5997 4.22849 86.0264 4.24238 86.488 4.27057C86.9497 4.29856 87.4116 4.37179 87.8735 4.49079C88.3351 4.60978 88.7793 4.78821 89.2062 5.026C89.6328 5.26399 90.0074 5.59256 90.3289 6.01237C90.6505 6.43217 90.8955 6.95664 91.0634 7.58625C91.2313 8.21605 91.2941 8.9786 91.2523 9.87397C91.2104 10.5595 91.0738 11.1786 90.8431 11.7315C90.6123 12.2844 90.2731 12.753 89.8252 13.1377C89.3774 13.5223 88.8176 13.8196 88.1461 14.0296C87.4746 14.2396 86.684 14.3443 85.7745 14.3443H83.5496V14.3445Z" stroke="#FADF50" stroke-width="0.0296176" stroke-miterlimit="22.9256"/>
<path d="M177.281 42.0621V35.3076C177.281 34.23 177.117 33.4816 176.785 33.0689C176.452 32.6561 175.886 32.4498 175.081 32.4498C174.049 32.4498 173.248 32.7401 172.678 33.3244C172.108 33.9085 171.825 34.7376 171.825 35.8114V42.0623H169.978V31.0856H171.744V32.6842C172.168 32.0509 172.667 31.5787 173.248 31.2745C173.829 30.9666 174.501 30.8128 175.267 30.8128C176.092 30.8128 176.788 30.9387 177.355 31.187C177.925 31.4352 178.362 31.8096 178.667 32.3064C178.838 32.5758 178.96 32.8871 179.037 33.2437C179.111 33.6041 179.149 34.1707 179.149 34.9509V35.4721V42.0621H177.281ZM157.217 36.5564C157.217 34.7199 157.675 33.2891 158.595 32.2643C159.515 31.2394 160.803 30.7286 162.464 30.7286C164.133 30.7286 165.427 31.2395 166.347 32.2607C167.27 33.2822 167.732 34.7131 167.732 36.5564C167.732 38.4033 167.274 39.8374 166.354 40.8623C165.434 41.8873 164.146 42.3979 162.485 42.3979C160.816 42.3979 159.522 41.8873 158.602 40.8659C157.679 39.8445 157.217 38.4104 157.217 36.5564ZM159.106 36.5564C159.106 37.9171 159.396 38.9594 159.98 39.68C160.565 40.4006 161.401 40.761 162.485 40.761C163.563 40.761 164.388 40.4006 164.962 39.68C165.535 38.9594 165.822 37.9171 165.822 36.5564C165.822 35.2062 165.535 34.1672 164.962 33.4466C164.388 32.7262 163.563 32.3658 162.485 32.3658C161.394 32.3658 160.558 32.7262 159.977 33.4434C159.396 34.1602 159.106 35.1991 159.106 36.5564ZM153.121 42.0621V31.0854H154.968V42.0621H153.121ZM153.121 29.0706V26.9718H154.968V29.0706H153.121ZM149.388 39.2986C149.388 39.7919 149.459 40.1208 149.598 40.2851C149.738 40.4494 149.994 40.5299 150.372 40.5299C150.48 40.5299 150.609 40.5262 150.763 40.5194C150.917 40.5123 151.116 40.4984 151.362 40.4773V42.0446C151.054 42.1003 150.781 42.139 150.536 42.1668C150.295 42.1948 150.078 42.2089 149.885 42.2089C149.021 42.2089 148.413 42.041 148.063 41.7087C147.716 41.3729 147.542 40.7782 147.542 39.9249V32.5547H145.901V31.0854H147.542V28.0212H149.388V31.0854H151.362V32.5547H149.388V39.2986ZM143.495 34.7374C143.439 33.9854 143.169 33.4048 142.68 32.9989C142.193 32.5897 141.525 32.3868 140.679 32.3868C139.682 32.3868 138.912 32.7469 138.37 33.4641C137.828 34.1813 137.555 35.2061 137.555 36.5388C137.555 37.8749 137.817 38.9071 138.338 39.6309C138.86 40.3551 139.601 40.7187 140.556 40.7187C141.417 40.7187 142.106 40.4983 142.62 40.0541C143.138 39.61 143.456 38.9627 143.578 38.1162H145.342C145.247 39.4628 144.771 40.5121 143.918 41.2644C143.061 42.02 141.914 42.3977 140.472 42.3977C138.968 42.3977 137.79 41.8835 136.933 40.8517C136.076 39.8198 135.645 38.4065 135.645 36.6087C135.645 34.7722 136.093 33.331 136.988 32.2923C137.884 31.2497 139.112 30.7284 140.679 30.7284C142.057 30.7284 143.162 31.0889 143.995 31.8095C144.824 32.5299 145.265 33.506 145.321 34.7372H143.495V34.7374ZM126.099 31.0854V37.819C126.099 38.8964 126.267 39.6484 126.606 40.0682C126.942 40.488 127.516 40.6978 128.32 40.6978C129.387 40.6978 130.192 40.3865 130.738 39.7603C131.283 39.1343 131.556 38.2142 131.556 36.9969V31.0854H133.403V42.0621H131.637V40.4217C131.255 41.055 130.762 41.5339 130.153 41.8523C129.545 42.1742 128.831 42.3349 128.013 42.3349C127.246 42.3349 126.582 42.2055 126.015 41.9466C125.449 41.6878 125.015 41.3169 124.714 40.8377C124.543 40.5719 124.42 40.2605 124.343 39.9037C124.27 39.5433 124.231 38.9767 124.231 38.1965V37.6754V31.0852H126.099V31.0854ZM121.394 26.972V42.0621H119.61V40.6805C119.142 41.2507 118.607 41.681 118.012 41.9679C117.417 42.2548 116.763 42.3981 116.046 42.3981C114.58 42.3981 113.416 41.8736 112.545 40.8242C111.674 39.7782 111.236 38.372 111.236 36.6091C111.236 34.8145 111.674 33.3838 112.548 32.3205C113.423 31.2604 114.587 30.7288 116.046 30.7288C116.809 30.7288 117.487 30.8688 118.078 31.1523C118.67 31.4358 119.18 31.8623 119.61 32.4291V26.9722H121.394V26.972ZM119.673 36.4967C119.673 35.136 119.397 34.1112 118.848 33.422C118.298 32.7328 117.483 32.3866 116.406 32.3866C115.367 32.3866 114.563 32.7643 113.996 33.5199C113.429 34.2756 113.146 35.3459 113.146 36.7309C113.146 37.9832 113.436 38.9662 114.02 39.6832C114.604 40.4004 115.406 40.7608 116.424 40.7608C117.456 40.7608 118.257 40.3933 118.823 39.6554C119.39 38.9175 119.673 37.8644 119.673 36.4967ZM99.0424 36.5564C99.0424 34.7199 99.5007 33.2891 100.421 32.2643C101.341 31.2394 102.628 30.7286 104.289 30.7286C105.958 30.7286 107.252 31.2395 108.172 32.2607C109.096 33.2822 109.557 34.7131 109.557 36.5564C109.557 38.4033 109.099 39.8374 108.179 40.8623C107.259 41.8873 105.972 42.3979 104.31 42.3979C102.642 42.3979 101.348 41.8873 100.428 40.8659C99.5041 39.8445 99.0424 38.4104 99.0424 36.5564ZM100.931 36.5564C100.931 37.9171 101.221 38.9594 101.806 39.68C102.39 40.4006 103.226 40.761 104.31 40.761C105.388 40.761 106.213 40.4006 106.787 39.68C107.36 38.9594 107.647 37.9171 107.647 36.5564C107.647 35.2062 107.36 34.1672 106.787 33.4466C106.213 32.7262 105.388 32.3658 104.31 32.3658C103.219 32.3658 102.383 32.7262 101.802 33.4434C101.222 34.1602 100.931 35.1991 100.931 36.5564ZM92.6411 42.0621V31.0854H94.425V33.0514C94.7187 32.3169 95.1174 31.7676 95.6212 31.4003C96.1213 31.0365 96.7373 30.8547 97.4683 30.8547C97.6049 30.8547 97.7063 30.8547 97.7657 30.8581C97.8288 30.8617 97.8879 30.8722 97.951 30.8863V32.8277C97.9022 32.8209 97.8495 32.8138 97.7867 32.8102C97.7273 32.8068 97.6328 32.8068 97.5104 32.8068C96.5275 32.8068 95.7789 33.076 95.2612 33.6114C94.747 34.1463 94.488 34.9299 94.488 35.9549V42.0623H92.6411V42.0621ZM80.2128 46.4486V31.0854H82.0176V32.6316C82.4726 31.9776 82.9867 31.4947 83.5569 31.1905C84.1271 30.8827 84.8058 30.7286 85.5893 30.7286C87.0514 30.7286 88.2162 31.2533 89.0872 32.3064C89.9582 33.3594 90.3919 34.7688 90.3919 36.5388C90.3919 38.3263 89.9512 39.7499 89.0699 40.81C88.1919 41.8698 87.0234 42.3979 85.5683 42.3979C84.7988 42.3979 84.12 42.2614 83.5359 41.9852C82.9516 41.7089 82.4444 41.2855 82.0176 40.7189V46.4486H80.2128ZM81.9546 36.6508C81.9546 38.0185 82.2275 39.0436 82.7699 39.7326C83.3119 40.4181 84.1268 40.761 85.2147 40.761C86.2504 40.761 87.0513 40.3831 87.6144 39.6275C88.1778 38.872 88.461 37.8016 88.461 36.4164C88.461 35.164 88.1709 34.1811 87.5864 33.4641C87.0025 32.7469 86.2049 32.3868 85.1938 32.3868C84.1548 32.3868 83.3537 32.754 82.7942 33.4921C82.2346 34.23 81.9546 35.283 81.9546 36.6508ZM213.024 12.1827C213.024 11.749 212.94 11.3363 212.772 10.9445C212.604 10.5527 212.373 10.21 212.08 9.91624C211.786 9.62228 211.443 9.39156 211.051 9.22364C210.66 9.05571 210.247 8.97196 209.813 8.97196C209.365 8.97196 208.945 9.05571 208.554 9.22364C208.162 9.39156 207.819 9.62228 207.525 9.91624C207.231 10.21 207.001 10.5527 206.833 10.9445C206.665 11.3363 206.581 11.749 206.581 12.1827C206.581 12.6305 206.665 13.0503 206.833 13.4419C207.001 13.8337 207.231 14.1764 207.525 14.4704C207.819 14.7641 208.162 14.9949 208.554 15.1628C208.945 15.3307 209.365 15.4147 209.813 15.4147C210.247 15.4147 210.66 15.3307 211.051 15.1628C211.443 14.9949 211.786 14.7641 212.08 14.4704C212.373 14.1764 212.604 13.8337 212.772 13.4419C212.94 13.0503 213.024 12.6305 213.024 12.1827ZM216.109 12.1827C216.109 13.0503 215.945 13.8687 215.616 14.6381C215.287 15.4076 214.839 16.0794 214.273 16.6532C213.706 17.2268 213.038 17.678 212.268 18.0067C211.499 18.3357 210.68 18.5001 209.813 18.5001C208.945 18.5001 208.127 18.3357 207.357 18.0067C206.588 17.678 205.916 17.2268 205.342 16.6532C204.769 16.0794 204.317 15.4076 203.989 14.6381C203.66 13.8687 203.495 13.0501 203.495 12.1827C203.495 11.3153 203.66 10.4967 203.989 9.72719C204.317 8.95766 204.769 8.28938 205.342 7.7228C205.916 7.15622 206.588 6.70845 207.357 6.37966C208.127 6.05087 208.945 5.88633 209.813 5.88633C210.68 5.88633 211.499 6.05087 212.268 6.37966C213.038 6.70845 213.706 7.15602 214.273 7.7228C214.839 8.28958 215.287 8.95766 215.616 9.72719C215.945 10.4967 216.109 11.3153 216.109 12.1827ZM195.919 18.4791C195.051 18.4791 194.233 18.3149 193.463 17.9861C192.694 17.6571 192.025 17.2059 191.459 16.6322C190.892 16.0584 190.445 15.3867 190.116 14.6173C189.787 13.8478 189.622 13.0292 189.622 12.1618C189.622 11.2944 189.787 10.4758 190.116 9.70625C190.445 8.93692 190.892 8.26864 191.459 7.70206C192.025 7.13548 192.694 6.68751 193.463 6.35872C194.233 6.02993 195.051 5.86559 195.919 5.86559C196.786 5.86559 197.605 6.02993 198.374 6.35872C199.144 6.68751 199.815 7.13528 200.389 7.70206C200.963 8.26864 201.414 8.93692 201.743 9.70625C202.072 10.4758 202.236 11.2944 202.236 12.1618V13.4H192.959C193.197 13.9876 193.582 14.467 194.114 14.8379C194.646 15.2085 195.247 15.394 195.919 15.394C196.339 15.394 196.734 15.3207 197.105 15.1735C197.476 15.0267 197.801 14.8201 198.081 14.5545L200.368 16.6534C199.794 17.227 199.13 17.6746 198.375 17.9965C197.619 18.3183 196.8 18.4791 195.919 18.4791ZM192.834 11.2594H199.004C198.808 10.5877 198.43 10.0352 197.871 9.60155C197.311 9.16785 196.66 8.95102 195.919 8.95102C195.555 8.95102 195.209 9.00678 194.88 9.11893C194.551 9.23088 194.25 9.39155 193.978 9.60155C193.705 9.81135 193.47 10.0562 193.275 10.336C193.078 10.6157 192.931 10.9235 192.834 11.2594ZM184.69 12.1618C184.69 11.7281 184.606 11.3154 184.438 10.9236C184.27 10.5319 184.04 10.1891 183.753 9.8953C183.466 9.60154 183.127 9.37081 182.731 9.20289C182.34 9.03497 181.916 8.95102 181.469 8.95102C181.021 8.95102 180.598 9.03497 180.206 9.20289C179.811 9.37081 179.472 9.60154 179.185 9.8953C178.898 10.1891 178.667 10.5319 178.499 10.9236C178.331 11.3154 178.247 11.7281 178.247 12.1618C178.247 12.6096 178.331 13.0294 178.499 13.421C178.667 13.8128 178.898 14.1555 179.185 14.4494C179.472 14.7432 179.811 14.9739 180.206 15.1418C180.598 15.3098 181.021 15.3938 181.469 15.3938C181.916 15.3938 182.34 15.3098 182.731 15.1418C183.127 14.9739 183.466 14.7432 183.753 14.4494C184.04 14.1555 184.27 13.8128 184.438 13.421C184.606 13.0294 184.69 12.6096 184.69 12.1618ZM187.796 12.1618C187.796 13.0294 187.632 13.8478 187.303 14.6173C186.974 15.3867 186.523 16.0584 185.949 16.6322C185.376 17.2059 184.704 17.6571 183.935 17.9861C183.165 18.3149 182.347 18.4791 181.479 18.4791C180.612 18.4791 179.793 18.3149 179.023 17.9861C178.254 17.6571 177.582 17.2059 177.009 16.6322C176.435 16.0584 175.984 15.3867 175.655 14.6173C175.326 13.8478 175.162 13.0292 175.162 12.1618C175.162 11.2944 175.326 10.4758 175.655 9.70625C175.984 8.93692 176.435 8.26864 177.009 7.70206C177.582 7.13548 178.254 6.68751 179.023 6.35872C179.793 6.02993 180.612 5.86559 181.479 5.86559C182.067 5.86559 182.637 5.94954 183.189 6.11746C183.742 6.28538 184.242 6.61416 184.69 7.10383L184.648 0.21991H187.796V12.1409V12.1618ZM173.084 6.41102H169.936V18.3531H173.084V6.41102ZM160.68 10.9445L161.205 12.3507H161.268L161.792 10.9445L164.542 4.24943H168.446L162.212 18.3322H160.281L154.048 4.24943H157.973L160.68 10.9445ZM151.341 4.20755H154.09L147.164 18.3531H144.415L151.341 4.20755ZM140.679 12.1827C140.679 11.749 140.595 11.3363 140.427 10.9445C140.259 10.5527 140.028 10.21 139.735 9.91624C139.441 9.62228 139.098 9.39156 138.706 9.22364C138.314 9.05571 137.902 8.97196 137.468 8.97196C137.02 8.97196 136.6 9.05571 136.209 9.22364C135.817 9.39156 135.474 9.62228 135.18 9.91624C134.886 10.21 134.656 10.5527 134.488 10.9445C134.32 11.3363 134.236 11.749 134.236 12.1827C134.236 12.6305 134.32 13.0503 134.488 13.4419C134.656 13.8337 134.886 14.1764 135.18 14.4704C135.474 14.7641 135.817 14.9949 136.209 15.1628C136.6 15.3307 137.02 15.4147 137.468 15.4147C137.902 15.4147 138.314 15.3307 138.706 15.1628C139.098 14.9949 139.441 14.7641 139.735 14.4704C140.028 14.1764 140.259 13.8337 140.427 13.4419C140.595 13.0503 140.679 12.6305 140.679 12.1827ZM143.764 12.1827C143.764 13.0503 143.6 13.8687 143.271 14.6381C142.942 15.4076 142.494 16.0794 141.928 16.6532C141.361 17.2268 140.693 17.678 139.923 18.0067C139.154 18.3357 138.335 18.5001 137.468 18.5001C136.6 18.5001 135.782 18.3357 135.012 18.0067C134.243 17.678 133.571 17.2268 132.997 16.6532C132.424 16.0794 131.973 15.4076 131.644 14.6381C131.315 13.8687 131.15 13.0501 131.15 12.1827C131.15 11.3153 131.315 10.4967 131.644 9.72719C131.973 8.95766 132.424 8.28938 132.997 7.7228C133.571 7.15622 134.243 6.70845 135.012 6.37966C135.782 6.05087 136.6 5.88633 137.468 5.88633C138.335 5.88633 139.154 6.05087 139.923 6.37966C140.693 6.70845 141.361 7.15602 141.928 7.7228C142.494 8.28958 142.942 8.95766 143.271 9.72719C143.6 10.4967 143.764 11.3153 143.764 12.1827ZM121.517 6.41102H123.154L123.133 3.15797H126.239V6.43216H129.051L129.094 9.28646H126.302L126.239 12.7706C126.225 13.2323 126.323 13.6239 126.533 13.9459C126.743 14.2678 127.005 14.5265 127.32 14.7222C127.635 14.9183 127.981 15.0582 128.359 15.1421C128.737 15.2261 129.093 15.2682 129.429 15.2682V18.3531C128.562 18.3531 127.747 18.2412 126.984 18.0175C126.221 17.7936 125.56 17.4333 125.001 16.9366C124.441 16.4397 123.997 15.7926 123.668 14.9951C123.339 14.1975 123.175 13.2182 123.175 12.0567L123.154 9.28616H121.517V6.41102H121.517ZM117.235 12.1827C117.235 11.749 117.151 11.3363 116.983 10.9445C116.815 10.5527 116.585 10.21 116.291 9.91624C115.997 9.62228 115.654 9.39156 115.263 9.22364C114.871 9.05571 114.458 8.97196 114.024 8.97196C113.577 8.97196 113.157 9.05571 112.765 9.22364C112.374 9.39156 112.031 9.62228 111.737 9.91624C111.443 10.21 111.212 10.5527 111.044 10.9445C110.876 11.3363 110.792 11.749 110.792 12.1827C110.792 12.6305 110.876 13.0503 111.044 13.4419C111.212 13.8337 111.443 14.1764 111.737 14.4704C112.031 14.7641 112.374 14.9949 112.765 15.1628C113.157 15.3307 113.577 15.4147 114.024 15.4147C114.458 15.4147 114.871 15.3307 115.263 15.1628C115.654 14.9949 115.997 14.7641 116.291 14.4704C116.585 14.1764 116.815 13.8337 116.983 13.4419C117.151 13.0503 117.235 12.6305 117.235 12.1827ZM120.32 12.1827C120.32 13.0503 120.156 13.8687 119.827 14.6381C119.498 15.4076 119.051 16.0794 118.484 16.6532C117.917 17.2268 117.249 17.678 116.48 18.0067C115.71 18.3357 114.892 18.5001 114.024 18.5001C113.157 18.5001 112.338 18.3357 111.569 18.0067C110.799 17.678 110.128 17.2268 109.554 16.6532C108.98 16.0794 108.529 15.4076 108.2 14.6381C107.871 13.8687 107.707 13.0501 107.707 12.1827C107.707 11.3153 107.871 10.4967 108.2 9.72719C108.529 8.95766 108.98 8.28938 109.554 7.7228C110.128 7.15622 110.799 6.70845 111.569 6.37966C112.338 6.05087 113.157 5.88633 114.024 5.88633C114.892 5.88633 115.71 6.05087 116.48 6.37966C117.249 6.70845 117.917 7.15602 118.484 7.7228C119.051 8.28938 119.498 8.95766 119.827 9.72719C120.156 10.4967 120.32 11.3153 120.32 12.1827ZM99.5844 6.13821C100.452 6.13821 101.271 6.30274 102.04 6.63154C102.81 6.96033 103.481 7.4079 104.055 7.97468C104.629 8.54126 105.08 9.20586 105.409 9.96855C105.738 10.731 105.902 11.5461 105.902 12.4137L105.986 18.3742H102.88L102.817 12.4277C102.817 11.994 102.733 11.5813 102.565 11.1929C102.397 10.8013 102.166 10.4584 101.873 10.1647C101.579 9.87434 101.236 9.64343 100.844 9.47551C100.452 9.30779 100.033 9.22364 99.5846 9.22364C99.137 9.22364 98.7207 9.30779 98.3361 9.47551C97.9514 9.64343 97.6119 9.87414 97.3179 10.1647C97.0242 10.4584 96.7934 10.8013 96.6255 11.1929C96.4576 11.5813 96.3736 11.994 96.3736 12.4277L96.4157 18.3742H93.2884V3.24212H96.4157L96.3948 6.26444L96.3318 7.49226C96.4997 7.27884 96.7095 7.09362 96.9613 6.92913C97.2132 6.76825 97.4858 6.62823 97.7798 6.50924C98.0738 6.38682 98.3745 6.2959 98.6822 6.23308C98.9899 6.17026 99.2907 6.13821 99.5844 6.13821ZM85.6068 7.08269H83.5918V11.4271H85.9843C86.418 11.4271 86.782 11.3185 87.0758 11.1019C87.3697 10.8814 87.5864 10.6157 87.7263 10.2974C87.8662 9.9827 87.9327 9.63272 87.9257 9.2548C87.9186 8.87346 87.8312 8.5274 87.6633 8.21249C87.4954 7.89417 87.2399 7.62838 86.8972 7.40791C86.5545 7.19106 86.1242 7.08269 85.6068 7.08269ZM83.5496 14.3445V18.3531H80.1709V4.22849H85.2081C85.5997 4.22849 86.0264 4.24238 86.488 4.27057C86.9497 4.29856 87.4116 4.37179 87.8735 4.49079C88.3351 4.60978 88.7793 4.78821 89.2062 5.026C89.6328 5.26399 90.0074 5.59257 90.3289 6.01237C90.6505 6.43217 90.8955 6.95665 91.0634 7.58625C91.2313 8.21605 91.2941 8.9786 91.2523 9.87397C91.2104 10.5595 91.0738 11.1786 90.8431 11.7315C90.6123 12.2844 90.2731 12.753 89.8252 13.1377C89.3774 13.5223 88.8176 13.8196 88.1461 14.0296C87.4746 14.2396 86.684 14.3443 85.7745 14.3443H83.5496V14.3445Z" fill="#02000B"/>
<path d="M169.933 5.3625L173.081 5.87491V18.3538H169.933V5.3625Z" stroke="#FADF50" stroke-width="0.0302418" stroke-miterlimit="22.9256"/>
<path d="M169.936 5.3625L173.084 5.87471V18.3536H169.936V5.3625Z" fill="#04020D"/>
</svg>
