<svg width="168" height="51" viewBox="0 0 168 51" fill="none" xmlns="http://www.w3.org/2000/svg">
<path fill-rule="evenodd" clip-rule="evenodd" d="M23.9962 24.9815C26.7357 24.9815 28.9647 22.7527 28.9647 20.013C28.9647 17.2734 26.7358 15.0446 23.9962 15.0446C21.2565 15.0446 19.0278 17.2734 19.0278 20.013C19.0278 22.7527 21.2567 24.9815 23.9962 24.9815Z" fill="#E5007D"/>
<path d="M2.3544 35.8877C1.16046 33.0718 0.5 29.9748 0.5 26.7237C0.5 20.2355 3.12999 14.3615 7.38197 10.1094C9.56775 7.92374 12.1821 6.16677 15.088 4.97524V7.52475C12.8242 8.57695 10.7774 10.0175 9.03376 11.7612C5.2046 15.5904 2.83619 20.8804 2.83619 26.7238C2.83619 29.3138 3.3018 31.795 4.15341 34.0887L2.3544 35.8877ZM33.827 48.0702C30.836 49.4499 27.5061 50.2199 23.9962 50.2199C20.692 50.2199 17.5474 49.5376 14.6949 48.3065L16.4883 46.5133C18.8217 47.399 21.3524 47.884 23.9964 47.884C26.8488 47.884 29.5695 47.3192 32.0528 46.296L33.827 48.0702ZM32.5956 4.85106C35.6255 6.0431 38.3477 7.84657 40.6106 10.1094C44.8626 14.3615 47.4926 20.2355 47.4926 26.7237C47.4926 29.7669 46.9139 32.6752 45.8607 35.3444L44.0401 33.5237C44.764 31.3895 45.1565 29.1024 45.1565 26.7235C45.1565 20.8801 42.7881 15.5901 38.959 11.761C37.1363 9.93827 34.9824 8.44705 32.5957 7.38415V4.85106H32.5956Z" fill="#E5007D"/>
<path fill-rule="evenodd" clip-rule="evenodd" d="M43.7694 39.8892H38.0021V38.9623H43.7694V39.8892ZM43.7694 41.6398H38.0021V40.7131H43.7694V41.6398ZM41.0917 43.4936H38.0021V42.5669H41.0917V43.4936ZM46.344 39.8378C45.5201 36.7481 42.379 34.8945 39.238 35.7182C36.1485 36.5422 34.2947 39.6832 35.1186 42.8242C35.5304 44.3176 36.4059 45.5019 37.5903 46.2228L36.0456 48.5399L42.1731 46.9437C45.3142 46.1198 47.1679 42.9273 46.344 39.8378Z" fill="#E5007D"/>
<path d="M4.22279 40.0437H2.16309V45.6563H4.22279V40.0437Z" fill="#E5007D"/>
<path fill-rule="evenodd" clip-rule="evenodd" d="M5.25293 39.9922L8.29096 36.5422L9.57839 36.7997L8.65151 39.7347H13.1828L11.9469 45.6563L5.25293 39.9922Z" fill="#E5007D"/>
<path fill-rule="evenodd" clip-rule="evenodd" d="M31.2053 4.5138H29.918C29.7635 4.5138 29.6606 4.41077 29.6606 4.25642C29.6606 4.10207 29.7637 3.99904 29.918 3.99904H31.2053C31.3598 3.99904 31.4627 4.10207 31.4627 4.25642C31.4627 4.41077 31.3598 4.5138 31.2053 4.5138Z" fill="#E5007D"/>
<path fill-rule="evenodd" clip-rule="evenodd" d="M29.4028 3.12347C29.3514 3.12347 29.2484 3.07207 29.1969 3.02049C29.0939 2.91746 29.0939 2.71148 29.1969 2.60858L30.1237 1.68172C30.2267 1.57869 30.4326 1.57869 30.5357 1.68172C30.6387 1.78475 30.6387 1.99079 30.5357 2.09369L29.6088 3.02049C29.5573 3.07207 29.5057 3.12347 29.4028 3.12347Z" fill="#E5007D"/>
<path fill-rule="evenodd" clip-rule="evenodd" d="M30.3297 6.93397C30.2781 6.93397 30.1752 6.88251 30.1237 6.83093L29.1969 5.90413C29.0939 5.8011 29.0939 5.59519 29.1969 5.49216C29.2999 5.38913 29.5059 5.38913 29.6088 5.49216L30.5356 6.41902C30.6387 6.52205 30.6387 6.72803 30.5356 6.83093C30.4842 6.93396 30.3813 6.93397 30.3297 6.93397Z" fill="#E5007D"/>
<path fill-rule="evenodd" clip-rule="evenodd" d="M27.9612 3.17502V0.497529C27.9612 0.3945 27.9097 0.291598 27.7552 0.240147C27.6522 0.188696 27.4979 0.240095 27.4463 0.343125C27.4463 0.343125 25.6955 2.40287 22.297 2.40287H19.0529C18.641 2.40287 18.2806 2.6088 18.0745 2.91776C18.0745 2.91776 18.0745 2.91776 18.0231 2.91776H17.4567C17.2507 2.91776 17.0962 3.07225 17.0962 3.27818V5.33786C17.0962 5.54379 17.2507 5.69829 17.4567 5.69829H18.0231C18.1776 5.90434 18.4351 6.05884 18.6924 6.16187L20.3917 10.6417C20.4432 10.7963 20.5977 10.9507 20.8036 10.9507H22.4513C22.6058 10.9507 22.7603 10.8476 22.8632 10.6932C22.9147 10.5387 22.9148 10.3328 22.8117 10.2298L21.9364 9.25146L20.8035 6.26485H22.2968C25.6954 6.26485 27.4462 8.32459 27.4462 8.32459C27.4976 8.37605 27.6006 8.42757 27.6521 8.42757C27.7035 8.42757 27.7035 8.42757 27.7551 8.42757C27.8581 8.37612 27.961 8.27309 27.961 8.17019V5.49258C28.4759 5.38955 28.8365 4.92623 28.8365 4.35976C28.8365 3.79329 28.4761 3.27805 27.9612 3.17502Z" fill="#E5007D"/>
<path d="M19.277 41.5059L19.2769 29.5945L28.7151 26.4396L28.7152 41.5059H19.277Z" fill="#E5007D"/>
<path d="M165.275 44.3764C164.823 44.9728 164.292 45.4222 163.685 45.7204C163.077 46.0186 162.385 46.1661 161.608 46.1661C160.047 46.1661 158.791 45.5989 157.841 44.4684C156.891 43.3343 156.417 41.8395 156.417 39.9764C156.417 38.1354 156.891 36.6552 157.845 35.5359C158.799 34.4201 160.062 33.8606 161.63 33.8606C162.393 33.8606 163.063 34.0042 163.641 34.2952C164.223 34.586 164.76 35.0536 165.257 35.6907V34.2363H167.153V45.5402C167.153 47.3263 166.73 48.6185 165.879 49.4137C165.032 50.2091 163.659 50.6067 161.77 50.6067C160.235 50.6067 159.038 50.3087 158.176 49.7085C157.311 49.1119 156.88 48.2834 156.88 47.2228V47.1383H158.78V47.1826C158.78 47.779 159.034 48.2244 159.542 48.5226C160.047 48.8208 160.813 48.972 161.832 48.972C163.059 48.972 163.935 48.7363 164.473 48.2688C165.01 47.801 165.275 47.0315 165.275 45.9599V44.3764ZM161.859 35.6057C160.765 35.6057 159.922 35.9886 159.333 36.7506C158.744 37.5129 158.449 38.6028 158.449 40.0166C158.449 41.4048 158.751 42.4875 159.355 43.2606C159.959 44.0338 160.802 44.4205 161.881 44.4205C163.059 44.4205 163.932 44.067 164.495 43.3564C165.058 42.6493 165.342 41.5593 165.342 40.0939C165.342 38.6137 165.047 37.4943 164.462 36.7396C163.876 35.9849 163.007 35.6057 161.859 35.6057ZM152.09 45.7903V38.6801C152.09 37.546 151.917 36.7583 151.567 36.3238C151.217 35.8893 150.621 35.672 149.774 35.672C148.688 35.672 147.844 35.9774 147.244 36.5924C146.644 37.2075 146.346 38.0803 146.346 39.2106V45.7906H144.402V34.2361H146.261V35.9187C146.707 35.2522 147.233 34.7552 147.844 34.4347C148.455 34.1109 149.162 33.9488 149.969 33.9488C150.838 33.9488 151.57 34.0812 152.167 34.3427C152.767 34.6041 153.227 34.9981 153.548 35.5211C153.728 35.8045 153.857 36.1323 153.938 36.5077C154.015 36.8871 154.056 37.4835 154.056 38.3047V38.8534V45.7903H152.09ZM139.494 45.7903V34.2359H141.438V45.7903H139.494ZM139.494 32.115V29.9057H141.438V32.115H139.494ZM135.565 42.8815C135.565 43.4005 135.638 43.7466 135.786 43.9197C135.933 44.0927 136.202 44.1774 136.6 44.1774C136.714 44.1774 136.85 44.1737 137.012 44.1665C137.174 44.159 137.384 44.1444 137.641 44.1222V45.7716C137.317 45.8306 137.03 45.871 136.772 45.9005C136.518 45.9299 136.29 45.9446 136.088 45.9446C135.178 45.9446 134.538 45.7678 134.169 45.4181C133.805 45.0646 133.621 44.4388 133.621 43.5404V35.7822H131.894V34.2359H133.621V31.0103H135.565V34.2359H137.641V35.7822H135.565V42.8815ZM128.985 42.0568H130.907C130.697 43.3307 130.145 44.3321 129.246 45.0648C128.348 45.7975 127.214 46.1659 125.848 46.1659C124.242 46.1659 122.976 45.6281 122.048 44.5494C121.12 43.4704 120.656 41.9976 120.656 40.1382C120.656 38.1682 121.116 36.6292 122.037 35.5211C122.958 34.4129 124.224 33.8604 125.844 33.8604C127.505 33.8604 128.79 34.3722 129.699 35.3923C130.609 36.4124 131.062 37.8519 131.062 39.7151C131.062 39.9505 131.062 40.1273 131.058 40.2413C131.054 40.3555 131.043 40.4696 131.032 40.5764H122.699C122.721 41.7914 123.023 42.7343 123.605 43.4004C124.187 44.067 124.997 44.3983 126.032 44.3983C126.82 44.3983 127.475 44.1959 127.987 43.7871C128.503 43.382 128.834 42.8041 128.985 42.0568ZM122.689 38.9636H129.029C129.022 37.8849 128.749 37.049 128.208 36.4636C127.67 35.878 126.905 35.5836 125.914 35.5836C124.957 35.5836 124.206 35.8708 123.653 36.449C123.105 37.0234 122.781 37.8626 122.689 38.9636ZM109.783 45.7903V29.9059H111.727V39.4241L116.945 34.2359H119.393L115.07 38.4554L119.327 45.7901H117.14L113.763 39.8029L111.727 41.7656V45.7901H109.783V45.7903ZM102.448 45.7903V34.2359H104.326V36.3053C104.635 35.5321 105.055 34.954 105.585 34.5674C106.112 34.1844 106.76 33.993 107.529 33.993C107.673 33.993 107.78 33.9931 107.842 33.9969C107.909 34.0005 107.971 34.0114 108.038 34.0263V36.0698C107.986 36.0626 107.931 36.0552 107.865 36.0514C107.802 36.0476 107.703 36.0476 107.574 36.0476C106.539 36.0476 105.751 36.3312 105.206 36.8945C104.665 37.4579 104.392 38.2828 104.392 39.3618V45.7906H102.448V45.7903ZM97.4112 39.9137C96.8919 40.1934 96.0045 40.4108 94.7451 40.5689C94.2996 40.6278 93.9645 40.6722 93.7401 40.7091C93.0367 40.8231 92.5286 41.0328 92.2194 41.3348C91.9102 41.6369 91.7555 42.075 91.7555 42.6532C91.7555 43.2275 91.936 43.6694 92.2968 43.9786C92.6539 44.2881 93.1693 44.4426 93.8395 44.4426C94.8816 44.4426 95.7393 44.1811 96.4059 43.6546C97.0761 43.1281 97.4112 42.458 97.4112 41.6367V39.9137ZM97.5951 44.2474C96.9875 44.8807 96.3468 45.352 95.6656 45.6687C94.988 45.9853 94.2664 46.1437 93.5006 46.1437C92.3222 46.1437 91.4017 45.838 90.739 45.223C90.0763 44.6081 89.745 43.7576 89.745 42.6752C89.745 41.6257 90.0691 40.801 90.7208 40.2043C91.3725 39.6079 92.3667 39.2252 93.6958 39.0518C94.0345 39.0149 94.4912 38.9634 95.0692 38.9009C96.0524 38.8015 96.6598 38.7021 96.8809 38.6101C97.1055 38.5215 97.2526 38.4076 97.3225 38.2677C97.3961 38.1278 97.433 37.822 97.433 37.3544C97.433 36.7652 97.2157 36.3235 96.7848 36.0253C96.354 35.7307 95.7025 35.5834 94.8297 35.5834C93.9313 35.5834 93.2501 35.7637 92.7936 36.1247C92.337 36.4856 92.1088 37.0195 92.1088 37.7266H90.2751V37.6382C90.2751 36.4746 90.6839 35.5504 91.505 34.8766C92.3262 34.1993 93.4527 33.8604 94.8924 33.8604C96.439 33.8604 97.5767 34.1513 98.3055 34.7295C99.0346 35.3076 99.3992 36.2133 99.3992 37.4468V43.2239C99.3992 43.7173 99.4545 44.0378 99.5613 44.1813C99.6717 44.3252 99.8669 44.3985 100.147 44.3985C100.206 44.3985 100.276 44.3947 100.36 44.3839C100.445 44.3729 100.544 44.3544 100.659 44.3323V45.8347C100.423 45.901 100.213 45.945 100.036 45.9711C99.8633 45.9967 99.6937 46.0114 99.5356 46.0114C98.8875 46.0114 98.4015 45.8715 98.0811 45.5882C97.757 45.3082 97.5951 44.8811 97.5951 44.3139V44.2474ZM85.5731 45.7903V38.6801C85.5731 37.5167 85.4148 36.7213 85.098 36.2907C84.7813 35.8634 84.2328 35.65 83.4484 35.65C82.5131 35.65 81.7879 35.941 81.2686 36.5192C80.7494 37.0973 80.4916 37.9108 80.4916 38.9605V45.7908H78.5255V38.6805C78.5255 37.5172 78.3671 36.7217 78.0505 36.2911C77.7339 35.8638 77.1889 35.6504 76.412 35.6504C75.4843 35.6504 74.7552 35.945 74.2321 36.5303C73.7057 37.1159 73.4442 37.926 73.4442 38.9607V45.791H71.5V34.2366H73.3594V35.8676C73.7903 35.2195 74.2983 34.7371 74.8875 34.4241C75.4767 34.1074 76.1689 33.9492 76.9569 33.9492C77.6749 33.9492 78.29 34.0928 78.8016 34.3836C79.3096 34.6746 79.7479 35.1347 80.1161 35.757C80.6205 35.1345 81.1692 34.6746 81.7656 34.3836C82.362 34.0928 83.0506 33.9492 83.8276 33.9492C84.5751 33.9492 85.2268 34.0854 85.7792 34.3541C86.3353 34.6231 86.7585 35.0133 87.0531 35.5216C87.2189 35.8162 87.3367 36.1696 87.4105 36.5781C87.4804 36.9905 87.5171 37.6348 87.5171 38.5186V38.8537V45.7906H85.5731V45.7903ZM137.424 14.5592V20.8335H134.11L134.177 19.9352C133.16 20.7708 132.026 21.187 130.774 21.187C129.861 21.187 129 21.0139 128.19 20.6678C127.379 20.3217 126.673 19.8468 126.069 19.2427C125.465 18.6389 124.99 17.9319 124.644 17.1219C124.297 16.312 124.124 15.4502 124.124 14.5372C124.124 13.6241 124.297 12.7624 124.644 11.9524C124.99 11.1423 125.465 10.4355 126.069 9.8315C126.672 9.22768 127.379 8.75248 128.19 8.40638C129 8.06028 129.861 7.88729 130.774 7.88729C131.687 7.88729 132.549 8.06028 133.359 8.40638C134.169 8.75248 134.876 9.22768 135.48 9.8315C136.084 10.4355 136.559 11.1423 136.905 11.9524C137.251 12.7624 137.424 13.6241 137.424 14.5372V14.5592ZM134.177 14.5482C134.177 14.0769 134.088 13.6316 133.912 13.2191C133.735 12.8031 133.488 12.4422 133.179 12.1329C132.87 11.8237 132.509 11.577 132.093 11.4003C131.68 11.2235 131.235 11.1351 130.764 11.1351C130.292 11.1351 129.847 11.2235 129.434 11.4003C129.018 11.577 128.661 11.8237 128.359 12.1329C128.057 12.4422 127.814 12.8031 127.637 13.2191C127.461 13.6316 127.372 14.0771 127.372 14.5482C127.372 15.0194 127.461 15.4651 127.637 15.8773C127.814 16.2936 128.057 16.6504 128.359 16.9524C128.661 17.2545 129.018 17.4974 129.434 17.6742C129.847 17.8509 130.292 17.9393 130.764 17.9393C131.235 17.9393 131.68 17.8509 132.093 17.6742C132.509 17.4974 132.87 17.2545 133.179 16.9524C133.488 16.6504 133.735 16.2936 133.912 15.8773C134.088 15.4651 134.177 15.0194 134.177 14.5482ZM113.984 8.26284H115.707L115.685 4.7923L118.955 4.21991V8.28488H121.915L121.959 11.2896H119.021L118.955 14.957C118.94 15.443 119.043 15.8555 119.264 16.1942C119.485 16.5331 119.761 16.8054 120.092 17.0116C120.424 17.2179 120.788 17.3652 121.186 17.4533C121.584 17.5417 121.959 17.586 122.313 17.586V20.8335C121.4 20.8335 120.542 20.7155 119.739 20.48C118.936 20.2443 118.24 19.8652 117.651 19.3424C117.062 18.8195 116.594 18.1383 116.248 17.2986C115.902 16.4591 115.729 15.4282 115.729 14.2057L115.707 11.2894H113.984V8.26284ZM102.231 14.3163C102.231 13.8598 102.143 13.4251 101.966 13.0129C101.789 12.6005 101.546 12.2398 101.237 11.9305C100.927 11.6211 100.567 11.3782 100.154 11.2015C99.7419 11.0247 99.3074 10.9363 98.8509 10.9363C98.3795 10.9363 97.9376 11.0247 97.5254 11.2015C97.1129 11.3782 96.752 11.6211 96.4428 11.9305C96.1335 12.2398 95.8907 12.6007 95.7139 13.0129C95.5374 13.4251 95.4488 13.8598 95.4488 14.3163C95.4488 14.7877 95.5372 15.2294 95.7139 15.6419C95.8907 16.0541 96.1335 16.415 96.4428 16.7243C96.752 17.0335 97.1131 17.2766 97.5254 17.4531C97.9376 17.6299 98.3795 17.7183 98.8509 17.7183C99.3074 17.7183 99.7421 17.6299 100.154 17.4531C100.567 17.2766 100.927 17.0335 101.237 16.7243C101.546 16.415 101.789 16.0541 101.966 15.6419C102.142 15.2292 102.231 14.7875 102.231 14.3163ZM105.478 14.3382L105.456 19.8834C105.456 20.7967 105.284 21.6583 104.937 22.4681C104.591 23.2781 104.116 23.9851 103.513 24.589C102.909 25.193 102.205 25.668 101.403 26.0141C100.6 26.3604 99.7347 26.5333 98.8068 26.5333C97.8937 26.5333 97.0394 26.3603 96.2442 26.0176C95.4488 25.6753 94.7417 25.2004 94.1233 24.6038L96.5534 22.424C96.848 22.6892 97.1905 22.8989 97.5807 23.0536C97.9709 23.2084 98.3797 23.2858 98.8068 23.2858C99.1603 23.2858 99.5212 23.2489 99.8894 23.1753C100.258 23.1018 100.6 22.9729 100.917 22.7962C101.234 22.6156 101.506 22.3873 101.734 22.1037C101.962 21.8204 102.113 21.4778 102.187 21.0764L102.231 19.5079C101.76 20.1119 101.233 20.5057 100.652 20.6899C100.07 20.8738 99.4695 20.966 98.8509 20.966C97.9376 20.966 97.0761 20.7931 96.266 20.447C95.456 20.1009 94.7489 19.6257 94.1451 19.0219C93.5413 18.4178 93.0663 17.7111 92.72 16.901C92.3739 16.091 92.2008 15.2292 92.2008 14.3163C92.2008 13.4031 92.3739 12.5414 92.72 11.7315C93.0661 10.9215 93.5413 10.218 94.1451 9.62163C94.7489 9.02522 95.456 8.55389 96.266 8.20779C97.0761 7.86169 97.9376 7.68849 98.8509 7.68849C99.7641 7.68849 100.626 7.86169 101.436 8.20779C102.246 8.55389 102.949 9.02501 103.546 9.62163C104.142 10.2182 104.613 10.9215 104.959 11.7315C105.306 12.5414 105.479 13.4033 105.479 14.3163V14.3382H105.478ZM80.9115 13.3219C80.9115 12.7476 80.8011 12.206 80.5802 11.6982C80.3594 11.1902 80.061 10.7483 79.6854 10.3725C79.3099 9.99718 78.8644 9.69862 78.3487 9.47778C77.8333 9.25694 77.2884 9.14641 76.714 9.14641H75.035L74.9466 17.5197H76.5813C77.1557 17.5197 77.7044 17.4092 78.2273 17.1884C78.7501 16.9673 79.2105 16.6691 79.6081 16.2935C80.0057 15.918 80.3223 15.4722 80.558 14.9568C80.7936 14.4414 80.9115 13.8965 80.9115 13.3219ZM86.766 7.15822L90.0799 7.69759V20.8335H86.766V7.15822ZM143.632 4.21991L140.319 4.75928V20.8335H143.632V4.21991ZM111.952 7.15822L108.638 7.69759V20.8335H111.952V7.15822ZM84.4906 13.4103C84.4906 14.5887 84.2879 15.638 83.8829 16.5585C83.4779 17.4791 82.933 18.2561 82.2482 18.8892C81.5634 19.5225 80.7644 20.0051 79.8512 20.3364C78.9381 20.6676 77.9659 20.8335 76.935 20.8335H71.5002V5.96543H77.0675C78.0838 5.96543 79.0449 6.11993 79.9508 6.42915C80.8564 6.73859 81.6446 7.20616 82.3148 7.83202C82.9847 8.45789 83.515 9.23488 83.9054 10.1628C84.2954 11.0906 84.4906 12.1734 84.4906 13.4103Z" fill="#02000B"/>
</svg>
