<svg width="187" height="51" viewBox="0 0 187 51" fill="none" xmlns="http://www.w3.org/2000/svg">
<path fill-rule="evenodd" clip-rule="evenodd" d="M3.90402 6.47V47.7197H58.9036V6.47H3.90402ZM61.4038 47.7197V5.22001C61.4038 5.20929 61.4037 5.1984 61.4034 5.18782V5.18769C61.4031 5.17697 61.4027 5.16628 61.4022 5.15569C61.4016 5.14498 61.4009 5.13442 61.4001 5.12384C61.3993 5.11325 61.3984 5.10276 61.3973 5.09218C61.3963 5.08173 61.395 5.07129 61.3938 5.06085C61.3924 5.0504 61.391 5.04009 61.3894 5.02978V5.02965C61.3878 5.01934 61.3862 5.00903 61.3843 4.99872V4.99858C61.3824 4.98841 61.3805 4.97829 61.3784 4.96812V4.96798C61.3764 4.95795 61.3741 4.94776 61.3719 4.93758C61.3695 4.92754 61.3672 4.91748 61.3646 4.90744V4.90731C61.362 4.89741 61.3593 4.88754 61.3564 4.87764V4.87744C61.3537 4.86767 61.3507 4.85766 61.3478 4.84803V4.8479C61.3448 4.83813 61.3417 4.82839 61.3384 4.81876C61.3352 4.80912 61.3318 4.79931 61.3283 4.78981C61.3249 4.78032 61.3212 4.77069 61.3174 4.7612C61.3137 4.75184 61.3098 4.74234 61.3059 4.73298L61.2938 4.70523C61.2896 4.696 61.2854 4.68676 61.2809 4.67781V4.67767C61.2766 4.66859 61.2721 4.65947 61.2675 4.65052C61.2629 4.64157 61.2583 4.63264 61.2534 4.62383C61.2485 4.61501 61.2436 4.60615 61.2386 4.59746C61.1735 4.48406 61.091 4.38193 60.9948 4.29457C60.7729 4.09286 60.478 3.96995 60.1541 3.96995L50.1541 3.97008V2.72009H52.6541C53.3454 2.72009 53.9041 2.16137 53.9041 1.4701C53.9041 0.778829 53.3454 0.220042 52.6541 0.220042H45.1542C44.4629 0.220042 43.9041 0.778829 43.9041 1.4701C43.9041 2.16137 44.4629 2.72009 45.1542 2.72009H47.6542V3.97008H47.4798H46.6017H46.0773H45.4919H44.843H44.1273H41.5504H40.5384H39.445H35.647H34.1986H32.6542V2.72009H35.1542C35.2406 2.72009 35.3248 2.71154 35.4064 2.69472V2.69459C35.437 2.68835 35.467 2.68101 35.4967 2.67273C35.5066 2.66988 35.5165 2.66691 35.5263 2.66406V2.66392C35.5655 2.65185 35.6038 2.63787 35.6412 2.622V2.62187C35.7347 2.58239 35.8223 2.53193 35.9025 2.47197C35.9105 2.46601 35.9184 2.45993 35.9263 2.45383V2.45369L35.9497 2.43495V2.43482L35.9724 2.41541C35.9875 2.40225 36.0023 2.38897 36.0168 2.37514C36.024 2.36822 36.0312 2.36133 36.0382 2.35427V2.35414L36.0591 2.33281L36.0795 2.31096V2.31082C36.0861 2.30336 36.0928 2.29603 36.0993 2.28844C36.1058 2.28084 36.1123 2.27325 36.1187 2.26552L36.1375 2.2422V2.24207C36.1438 2.2342 36.1497 2.22636 36.1558 2.21836V2.21823C36.1618 2.21022 36.1678 2.20219 36.1735 2.19392L36.1906 2.16921C36.1963 2.1608 36.2017 2.15252 36.2071 2.14398L36.223 2.11848C36.2283 2.10993 36.2333 2.10126 36.2383 2.09258V2.09245C36.2433 2.0839 36.2482 2.0751 36.253 2.06628L36.2671 2.03952L36.2805 2.01243C36.2848 2.00335 36.2892 1.9941 36.2933 1.98501V1.98488C36.2975 1.97566 36.3015 1.96629 36.3055 1.95706V1.95693L36.317 1.92885V1.92871C36.3207 1.91935 36.3243 1.90973 36.3279 1.90023C36.3314 1.89074 36.3348 1.88098 36.338 1.87135C36.3413 1.86159 36.3444 1.85177 36.3475 1.84214V1.84201C36.3505 1.83224 36.3535 1.82237 36.3562 1.8126V1.81247C36.3591 1.8027 36.3617 1.79263 36.3643 1.78273V1.7826C36.3669 1.7727 36.3694 1.7627 36.3717 1.75253H36.3718C36.3741 1.74249 36.3761 1.73243 36.3783 1.72213V1.72199C36.3805 1.71195 36.3824 1.70164 36.3841 1.69133H36.3843C36.3861 1.68102 36.3877 1.67084 36.3893 1.66039V1.66026C36.3909 1.65009 36.3923 1.63964 36.3936 1.6292C36.395 1.61889 36.3962 1.60831 36.3972 1.59787C36.3983 1.58742 36.3992 1.57685 36.4 1.56627C36.4008 1.55569 36.4015 1.54513 36.402 1.53455L36.4022 1.53441C36.4027 1.52383 36.403 1.51307 36.4033 1.50236H36.4034C36.4037 1.49164 36.4037 1.48095 36.4037 1.4701C36.4037 1.1029 36.2459 0.772963 35.9944 0.544529C35.9649 0.517534 35.9339 0.492169 35.9018 0.468159C35.8296 0.414171 35.7515 0.367899 35.6683 0.330324V0.330191C35.6314 0.313642 35.5935 0.298773 35.5548 0.285615C35.5258 0.275848 35.4962 0.266982 35.4662 0.259386V0.259253C35.4463 0.254099 35.426 0.249615 35.4057 0.24541V0.245278C35.3854 0.241208 35.3649 0.237466 35.3441 0.234481V0.234349C35.3338 0.232721 35.3233 0.231466 35.313 0.23011V0.229977C35.2921 0.227264 35.271 0.225382 35.25 0.223619C35.2394 0.222805 35.2287 0.222108 35.2181 0.221566C35.2074 0.221023 35.1967 0.220645 35.1859 0.220373C35.1752 0.220102 35.1645 0.21991 35.1537 0.21991H31.4036H27.6539C27.643 0.21991 27.6323 0.220102 27.6216 0.220373C27.6109 0.220645 27.6001 0.221023 27.5894 0.221566C27.5788 0.222108 27.5681 0.222805 27.5576 0.223619C27.5364 0.225382 27.5154 0.227264 27.4945 0.229977V0.23011C27.484 0.231466 27.4737 0.232857 27.4634 0.234349V0.234481C27.4428 0.237466 27.4222 0.241208 27.4018 0.245278V0.24541C27.3815 0.24948 27.3613 0.253963 27.3413 0.259253V0.259386C27.3114 0.267118 27.2819 0.275848 27.2527 0.285615C27.2139 0.298773 27.1761 0.313506 27.1392 0.330191V0.330324C27.0562 0.367628 26.9779 0.414035 26.9058 0.468159C26.8736 0.492169 26.8427 0.517534 26.8131 0.544529C26.68 0.665528 26.573 0.814731 26.5021 0.983072C26.4389 1.13269 26.4038 1.29715 26.4038 1.4701C26.4038 1.48095 26.404 1.49164 26.4043 1.50236C26.4045 1.51307 26.4048 1.52383 26.4053 1.53441V1.53455C26.4059 1.54513 26.4066 1.55569 26.4074 1.56627C26.4082 1.57685 26.4091 1.58742 26.4102 1.59787C26.4113 1.60831 26.4125 1.61875 26.4137 1.6292C26.4151 1.63964 26.4166 1.65009 26.4181 1.66026V1.66039C26.4197 1.6707 26.4212 1.68102 26.4231 1.69133C26.4249 1.70164 26.4269 1.71182 26.4289 1.72199V1.72213C26.431 1.7323 26.4332 1.74235 26.4355 1.75253C26.4378 1.76257 26.4402 1.77256 26.4428 1.7826V1.78273C26.4454 1.79263 26.4481 1.80257 26.4509 1.81247V1.8126C26.4538 1.82237 26.4566 1.83224 26.4596 1.84201V1.84214C26.4626 1.85177 26.4657 1.86159 26.4689 1.87135C26.4722 1.88098 26.4756 1.89074 26.4791 1.90023C26.4827 1.90986 26.4862 1.91935 26.49 1.92871V1.92885C26.4936 1.93821 26.4976 1.94771 26.5015 1.95693V1.95706C26.5053 1.96629 26.5095 1.97566 26.5136 1.98488V1.98501C26.5178 1.9941 26.522 2.00335 26.5263 2.01243C26.5307 2.02152 26.535 2.03057 26.5398 2.03952C26.5444 2.04848 26.549 2.05747 26.5539 2.06628C26.5586 2.0751 26.5635 2.0839 26.5685 2.09245V2.09258C26.5735 2.10126 26.5786 2.10993 26.5839 2.11848C26.589 2.12702 26.5943 2.13557 26.5997 2.14398C26.6052 2.15252 26.6107 2.1608 26.6163 2.16921C26.622 2.17749 26.6275 2.18578 26.6334 2.19392C26.6392 2.20219 26.645 2.21022 26.6511 2.21823V2.21836C26.6571 2.22636 26.6632 2.2342 26.6694 2.24207V2.2422C26.6755 2.25007 26.6818 2.25765 26.6883 2.26552L26.7077 2.28844C26.7142 2.29603 26.7208 2.30336 26.7275 2.31082V2.31096C26.7343 2.31828 26.7411 2.32549 26.7479 2.33281C26.7548 2.34014 26.7617 2.34709 26.7688 2.35414L26.7689 2.35427C26.7759 2.36133 26.783 2.36836 26.7902 2.37514H26.7903C26.8047 2.38897 26.8195 2.40225 26.8345 2.41541C26.8421 2.42206 26.8497 2.42844 26.8573 2.43482V2.43495C26.865 2.44132 26.8728 2.44759 26.8807 2.45369V2.45383C26.8885 2.45993 26.8964 2.46601 26.9045 2.47197C26.9847 2.53193 27.0723 2.58239 27.1658 2.62187V2.622C27.2031 2.63773 27.2415 2.65185 27.2807 2.66392V2.66406C27.2905 2.66691 27.3004 2.66988 27.3103 2.67273C27.34 2.68114 27.37 2.68835 27.4006 2.69459V2.69472C27.482 2.71141 27.5664 2.72009 27.6528 2.72009H30.1528V3.97008H28.6084H27.1599H23.362H22.2687H21.2568H18.6798H17.9641H17.315H16.7298H16.2054H15.3273H15.1531V2.72009H17.6531C18.3442 2.72009 18.9031 2.16137 18.9031 1.4701C18.9031 0.778829 18.3442 0.220042 17.6531 0.220042H10.153C9.46175 0.220042 8.903 0.778829 8.903 1.4701C8.903 2.16137 9.46175 2.72009 10.153 2.72009H12.653V3.97008L2.65307 3.96995C2.32914 3.96995 2.0341 4.09272 1.81231 4.29457C1.71627 4.38206 1.63378 4.48406 1.56867 4.59746C1.56365 4.60615 1.55878 4.61501 1.5539 4.62383C1.54901 4.63264 1.5444 4.64157 1.53979 4.65052L1.52621 4.67767V4.67781C1.52187 4.68676 1.51767 4.696 1.51346 4.70523C1.50926 4.71445 1.5052 4.72376 1.50141 4.73298H1.50127C1.49734 4.74234 1.49354 4.75184 1.48988 4.7612C1.48622 4.77069 1.48241 4.78032 1.47902 4.78981C1.47549 4.79931 1.47211 4.80912 1.46885 4.81876C1.46573 4.82839 1.46246 4.83813 1.45948 4.8479V4.84803C1.45649 4.85766 1.45352 4.86767 1.45067 4.87744V4.87764C1.44782 4.88741 1.4451 4.89741 1.44252 4.90731V4.90744C1.43995 4.91735 1.43751 4.92741 1.4352 4.93758C1.4329 4.94762 1.43071 4.95781 1.42868 4.96798V4.96812C1.42651 4.97815 1.42461 4.98828 1.42285 4.99858V4.99872C1.42095 5.00889 1.41935 5.0192 1.41772 5.02965V5.02978C1.41609 5.04009 1.4147 5.0504 1.41335 5.06085C1.41199 5.07129 1.41079 5.08173 1.40984 5.09218C1.40875 5.10262 1.4078 5.11325 1.40699 5.12384C1.40631 5.13442 1.40551 5.14498 1.40497 5.15569C1.40443 5.16641 1.40401 5.17697 1.40374 5.18769V5.18782C1.40347 5.1984 1.40331 5.20929 1.40331 5.22001V47.7197C0.863426 47.7197 0.404115 48.0609 0.229127 48.5397C0.2256 48.5492 0.222215 48.5589 0.218959 48.5685V48.5687C0.215704 48.5783 0.212605 48.588 0.20962 48.5977V48.5978C0.206636 48.6076 0.203627 48.6175 0.200778 48.6272V48.6274C0.197929 48.6373 0.195241 48.6472 0.192664 48.6572C0.190087 48.6673 0.187618 48.6772 0.185312 48.6874V48.6875C0.183006 48.6975 0.180856 48.7076 0.178821 48.7179C0.176786 48.7281 0.174756 48.7382 0.172992 48.7485V48.7486C0.171229 48.7588 0.169454 48.7691 0.167826 48.7794V48.7796C0.166198 48.7899 0.164844 48.8003 0.163487 48.8106V48.8108C0.162131 48.8211 0.160897 48.8315 0.159811 48.8419V48.8421C0.158726 48.8525 0.157777 48.8632 0.156963 48.8736V48.8737C0.156285 48.8842 0.155486 48.8949 0.154943 48.9055V48.9056C0.1544 48.9162 0.153989 48.9267 0.153718 48.9375V48.9376C0.153446 48.9483 0.15332 48.9591 0.15332 48.9698V48.9699C0.15332 48.9806 0.153446 48.9913 0.153718 49.002V49.0022C0.153989 49.0128 0.1544 49.0235 0.154943 49.034V49.0342C0.155486 49.0447 0.156149 49.0554 0.156963 49.066V49.0661C0.157777 49.0765 0.158726 49.0871 0.159811 49.0976V49.0977C0.160897 49.1081 0.162131 49.1186 0.163487 49.1289V49.129C0.164708 49.1395 0.166198 49.1498 0.167826 49.1601C0.169454 49.1705 0.171093 49.1807 0.172992 49.191V49.1911C0.174756 49.2013 0.176786 49.2115 0.178821 49.2218C0.180856 49.232 0.183142 49.242 0.185312 49.2522V49.2523C0.187618 49.2622 0.190087 49.2722 0.192664 49.2824C0.195241 49.2925 0.197929 49.3023 0.200778 49.3122V49.3123C0.203627 49.3222 0.2065 49.3321 0.20962 49.3417V49.3418C0.212605 49.3516 0.215704 49.3614 0.218959 49.371V49.3712C0.222215 49.3808 0.2256 49.3904 0.229127 49.3999C0.404115 49.8788 0.86329 50.2199 1.40331 50.2199L29.8005 50.2198H30.6022H31.4031H32.204H33.0056L61.4028 50.2199C61.9427 50.2199 62.402 49.8788 62.577 49.3999C62.5804 49.3904 62.5839 49.3808 62.5872 49.3712V49.371C62.5904 49.3614 62.5936 49.3516 62.5966 49.3418V49.3417C62.5995 49.3321 62.6025 49.3222 62.6054 49.3123V49.3122C62.6082 49.3024 62.6109 49.2925 62.6134 49.2824C62.616 49.2724 62.6185 49.2624 62.6208 49.2523V49.2522C62.6231 49.2422 62.6253 49.2321 62.6274 49.2218C62.6294 49.2116 62.6314 49.2015 62.6332 49.1911V49.191C62.635 49.1808 62.6367 49.1705 62.6384 49.1601C62.6398 49.1498 62.6413 49.1395 62.6427 49.129V49.1289C62.644 49.1186 62.6453 49.1081 62.6462 49.0977V49.0976C62.6473 49.0871 62.6482 49.0765 62.6491 49.0661V49.066C62.6497 49.0554 62.6506 49.0447 62.6511 49.0342V49.034C62.6516 49.0235 62.6521 49.0128 62.6523 49.0022V49.002C62.6526 48.9913 62.6527 48.9806 62.6527 48.9699V48.9698C62.6527 48.9591 62.6526 48.9483 62.6523 48.9376V48.9375C62.6521 48.9267 62.6516 48.9162 62.6511 48.9056V48.9055C62.6506 48.8949 62.6499 48.8842 62.6491 48.8737V48.8736C62.6482 48.863 62.6473 48.8525 62.6462 48.8421V48.8419C62.6453 48.8315 62.6439 48.8211 62.6427 48.8108V48.8106C62.6415 48.8003 62.6398 48.7899 62.6384 48.7796V48.7794C62.6367 48.7693 62.6351 48.7589 62.6332 48.7486V48.7485C62.6314 48.7383 62.6294 48.7282 62.6274 48.7179C62.6253 48.7077 62.623 48.6975 62.6208 48.6875V48.6874C62.6185 48.6773 62.6161 48.6674 62.6134 48.6572C62.6108 48.6472 62.6081 48.6373 62.6054 48.6274V48.6272C62.6025 48.6175 62.5997 48.6076 62.5966 48.5978V48.5977C62.5936 48.588 62.5904 48.5783 62.5872 48.5687V48.5685C62.5839 48.5589 62.5804 48.5492 62.577 48.5397C62.403 48.0607 61.9438 47.7197 61.4038 47.7197Z" fill="#EB5C05"/>
<path fill-rule="evenodd" clip-rule="evenodd" d="M35.4195 20.1515H52.6811C53.3573 20.1515 53.9039 19.605 53.9039 18.9288C53.9039 18.2526 53.3573 17.706 52.6811 17.706L35.4195 17.7062C34.7435 17.7062 34.1968 18.2527 34.1968 18.9289C34.1968 19.6051 34.7435 20.1516 35.4195 20.1515Z" fill="#EB5C05"/>
<path fill-rule="evenodd" clip-rule="evenodd" d="M35.4195 25.0423H52.6811C53.3573 25.0423 53.9039 24.4958 53.9039 23.8196C53.9039 23.1433 53.3573 22.5968 52.6811 22.5968H35.4195C34.7435 22.5968 34.1968 23.1433 34.1968 23.8196C34.1968 24.4958 34.7435 25.0423 35.4195 25.0423Z" fill="#EB5C05"/>
<path fill-rule="evenodd" clip-rule="evenodd" d="M35.4195 29.933H52.6811C53.3573 29.933 53.9039 29.3865 53.9039 28.7103C53.9039 28.0341 53.3573 27.4876 52.6811 27.4876H35.4195C34.7435 27.4876 34.1968 28.0341 34.1968 28.7103C34.1968 29.3865 34.7435 29.933 35.4195 29.933Z" fill="#EB5C05"/>
<path fill-rule="evenodd" clip-rule="evenodd" d="M35.4195 34.8213H41.6771C42.3531 34.8213 42.8998 34.2748 42.8998 33.5986C42.8998 32.9224 42.3531 32.3759 41.6771 32.3759H35.4195C34.7435 32.3759 34.1968 32.9224 34.1968 33.5986C34.1968 34.2748 34.7435 34.8213 35.4195 34.8213Z" fill="#EB5C05"/>
<path fill-rule="evenodd" clip-rule="evenodd" d="M22.4619 22.7554C25.3798 22.7554 27.754 20.3814 27.754 17.4633C27.754 14.5452 25.38 12.1713 22.4619 12.1713C19.5438 12.1713 17.1699 14.5452 17.1699 17.4633C17.1699 20.3814 19.5438 22.7554 22.4619 22.7554Z" fill="#EB5C05"/>
<path d="M17.1701 40.3562L17.1699 27.6691L27.2229 24.3085L27.2231 40.3562H17.1701Z" fill="#EB5C05"/>
<path d="M184.559 43.3684C184.129 43.935 183.625 44.362 183.048 44.6453C182.471 44.9284 181.813 45.0686 181.075 45.0686C179.592 45.0686 178.399 44.5298 177.497 43.456C176.595 42.3787 176.143 40.9585 176.143 39.1885C176.143 37.4394 176.595 36.0333 177.501 34.97C178.407 33.9102 179.606 33.3786 181.096 33.3786C181.821 33.3786 182.457 33.5149 183.006 33.7914C183.559 34.0676 184.07 34.512 184.542 35.117V33.7353H186.343V44.4742C186.343 46.1707 185.941 47.3983 185.133 48.154C184.328 48.9094 183.024 49.2873 181.229 49.2873C179.771 49.2873 178.634 49.004 177.815 48.4338C176.993 47.8672 176.584 47.0799 176.584 46.0726V45.9923H178.389V46.0342C178.389 46.6008 178.63 47.0242 179.113 47.3075C179.592 47.5908 180.32 47.7342 181.289 47.7342C182.454 47.7342 183.286 47.5104 183.797 47.0661C184.308 46.6219 184.56 45.8908 184.56 44.8728V43.3684H184.559ZM181.313 35.0362C180.274 35.0362 179.473 35.4001 178.914 36.1241C178.354 36.8481 178.074 37.8834 178.074 39.2268C178.074 40.5456 178.361 41.5738 178.934 42.3085C179.508 43.043 180.309 43.4105 181.334 43.4105C182.454 43.4105 183.282 43.0747 183.818 42.3996C184.353 41.7279 184.622 40.6926 184.622 39.3003C184.622 37.8943 184.342 36.8308 183.786 36.1138C183.23 35.3966 182.405 35.0362 181.313 35.0362ZM172.033 44.7116V37.9571C172.033 36.8798 171.869 36.1311 171.536 35.7184C171.204 35.3056 170.637 35.0992 169.833 35.0992C168.801 35.0992 168 35.3896 167.43 35.9739C166.86 36.5582 166.576 37.3871 166.576 38.4611V44.7118H164.729V33.7351H166.496V35.3336C166.919 34.7004 167.419 34.2284 168 33.924C168.58 33.6161 169.252 33.4623 170.018 33.4623C170.843 33.4623 171.54 33.5881 172.106 33.8364C172.676 34.0846 173.114 34.4592 173.418 34.9559C173.59 35.2253 173.712 35.5366 173.789 35.8934C173.862 36.2536 173.901 36.8204 173.901 37.6004V38.1216V44.7116H172.033ZM160.067 44.7116V33.7349H161.913V44.7116H160.067ZM160.067 31.7203V29.6216H161.913V31.7203H160.067ZM148.876 41.1437H150.639C150.71 41.8887 150.975 42.4519 151.448 42.8367C151.916 43.218 152.581 43.4105 153.445 43.4105C154.239 43.4105 154.865 43.2565 155.323 42.9452C155.782 42.6337 156.012 42.207 156.012 41.6682C156.012 41.2623 155.901 40.9548 155.673 40.7379C155.446 40.5245 155.002 40.3392 154.344 40.1816L152.28 39.6465C151.119 39.3665 150.307 38.9958 149.852 38.5376C149.398 38.0759 149.17 37.4181 149.17 36.5647C149.17 35.5958 149.537 34.8229 150.272 34.2526C151.007 33.6824 152.014 33.3991 153.291 33.3991C154.596 33.3991 155.635 33.7036 156.408 34.3122C157.181 34.9173 157.565 35.7357 157.565 36.7573V36.7992H155.782C155.74 36.2186 155.501 35.7673 155.068 35.4492C154.634 35.1309 154.043 34.9734 153.298 34.9734C152.549 34.9734 151.983 35.1029 151.598 35.3618C151.21 35.6242 151.017 36.0019 151.017 36.502C151.017 36.8554 151.14 37.1352 151.381 37.338C151.626 37.5373 152.077 37.7159 152.742 37.8661L154.529 38.2859C155.796 38.5867 156.666 38.9714 157.146 39.4367C157.622 39.9055 157.859 40.5735 157.859 41.4411C157.859 42.5813 157.457 43.4665 156.656 44.0995C155.852 44.7327 154.729 45.0474 153.287 45.0474C151.878 45.0474 150.797 44.7116 150.041 44.0438C149.286 43.3755 148.898 42.4066 148.876 41.1437ZM144.99 44.7116V33.7349H146.837V44.7116H144.99ZM144.99 31.7203V29.6216H146.837V31.7203H144.99ZM141.258 41.9481C141.258 42.4414 141.328 42.7702 141.468 42.9345C141.608 43.0988 141.863 43.1794 142.241 43.1794C142.349 43.1794 142.479 43.1759 142.633 43.1689C142.786 43.162 142.986 43.1479 143.231 43.127V44.6939C142.923 44.7499 142.65 44.7883 142.405 44.8163C142.164 44.8443 141.947 44.8584 141.755 44.8584C140.891 44.8584 140.282 44.6905 139.932 44.3583C139.586 44.0224 139.411 43.4278 139.411 42.5743V35.2041H137.771V33.7349H139.411V30.6707H141.258V33.7349H143.231V35.2041H141.258V41.9481ZM132.128 44.7116V33.7349H133.912V35.7009C134.206 34.9664 134.605 34.4171 135.109 34.0498C135.609 33.686 136.224 33.5042 136.956 33.5042C137.092 33.5042 137.193 33.5042 137.253 33.5078C137.316 33.5115 137.375 33.5218 137.438 33.5359V35.4774C137.389 35.4704 137.337 35.4632 137.274 35.4598C137.214 35.4562 137.12 35.4563 136.997 35.4563C136.015 35.4563 135.266 35.7256 134.748 36.2608C134.234 36.7959 133.975 37.5794 133.975 38.6044V44.7118H132.128V44.7116ZM128.039 41.1647H129.865C129.666 42.3752 129.141 43.3264 128.287 44.0226C127.434 44.7187 126.357 45.0684 125.059 45.0684C123.534 45.0684 122.331 44.5576 121.449 43.5327C120.568 42.5079 120.127 41.1088 120.127 39.3422C120.127 37.4707 120.564 36.0085 121.439 34.9557C122.313 33.9029 123.516 33.3782 125.056 33.3782C126.633 33.3782 127.854 33.8642 128.718 34.8333C129.582 35.8023 130.012 37.1699 130.012 38.9399C130.012 39.1638 130.012 39.3315 130.009 39.44C130.005 39.5483 129.994 39.6568 129.984 39.7583H122.068C122.089 40.9124 122.376 41.8082 122.929 42.4413C123.481 43.0743 124.251 43.3892 125.234 43.3892C125.983 43.3892 126.605 43.1967 127.091 42.8085C127.581 42.4241 127.896 41.8748 128.039 41.1647ZM122.058 38.2265H128.081C128.074 37.2015 127.815 36.4076 127.301 35.8513C126.791 35.2952 126.063 35.0155 125.122 35.0155C124.213 35.0155 123.499 35.2881 122.974 35.8373C122.453 36.383 122.145 37.1805 122.058 38.2265ZM113.222 44.7116L109.172 33.7349H111.151L114.212 42.5291L117.203 33.7349H119.183L115.174 44.7116H113.222ZM107.678 29.6216V44.7116H105.894V43.33C105.425 43.9002 104.89 44.3305 104.295 44.6174C103.701 44.9043 103.046 45.0476 102.329 45.0476C100.864 45.0476 99.699 44.5231 98.8279 43.4737C97.9569 42.4278 97.5196 41.0216 97.5196 39.2586C97.5196 37.464 97.9568 36.0333 98.8314 34.97C99.7058 33.9102 100.871 33.3786 102.329 33.3786C103.092 33.3786 103.771 33.5183 104.362 33.8018C104.953 34.0853 105.463 34.512 105.894 35.0788V29.6217H107.678V29.6216ZM105.957 39.1464C105.957 37.7856 105.68 36.7607 105.131 36.0717C104.582 35.3827 103.767 35.0362 102.69 35.0362C101.651 35.0362 100.846 35.4142 100.28 36.1696C99.7128 36.9253 99.4296 37.9956 99.4296 39.3808C99.4296 40.633 99.7199 41.6159 100.304 42.3329C100.888 43.0499 101.689 43.4105 102.707 43.4105C103.739 43.4105 104.54 43.0432 105.107 42.3051C105.673 41.567 105.957 40.514 105.957 39.1464ZM93.3011 39.1287C92.8078 39.3945 91.9647 39.6011 90.7686 39.7515C90.3453 39.8075 90.027 39.8493 89.8136 39.8844C89.1455 39.9929 88.6627 40.1922 88.369 40.4791C88.0752 40.7659 87.9284 41.1822 87.9284 41.7313C87.9284 42.2771 88.0998 42.6968 88.4426 42.9905C88.7819 43.2845 89.2716 43.4313 89.9082 43.4313C90.898 43.4313 91.7131 43.183 92.3463 42.6826C92.9828 42.1825 93.3011 41.5458 93.3011 40.7656V39.1287ZM93.476 43.2462C92.8988 43.8477 92.2901 44.2956 91.643 44.5962C90.9993 44.897 90.3138 45.0474 89.5861 45.0474C88.4668 45.0474 87.5924 44.7573 86.9626 44.173C86.3328 43.5887 86.0181 42.7808 86.0181 41.7525C86.0181 40.7556 86.3259 39.972 86.9451 39.4054C87.5642 38.8388 88.5087 38.475 89.7715 38.3105C90.0935 38.2754 90.5272 38.2265 91.0762 38.1669C92.0103 38.0725 92.5873 37.9781 92.7971 37.8907C93.0106 37.8067 93.1503 37.6982 93.2167 37.5653C93.2868 37.4324 93.3216 37.142 93.3216 36.6977C93.3216 36.1381 93.1152 35.7183 92.7059 35.435C92.2966 35.1552 91.6776 35.0155 90.8483 35.0155C89.995 35.0155 89.3477 35.1868 88.914 35.5295C88.4803 35.8724 88.2635 36.3796 88.2635 37.0513H86.5214V36.9673C86.5214 35.8622 86.9096 34.9838 87.6898 34.344C88.4698 33.7003 89.5402 33.3786 90.9079 33.3786C92.3769 33.3786 93.4579 33.6548 94.1504 34.2041C94.843 34.7533 95.1893 35.6138 95.1893 36.7855V42.2739C95.1893 42.7427 95.2416 43.0469 95.3431 43.1834C95.448 43.3199 95.6335 43.3898 95.8994 43.3898C95.9554 43.3898 96.0218 43.3862 96.1023 43.3759C96.1827 43.3652 96.2772 43.3477 96.3857 43.3268V44.7541C96.1618 44.8171 95.9624 44.859 95.7945 44.8835C95.6302 44.9081 95.4691 44.922 95.3187 44.922C94.703 44.922 94.2413 44.7889 93.9371 44.5197C93.6293 44.2539 93.4754 43.8481 93.4754 43.3095V43.2462H93.476Z" fill="#02000B"/>
<path d="M154.38 21.1287C153.512 21.1287 152.694 20.9642 151.924 20.6354C151.155 20.3066 150.486 19.8552 149.92 19.2818C149.354 18.7082 148.905 18.0358 148.577 17.2667C148.248 16.4976 148.084 15.6787 148.084 14.8113C148.084 13.944 148.248 13.125 148.577 12.3557C148.905 11.5866 149.353 10.918 149.92 10.3516C150.487 9.78503 151.155 9.33697 151.924 9.00817C152.694 8.67958 153.512 8.51514 154.38 8.51514C155.248 8.51514 156.066 8.67938 156.836 9.00817C157.605 9.33697 158.277 9.78503 158.85 10.3516C159.424 10.918 159.875 11.5862 160.204 12.3557C160.533 13.1252 160.697 13.9446 160.697 14.8113V16.0496H151.421C151.659 16.6371 152.044 17.1167 152.575 17.4872C153.107 17.8577 153.709 18.0435 154.38 18.0435C154.8 18.0435 155.195 17.9698 155.566 17.823C155.936 17.6763 156.262 17.4696 156.542 17.2039L158.83 19.3027C158.256 19.8766 157.591 20.3243 156.836 20.6461C156.08 20.9674 155.261 21.1287 154.38 21.1287ZM151.295 13.9089H157.465C157.269 13.2373 156.891 12.6843 156.332 12.2508C155.772 11.8173 155.122 11.6003 154.38 11.6003C154.016 11.6003 153.67 11.6564 153.341 11.7682C153.012 11.8801 152.711 12.0414 152.439 12.2508C152.166 12.4604 151.931 12.7059 151.736 12.9856C151.54 13.2651 151.393 13.5731 151.295 13.9089ZM143.194 14.9583C143.188 14.3988 143.11 13.9158 142.942 13.5103C142.774 13.1048 142.543 12.7721 142.249 12.5134C141.955 12.2545 141.612 12.0619 141.221 11.9361C140.829 11.8105 140.409 11.7472 139.962 11.7472C139.514 11.7472 139.097 11.8139 138.713 11.9466C138.328 12.0791 137.988 12.2686 137.695 12.5132C137.401 12.7578 137.17 13.059 137.002 13.4156C136.835 13.772 136.752 14.1749 136.751 14.6223L136.73 21.0025H133.707L133.666 14.9579V14.937V8.97642H136.793L136.751 10.1307C137.143 9.64083 137.629 9.27723 138.21 9.03924C138.79 8.80145 139.375 8.67844 139.962 8.66152C144.174 8.53931 146.263 10.6911 146.279 15.1256L146.3 21.0023H143.257L143.194 14.9583ZM111.083 11.829H112.321C112.391 10.8181 112.594 9.46099 112.93 8.74421C113.265 8.02722 113.706 7.44861 114.252 7.00565C114.797 6.56411 115.427 6.24136 116.141 6.03659C116.854 5.83223 117.624 5.73231 118.45 5.73231V8.81735C118.128 8.81735 117.782 8.86125 117.411 8.94702C117.04 9.03239 116.697 9.17457 116.382 9.3737C116.068 9.57283 115.804 9.83134 115.595 10.1501C115.385 10.4714 115.274 11.367 115.26 11.8498L118.135 11.8288L118.093 14.683H115.26V21.0027H112.175L112.196 14.7042H111.083V11.829H111.083ZM102.276 11.829H103.514C103.584 10.8181 103.787 9.46119 104.123 8.74421C104.459 8.02722 104.899 7.44881 105.445 7.00565C105.99 6.56411 106.62 6.24136 107.334 6.03659C108.047 5.83223 108.817 5.73231 109.643 5.73231V8.81735C109.321 8.81735 108.975 8.86105 108.604 8.94702C108.233 9.03259 107.89 9.17437 107.575 9.3737C107.261 9.57303 106.997 9.83134 106.788 10.1501C106.578 10.4714 106.466 11.367 106.452 11.8498L109.328 11.8288L109.286 14.683H106.452V21.0027H103.367L103.388 14.7042H102.276V11.829H102.276ZM97.1626 13.9299C97.1626 13.356 97.068 12.8174 96.8792 12.3138C96.6905 11.8103 96.4209 11.3693 96.0712 10.9916C95.7214 10.6139 95.3085 10.3164 94.8329 10.0997C94.3573 9.88309 93.8324 9.77432 93.259 9.77432C92.6852 9.77432 92.1603 9.88309 91.6849 10.0997C91.2095 10.3164 90.7962 10.6139 90.4466 10.9916C90.0969 11.3693 89.8275 11.8101 89.6387 12.3138C89.4498 12.8176 89.3554 13.3563 89.3554 13.9299C89.3554 14.5035 89.4498 15.0421 89.6387 15.5458C89.8275 16.0496 90.0969 16.4903 90.4466 16.8678C90.7962 17.2456 91.2093 17.5432 91.6849 17.76C92.1607 17.9769 92.6854 18.0851 93.259 18.0851C93.8326 18.0851 94.3575 17.9767 94.8329 17.76C95.3085 17.5434 95.7216 17.2456 96.0712 16.8678C96.4207 16.4903 96.6905 16.0494 96.8792 15.5458C97.068 15.0425 97.1626 14.5035 97.1626 13.9299ZM127.264 8.01139L130.412 8.52379V21.0029H127.264V8.01139ZM124.284 5.21991L121.136 5.73231V21.0027H124.284V5.21991ZM100.5 13.9299C100.5 14.9372 100.311 15.8785 99.9331 16.7527C99.5556 17.6272 99.0376 18.3935 98.38 19.0511C97.7226 19.7084 96.9565 20.2263 96.0818 20.604C95.2074 20.9819 94.2663 21.1706 93.259 21.1706C92.2515 21.1706 91.3106 20.9817 90.436 20.604C89.5615 20.2263 88.7954 19.7086 88.1378 19.0511C87.4802 18.3933 86.9626 17.6274 86.5847 16.7527C86.207 15.8783 86.0181 14.9372 86.0181 13.9299C86.0181 12.9226 86.2072 11.9813 86.5847 11.1068C86.9624 10.2326 87.4802 9.46649 88.1378 8.8087C88.7954 8.15111 89.5617 7.63328 90.436 7.25556C91.3104 6.87804 92.2515 6.68919 93.259 6.68919C94.2663 6.68919 95.2074 6.87804 96.0818 7.25556C96.9563 7.63328 97.7226 8.15111 98.38 8.8087C99.0376 9.46629 99.5554 10.2326 99.9331 11.1068C100.311 11.9813 100.5 12.9226 100.5 13.9299Z" fill="#02000B"/>
</svg>
